%TF.GenerationSoftware,KiCad,Pcbnew,9.0.6*%
%TF.CreationDate,2025-12-17T23:23:30+01:00*%
%TF.ProjectId,LattePanda_MOKA,4c617474-6550-4616-9e64-615f4d4f4b41,1.0*%
%TF.SameCoordinates,Original*%
%TF.FileFunction,Soldermask,Bot*%
%TF.FilePolarity,Negative*%
%FSLAX46Y46*%
G04 Gerber Fmt 4.6, Leading zero omitted, Abs format (unit mm)*
G04 Created by KiCad (PCBNEW 9.0.6) date 2025-12-17 23:23:30*
%MOMM*%
%LPD*%
G01*
G04 APERTURE LIST*
G04 Aperture macros list*
%AMRoundRect*
0 Rectangle with rounded corners*
0 $1 Rounding radius*
0 $2 $3 $4 $5 $6 $7 $8 $9 X,Y pos of 4 corners*
0 Add a 4 corners polygon primitive as box body*
4,1,4,$2,$3,$4,$5,$6,$7,$8,$9,$2,$3,0*
0 Add four circle primitives for the rounded corners*
1,1,$1+$1,$2,$3*
1,1,$1+$1,$4,$5*
1,1,$1+$1,$6,$7*
1,1,$1+$1,$8,$9*
0 Add four rect primitives between the rounded corners*
20,1,$1+$1,$2,$3,$4,$5,0*
20,1,$1+$1,$4,$5,$6,$7,0*
20,1,$1+$1,$6,$7,$8,$9,0*
20,1,$1+$1,$8,$9,$2,$3,0*%
%AMFreePoly0*
4,1,125,-0.044645,1.135355,-0.030971,1.109806,-0.020971,1.059806,-0.020000,1.050000,-0.020000,0.994140,-0.010811,0.939006,-0.001581,0.892856,0.017434,0.835811,0.019320,0.828220,0.028431,0.773551,0.066424,0.678570,0.067434,0.675811,0.086966,0.617215,0.104936,0.572290,0.162875,0.475725,0.166424,0.468570,0.184936,0.422290,0.211147,0.378605,0.249043,0.331235,0.250000,0.330000,
0.279535,0.290620,0.319043,0.241235,0.320000,0.240000,0.349535,0.200620,0.387315,0.153395,0.421000,0.119710,0.465725,0.092875,0.475355,0.085355,0.513395,0.047315,0.560620,0.009535,0.597933,-0.018450,0.645725,-0.047125,0.651235,-0.050957,0.695447,-0.086327,0.738570,-0.103576,0.745725,-0.107125,0.842290,-0.165064,0.887215,-0.183034,0.945811,-0.202566,0.948570,-0.203576,
1.043551,-0.241568,1.098220,-0.250680,1.105811,-0.252566,1.162856,-0.271581,1.209006,-0.280811,1.264140,-0.290000,1.320000,-0.290000,1.329806,-0.290971,1.379806,-0.300971,1.411603,-0.322265,1.420000,-0.350000,1.420000,-1.100000,1.405355,-1.135355,1.370000,-1.150000,1.362929,-1.149497,1.296450,-1.140000,1.230000,-1.140000,1.222929,-1.139497,1.152929,-1.129497,1.151780,-1.129320,
1.092320,-1.119410,1.022929,-1.109497,1.016264,-1.108076,0.879546,-1.069013,0.812929,-1.059497,0.804189,-1.057434,0.744189,-1.037434,0.740304,-1.035957,0.672215,-1.006776,0.614189,-0.987434,0.610304,-0.985957,0.540304,-0.955957,0.537639,-0.954721,0.418953,-0.895378,0.350304,-0.865957,0.347639,-0.864721,0.287639,-0.834721,0.282265,-0.831603,0.162265,-0.751603,0.158765,-0.749043,
0.110465,-0.710403,0.052265,-0.671603,0.048765,-0.669043,-0.001235,-0.629043,-0.002009,-0.628411,-0.061625,-0.578731,-0.111235,-0.539043,-0.115355,-0.535355,-0.265355,-0.385355,-0.269043,-0.381235,-0.308731,-0.331625,-0.358411,-0.272009,-0.359043,-0.271235,-0.399043,-0.221235,-0.401603,-0.217735,-0.440403,-0.159535,-0.479043,-0.111235,-0.481603,-0.107735,-0.561603,0.012265,-0.564721,0.017639,
-0.594721,0.077639,-0.595957,0.080304,-0.625378,0.148953,-0.684721,0.267639,-0.685957,0.270304,-0.715957,0.340304,-0.717434,0.344189,-0.736776,0.402215,-0.765957,0.470304,-0.767434,0.474189,-0.787434,0.534189,-0.789497,0.542929,-0.799013,0.609546,-0.838076,0.746264,-0.839497,0.752929,-0.859410,0.892320,-0.869320,0.951780,-0.870000,0.960000,-0.870000,1.026450,-0.879497,1.092929,
-0.870000,1.130000,-0.837071,1.149497,-0.830000,1.150000,-0.080000,1.150000,-0.044645,1.135355,-0.044645,1.135355,$1*%
%AMFreePoly1*
4,1,125,1.130000,0.870000,1.149497,0.837071,1.150000,0.830000,1.150000,0.080000,1.135355,0.044645,1.109806,0.030971,1.059806,0.020971,1.050000,0.020000,0.994140,0.020000,0.939006,0.010811,0.892856,0.001581,0.835811,-0.017434,0.828220,-0.019320,0.773551,-0.028431,0.678570,-0.066424,0.675811,-0.067434,0.617215,-0.086966,0.572290,-0.104936,0.475725,-0.162875,0.468570,-0.166424,
0.422290,-0.184936,0.378605,-0.211147,0.331235,-0.249043,0.330000,-0.250000,0.290620,-0.279535,0.241235,-0.319043,0.240000,-0.320000,0.200620,-0.349535,0.153395,-0.387315,0.119710,-0.421000,0.092875,-0.465725,0.085355,-0.475355,0.047315,-0.513395,0.009535,-0.560620,-0.018450,-0.597933,-0.047125,-0.645725,-0.050957,-0.651235,-0.086327,-0.695447,-0.103576,-0.738570,-0.107125,-0.745725,
-0.165064,-0.842290,-0.183034,-0.887215,-0.202566,-0.945811,-0.203576,-0.948570,-0.241568,-1.043551,-0.250680,-1.098220,-0.252566,-1.105811,-0.271581,-1.162856,-0.280811,-1.209006,-0.290000,-1.264140,-0.290000,-1.320000,-0.290971,-1.329806,-0.300971,-1.379806,-0.322265,-1.411603,-0.350000,-1.420000,-1.100000,-1.420000,-1.135355,-1.405355,-1.150000,-1.370000,-1.149497,-1.362929,-1.140000,-1.296450,
-1.140000,-1.230000,-1.139497,-1.222929,-1.129497,-1.152929,-1.129320,-1.151780,-1.119410,-1.092320,-1.109497,-1.022929,-1.108076,-1.016264,-1.069013,-0.879546,-1.059497,-0.812929,-1.057434,-0.804189,-1.037434,-0.744189,-1.035957,-0.740304,-1.006776,-0.672215,-0.987434,-0.614189,-0.985957,-0.610304,-0.955957,-0.540304,-0.954721,-0.537639,-0.895378,-0.418953,-0.865957,-0.350304,-0.864721,-0.347639,
-0.834721,-0.287639,-0.831603,-0.282265,-0.751603,-0.162265,-0.749043,-0.158765,-0.710403,-0.110465,-0.671603,-0.052265,-0.669043,-0.048765,-0.629043,0.001235,-0.628411,0.002009,-0.578731,0.061625,-0.539043,0.111235,-0.535355,0.115355,-0.385355,0.265355,-0.381235,0.269043,-0.331625,0.308731,-0.272009,0.358411,-0.271235,0.359043,-0.221235,0.399043,-0.217735,0.401603,-0.159535,0.440403,
-0.111235,0.479043,-0.107735,0.481603,0.012265,0.561603,0.017639,0.564721,0.077639,0.594721,0.080304,0.595957,0.148953,0.625378,0.267639,0.684721,0.270304,0.685957,0.340304,0.715957,0.344189,0.717434,0.402215,0.736776,0.470304,0.765957,0.474189,0.767434,0.534189,0.787434,0.542929,0.789497,0.609546,0.799013,0.746264,0.838076,0.752929,0.839497,0.892320,0.859410,
0.951780,0.869320,0.960000,0.870000,1.026450,0.870000,1.092929,0.879497,1.130000,0.870000,1.130000,0.870000,$1*%
%AMFreePoly2*
4,1,127,1.135355,1.405355,1.150000,1.370000,1.149497,1.362929,1.140000,1.296450,1.140000,1.230000,1.139497,1.222929,1.129497,1.152929,1.129320,1.151780,1.119410,1.092320,1.109497,1.022929,1.108076,1.016264,1.069013,0.879546,1.059497,0.812929,1.057434,0.804189,1.037434,0.744189,1.035957,0.740304,1.006776,0.672215,0.987434,0.614189,0.985957,0.610304,0.955957,0.540304,
0.954721,0.537639,0.895378,0.418953,0.865957,0.350304,0.864721,0.347639,0.834721,0.287639,0.831603,0.282265,0.751603,0.162265,0.749043,0.158765,0.710403,0.110465,0.671603,0.052265,0.669043,0.048765,0.629043,-0.001235,0.628411,-0.002009,0.578731,-0.061625,0.539043,-0.111235,0.535355,-0.115355,0.385355,-0.265355,0.381235,-0.269043,0.331625,-0.308731,0.272009,-0.358411,
0.271235,-0.359043,0.221235,-0.399043,0.217735,-0.401603,0.099535,-0.480403,0.051235,-0.519043,0.047735,-0.521603,-0.012265,-0.561603,-0.017639,-0.564721,-0.077639,-0.594721,-0.080304,-0.595957,-0.148953,-0.625378,-0.267639,-0.684721,-0.270304,-0.685957,-0.340304,-0.715957,-0.344189,-0.717434,-0.402215,-0.736776,-0.470304,-0.765957,-0.474189,-0.767434,-0.534189,-0.787434,-0.542929,-0.789497,
-0.609546,-0.799013,-0.746264,-0.838076,-0.752929,-0.839497,-0.892320,-0.859410,-0.951780,-0.869320,-0.960000,-0.870000,-1.026450,-0.870000,-1.092929,-0.879497,-1.130000,-0.870000,-1.149497,-0.837071,-1.150000,-0.830000,-1.150000,-0.080000,-1.135355,-0.044645,-1.109806,-0.030971,-1.059806,-0.020971,-1.050000,-0.020000,-0.994140,-0.020000,-0.939006,-0.010811,-0.892856,-0.001581,-0.835811,0.017434,
-0.828220,0.019320,-0.773551,0.028431,-0.678570,0.066424,-0.675811,0.067434,-0.617215,0.086966,-0.572290,0.104936,-0.475725,0.162875,-0.468570,0.166424,-0.422290,0.184936,-0.378605,0.211147,-0.331235,0.249043,-0.330000,0.250000,-0.290620,0.279535,-0.241235,0.319043,-0.240000,0.320000,-0.202840,0.347870,-0.165355,0.385355,-0.161235,0.389043,-0.118252,0.423428,-0.092875,0.465725,
-0.085355,0.475355,-0.047315,0.513395,-0.009535,0.560620,0.018450,0.597933,0.047125,0.645725,0.050957,0.651235,0.086327,0.695447,0.103576,0.738570,0.107125,0.745725,0.165064,0.842290,0.183034,0.887215,0.202566,0.945811,0.203576,0.948570,0.241568,1.043551,0.250680,1.098220,0.252566,1.105811,0.271581,1.162856,0.280000,1.204951,0.280000,1.260000,0.280680,1.268220,
0.290680,1.328220,0.290971,1.329806,0.300971,1.379806,0.322265,1.411603,0.350000,1.420000,1.100000,1.420000,1.135355,1.405355,1.135355,1.405355,$1*%
%AMFreePoly3*
4,1,123,-1.362929,1.149497,-1.296450,1.140000,-1.230000,1.140000,-1.222929,1.139497,-1.152929,1.129497,-1.151780,1.129320,-1.092320,1.119410,-1.022929,1.109497,-1.016264,1.108076,-0.879546,1.069013,-0.812929,1.059497,-0.804189,1.057434,-0.744189,1.037434,-0.740304,1.035957,-0.672215,1.006776,-0.614189,0.987434,-0.610304,0.985957,-0.540304,0.955957,-0.537639,0.954721,-0.418953,0.895378,
-0.350304,0.865957,-0.347639,0.864721,-0.287639,0.834721,-0.282265,0.831603,-0.162265,0.751603,-0.158765,0.749043,-0.110465,0.710403,-0.052265,0.671603,-0.048765,0.669043,0.001235,0.629043,0.002009,0.628411,0.061625,0.578731,0.111235,0.539043,0.115355,0.535355,0.265355,0.385355,0.269043,0.381235,0.308731,0.331625,0.358411,0.272009,0.359043,0.271235,0.399043,0.221235,
0.401603,0.217735,0.480403,0.099535,0.519043,0.051235,0.521603,0.047735,0.561603,-0.012265,0.564721,-0.017639,0.594721,-0.077639,0.595957,-0.080304,0.625378,-0.148953,0.684721,-0.267639,0.685957,-0.270304,0.715957,-0.340304,0.717434,-0.344189,0.736776,-0.402215,0.765957,-0.470304,0.767434,-0.474189,0.787434,-0.534189,0.789497,-0.542929,0.799013,-0.609546,0.838076,-0.746264,
0.839497,-0.752929,0.859410,-0.892320,0.869320,-0.951780,0.870000,-0.960000,0.870000,-1.026450,0.879497,-1.092929,0.870000,-1.130000,0.837071,-1.149497,0.830000,-1.150000,0.080000,-1.150000,0.044645,-1.135355,0.030971,-1.109806,0.020971,-1.059806,0.020000,-1.050000,0.020000,-0.994140,0.010811,-0.939006,0.001581,-0.892856,-0.017434,-0.835811,-0.019320,-0.828220,-0.028431,-0.773551,
-0.066424,-0.678570,-0.067434,-0.675811,-0.086966,-0.617215,-0.104936,-0.572290,-0.162875,-0.475725,-0.166424,-0.468570,-0.184936,-0.422290,-0.211147,-0.378605,-0.249043,-0.331235,-0.250000,-0.330000,-0.279535,-0.290620,-0.319043,-0.241235,-0.320000,-0.240000,-0.349535,-0.200620,-0.387315,-0.153395,-0.421000,-0.119710,-0.465725,-0.092875,-0.475355,-0.085355,-0.551000,-0.009710,-0.645725,0.047125,
-0.651235,0.050957,-0.695447,0.086327,-0.738570,0.103576,-0.745725,0.107125,-0.842290,0.165064,-0.887215,0.183034,-0.945811,0.202566,-0.948570,0.203576,-1.043551,0.241568,-1.098220,0.250680,-1.105811,0.252566,-1.162856,0.271581,-1.209006,0.280811,-1.264140,0.290000,-1.320000,0.290000,-1.329806,0.290971,-1.379806,0.300971,-1.411603,0.322265,-1.420000,0.350000,-1.420000,1.100000,
-1.405355,1.135355,-1.370000,1.150000,-1.362929,1.149497,-1.362929,1.149497,$1*%
%AMFreePoly4*
4,1,14,0.385355,0.085355,0.400000,0.050000,0.400000,0.020711,0.385355,-0.014644,0.314644,-0.085355,0.279289,-0.100000,-0.350000,-0.100000,-0.385355,-0.085355,-0.400000,-0.050000,-0.400000,0.050000,-0.385355,0.085355,-0.350000,0.100000,0.350000,0.100000,0.385355,0.085355,0.385355,0.085355,$1*%
%AMFreePoly5*
4,1,14,0.314644,0.085355,0.385355,0.014644,0.400000,-0.020711,0.400000,-0.050000,0.385355,-0.085355,0.350000,-0.100000,-0.350000,-0.100000,-0.385355,-0.085355,-0.400000,-0.050000,-0.400000,0.050000,-0.385355,0.085355,-0.350000,0.100000,0.279289,0.100000,0.314644,0.085355,0.314644,0.085355,$1*%
%AMFreePoly6*
4,1,14,0.085355,0.385355,0.100000,0.350000,0.100000,-0.350000,0.085355,-0.385355,0.050000,-0.400000,0.020711,-0.400000,-0.014644,-0.385355,-0.085355,-0.314644,-0.100000,-0.279289,-0.100000,0.350000,-0.085355,0.385355,-0.050000,0.400000,0.050000,0.400000,0.085355,0.385355,0.085355,0.385355,$1*%
%AMFreePoly7*
4,1,14,0.085355,0.385355,0.100000,0.350000,0.100000,-0.279289,0.085355,-0.314644,0.014644,-0.385355,-0.020711,-0.400000,-0.050000,-0.400000,-0.085355,-0.385355,-0.100000,-0.350000,-0.100000,0.350000,-0.085355,0.385355,-0.050000,0.400000,0.050000,0.400000,0.085355,0.385355,0.085355,0.385355,$1*%
%AMFreePoly8*
4,1,14,0.385355,0.085355,0.400000,0.050000,0.400000,-0.050000,0.385355,-0.085355,0.350000,-0.100000,-0.350000,-0.100000,-0.385355,-0.085355,-0.400000,-0.050000,-0.400000,-0.020711,-0.385355,0.014644,-0.314644,0.085355,-0.279289,0.100000,0.350000,0.100000,0.385355,0.085355,0.385355,0.085355,$1*%
%AMFreePoly9*
4,1,14,0.385355,0.085355,0.400000,0.050000,0.400000,-0.050000,0.385355,-0.085355,0.350000,-0.100000,-0.279289,-0.100000,-0.314644,-0.085355,-0.385355,-0.014644,-0.400000,0.020711,-0.400000,0.050000,-0.385355,0.085355,-0.350000,0.100000,0.350000,0.100000,0.385355,0.085355,0.385355,0.085355,$1*%
%AMFreePoly10*
4,1,14,0.014644,0.385355,0.085355,0.314644,0.100000,0.279289,0.100000,-0.350000,0.085355,-0.385355,0.050000,-0.400000,-0.050000,-0.400000,-0.085355,-0.385355,-0.100000,-0.350000,-0.100000,0.350000,-0.085355,0.385355,-0.050000,0.400000,-0.020711,0.400000,0.014644,0.385355,0.014644,0.385355,$1*%
%AMFreePoly11*
4,1,14,0.085355,0.385355,0.100000,0.350000,0.100000,-0.350000,0.085355,-0.385355,0.050000,-0.400000,-0.050000,-0.400000,-0.085355,-0.385355,-0.100000,-0.350000,-0.100000,0.279289,-0.085355,0.314644,-0.014644,0.385355,0.020711,0.400000,0.050000,0.400000,0.085355,0.385355,0.085355,0.385355,$1*%
G04 Aperture macros list end*
%ADD10C,1.500000*%
%ADD11RoundRect,0.135000X0.135000X0.185000X-0.135000X0.185000X-0.135000X-0.185000X0.135000X-0.185000X0*%
%ADD12RoundRect,0.135000X-0.135000X-0.185000X0.135000X-0.185000X0.135000X0.185000X-0.135000X0.185000X0*%
%ADD13RoundRect,0.135000X0.185000X-0.135000X0.185000X0.135000X-0.185000X0.135000X-0.185000X-0.135000X0*%
%ADD14RoundRect,0.140000X0.140000X0.170000X-0.140000X0.170000X-0.140000X-0.170000X0.140000X-0.170000X0*%
%ADD15RoundRect,0.140000X-0.140000X-0.170000X0.140000X-0.170000X0.140000X0.170000X-0.140000X0.170000X0*%
%ADD16RoundRect,0.140000X0.170000X-0.140000X0.170000X0.140000X-0.170000X0.140000X-0.170000X-0.140000X0*%
%ADD17FreePoly0,90.000000*%
%ADD18FreePoly1,90.000000*%
%ADD19C,3.150000*%
%ADD20FreePoly2,90.000000*%
%ADD21FreePoly3,90.000000*%
%ADD22C,1.000000*%
%ADD23C,1.100000*%
%ADD24O,1.000000X2.050000*%
%ADD25RoundRect,0.140000X-0.170000X0.140000X-0.170000X-0.140000X0.170000X-0.140000X0.170000X0.140000X0*%
%ADD26C,1.600000*%
%ADD27R,0.300000X1.750000*%
%ADD28R,2.000000X3.500000*%
%ADD29C,0.800000*%
%ADD30O,0.860000X1.800000*%
%ADD31C,6.400000*%
%ADD32C,0.900000*%
%ADD33O,1.500000X3.300000*%
%ADD34O,1.500000X2.300000*%
%ADD35C,1.200000*%
%ADD36C,2.000000*%
%ADD37C,1.150000*%
%ADD38C,1.650000*%
%ADD39RoundRect,0.147500X0.172500X-0.147500X0.172500X0.147500X-0.172500X0.147500X-0.172500X-0.147500X0*%
%ADD40RoundRect,0.225000X0.225000X0.250000X-0.225000X0.250000X-0.225000X-0.250000X0.225000X-0.250000X0*%
%ADD41RoundRect,0.135000X-0.185000X0.135000X-0.185000X-0.135000X0.185000X-0.135000X0.185000X0.135000X0*%
%ADD42RoundRect,0.225000X-0.225000X-0.250000X0.225000X-0.250000X0.225000X0.250000X-0.225000X0.250000X0*%
%ADD43RoundRect,0.140000X-0.219203X-0.021213X-0.021213X-0.219203X0.219203X0.021213X0.021213X0.219203X0*%
%ADD44RoundRect,0.147500X-0.147500X-0.172500X0.147500X-0.172500X0.147500X0.172500X-0.147500X0.172500X0*%
%ADD45R,1.200000X1.400000*%
%ADD46RoundRect,0.147500X0.147500X0.172500X-0.147500X0.172500X-0.147500X-0.172500X0.147500X-0.172500X0*%
%ADD47R,3.700000X1.100000*%
%ADD48RoundRect,0.225000X-0.250000X0.225000X-0.250000X-0.225000X0.250000X-0.225000X0.250000X0.225000X0*%
%ADD49RoundRect,0.137500X0.212500X0.137500X-0.212500X0.137500X-0.212500X-0.137500X0.212500X-0.137500X0*%
%ADD50R,0.250000X0.625000*%
%ADD51R,0.450000X0.700000*%
%ADD52R,0.450000X0.575000*%
%ADD53R,1.000000X5.500000*%
%ADD54R,1.800000X3.200000*%
%ADD55RoundRect,0.150000X0.150000X-0.512500X0.150000X0.512500X-0.150000X0.512500X-0.150000X-0.512500X0*%
%ADD56R,1.000000X0.200000*%
%ADD57R,2.200000X1.600000*%
%ADD58RoundRect,0.125000X-0.175000X-0.125000X0.175000X-0.125000X0.175000X0.125000X-0.175000X0.125000X0*%
%ADD59FreePoly4,90.000000*%
%ADD60RoundRect,0.050000X0.050000X-0.350000X0.050000X0.350000X-0.050000X0.350000X-0.050000X-0.350000X0*%
%ADD61FreePoly5,90.000000*%
%ADD62FreePoly6,90.000000*%
%ADD63RoundRect,0.050000X0.350000X-0.050000X0.350000X0.050000X-0.350000X0.050000X-0.350000X-0.050000X0*%
%ADD64FreePoly7,90.000000*%
%ADD65FreePoly8,90.000000*%
%ADD66FreePoly9,90.000000*%
%ADD67FreePoly10,90.000000*%
%ADD68FreePoly11,90.000000*%
%ADD69R,2.650000X2.650000*%
%ADD70RoundRect,0.243750X0.456250X-0.243750X0.456250X0.243750X-0.456250X0.243750X-0.456250X-0.243750X0*%
%ADD71RoundRect,0.324324X-1.525676X1.175676X-1.525676X-1.175676X1.525676X-1.175676X1.525676X1.175676X0*%
%ADD72C,6.000000*%
%ADD73R,0.800000X0.700000*%
%ADD74RoundRect,0.147500X-0.172500X0.147500X-0.172500X-0.147500X0.172500X-0.147500X0.172500X0.147500X0*%
%ADD75RoundRect,0.125000X0.125000X-0.175000X0.125000X0.175000X-0.125000X0.175000X-0.125000X-0.175000X0*%
%ADD76R,0.625000X0.250000*%
%ADD77R,0.700000X0.400000*%
%ADD78R,0.575000X0.400000*%
%ADD79RoundRect,0.150000X-0.150000X0.512500X-0.150000X-0.512500X0.150000X-0.512500X0.150000X0.512500X0*%
G04 APERTURE END LIST*
D10*
%TO.C,J80*%
X23130001Y14409474D03*
X30130001Y14409474D03*
%TD*%
D11*
%TO.C,R157*%
X15910000Y5675000D03*
X14890000Y5675000D03*
%TD*%
D12*
%TO.C,R156*%
X38120001Y11605000D03*
X39139999Y11605000D03*
%TD*%
D13*
%TO.C,R155*%
X54850000Y11485001D03*
X54850000Y12504999D03*
%TD*%
%TO.C,R154*%
X48735000Y11490001D03*
X48735000Y12509999D03*
%TD*%
D12*
%TO.C,R92*%
X62785001Y795000D03*
X63804999Y795000D03*
%TD*%
D14*
%TO.C,C151*%
X15900000Y4745000D03*
X14940000Y4745000D03*
%TD*%
D15*
%TO.C,C150*%
X38150000Y12555000D03*
X39110000Y12555000D03*
%TD*%
D16*
%TO.C,C149*%
X55785000Y11515000D03*
X55785000Y12475000D03*
%TD*%
%TO.C,C148*%
X49680000Y11505000D03*
X49680000Y12465000D03*
%TD*%
D15*
%TO.C,C87*%
X62810000Y1725001D03*
X63770000Y1725001D03*
%TD*%
D17*
%TO.C,CN79*%
X17295000Y-425027D03*
D18*
X14645000Y-155027D03*
D19*
X16115000Y1044973D03*
D20*
X17565000Y2224973D03*
D21*
X14915000Y2494973D03*
%TD*%
D17*
%TO.C,CN78*%
X80900001Y-420026D03*
D18*
X78250001Y-150026D03*
D19*
X79720001Y1049974D03*
D20*
X81170001Y2229974D03*
D21*
X78520001Y2499974D03*
%TD*%
D19*
%TO.C,U84*%
X35110000Y40519972D03*
%TD*%
%TO.C,U86*%
X59140001Y40459974D03*
%TD*%
%TO.C,U85*%
X47115000Y40469972D03*
%TD*%
D22*
%TO.C,USB79*%
X41145001Y9394974D03*
D23*
X41145001Y1794974D03*
D24*
X38145001Y1544974D03*
X44145001Y1544974D03*
X44145001Y9644974D03*
X38145001Y9644974D03*
%TD*%
D25*
%TO.C,C97*%
X29730000Y35610000D03*
X29730000Y36570000D03*
%TD*%
%TO.C,C102*%
X30650000Y35610000D03*
X30650000Y36570000D03*
%TD*%
%TO.C,C101*%
X31570000Y35600000D03*
X31570000Y36560000D03*
%TD*%
D23*
%TO.C,A78*%
X82315000Y58044973D03*
D26*
X13515000Y58044973D03*
D27*
X14540000Y62144973D03*
X14790000Y53944973D03*
X15040000Y62144973D03*
X15290000Y53944973D03*
X15540000Y62144973D03*
X15790000Y53944973D03*
X16040000Y62144973D03*
X16290000Y53944973D03*
X16540000Y62144973D03*
X16790000Y53944973D03*
X17040000Y62144973D03*
X17290000Y53944973D03*
X17540000Y62144973D03*
X17790000Y53944973D03*
X18040000Y62144973D03*
X18290000Y53944973D03*
X18540000Y62144973D03*
X18790000Y53944973D03*
X19040000Y62144973D03*
X19290000Y53944973D03*
X19540000Y62144973D03*
X19790000Y53944973D03*
X20040000Y62144973D03*
X20290000Y53944973D03*
X20540000Y62144973D03*
X20790000Y53944973D03*
X21040000Y62144973D03*
X21290000Y53944973D03*
X21540000Y62144973D03*
X21790000Y53944973D03*
X22040000Y62144973D03*
X22290000Y53944973D03*
X22540000Y62144973D03*
X22790000Y53944973D03*
X23040000Y62144973D03*
X23290000Y53944973D03*
X23540000Y62144973D03*
X23790000Y53944973D03*
X24040000Y62144973D03*
X24290000Y53944973D03*
X24540000Y62144973D03*
X24790000Y53944973D03*
X25040000Y62144973D03*
X25290000Y53944973D03*
X25540000Y62144973D03*
X25790000Y53944973D03*
X26040000Y62144973D03*
X26290000Y53944973D03*
X26540000Y62144973D03*
X26790000Y53944973D03*
X27040000Y62144973D03*
X27290000Y53944973D03*
X27540000Y62144973D03*
X27790000Y53944973D03*
X28040000Y62144973D03*
X28290000Y53944973D03*
X28540000Y62144973D03*
X28790000Y53944973D03*
X29040000Y62144973D03*
X29290000Y53944973D03*
X29540000Y62144973D03*
X29790000Y53944973D03*
X30040000Y62144973D03*
X30290000Y53944973D03*
X30540000Y62144973D03*
X30790000Y53944973D03*
X31040000Y62144973D03*
X31290000Y53944973D03*
X31540000Y62144973D03*
X31790000Y53944973D03*
X32040000Y62144973D03*
X32290000Y53944973D03*
X32540000Y62144973D03*
X32790000Y53944973D03*
X33040000Y62144973D03*
X33290000Y53944973D03*
X33540000Y62144973D03*
X33790000Y53944973D03*
X34040000Y62144973D03*
X34290000Y53944973D03*
X34540000Y62144973D03*
X34790000Y53944973D03*
X35040000Y62144973D03*
X35290000Y53944973D03*
X35540000Y62144973D03*
X35790000Y53944973D03*
X36040000Y62144973D03*
X36290000Y53944973D03*
X36540000Y62144973D03*
X36790000Y53944973D03*
X37040000Y62144973D03*
X37290000Y53944973D03*
X37540000Y62144973D03*
X37790000Y53944973D03*
X38040000Y62144973D03*
X38290000Y53944973D03*
X38540000Y62144973D03*
X38790000Y53944973D03*
X39040000Y62144973D03*
X39290000Y53944973D03*
X39540000Y62144973D03*
X39790000Y53944973D03*
X40040000Y62144973D03*
X40290000Y53944973D03*
X40540000Y62144973D03*
X40790000Y53944973D03*
X41040000Y62144973D03*
X41290000Y53944973D03*
X41540000Y62144973D03*
X41790000Y53944973D03*
X42040000Y62144973D03*
X42290000Y53944973D03*
X42540000Y62144973D03*
X42790000Y53944973D03*
X43040000Y62144973D03*
X43290000Y53944973D03*
X43540000Y62144973D03*
X43790000Y53944973D03*
X44040000Y62144973D03*
X44290000Y53944973D03*
X44540000Y62144973D03*
X44790000Y53944973D03*
X45040000Y62144973D03*
X45290000Y53944973D03*
X45540000Y62144973D03*
X45790000Y53944973D03*
X46040000Y62144973D03*
X46290000Y53944973D03*
X46540000Y62144973D03*
X46790000Y53944973D03*
X47040000Y62144973D03*
X47290000Y53944973D03*
X47540000Y62144973D03*
X47790000Y53944973D03*
X48040000Y62144973D03*
X48290000Y53944973D03*
X48540000Y62144973D03*
X48790000Y53944973D03*
X49040000Y62144973D03*
X49290000Y53944973D03*
X49540000Y62144973D03*
X49790000Y53944973D03*
X50040000Y62144973D03*
X50290000Y53944973D03*
X52540000Y62144973D03*
X52790000Y53944973D03*
X53040000Y62144973D03*
X53290000Y53944973D03*
X53540000Y62144973D03*
X53790000Y53944973D03*
X54040000Y62144973D03*
X54290000Y53944973D03*
X54540000Y62144973D03*
X54790000Y53944973D03*
X55040000Y62144973D03*
X55290000Y53944973D03*
X55540000Y62144973D03*
X55790000Y53944973D03*
X56040000Y62144973D03*
X56290000Y53944973D03*
X56540000Y62144973D03*
X56790000Y53944973D03*
X57040000Y62144973D03*
X57290000Y53944973D03*
X57540000Y62144973D03*
X57790000Y53944973D03*
X58040000Y62144973D03*
X58290000Y53944973D03*
X58540000Y62144973D03*
X58790000Y53944973D03*
X59040000Y62144973D03*
X59290000Y53944973D03*
X59540000Y62144973D03*
X59790000Y53944973D03*
X60040000Y62144973D03*
X60290000Y53944973D03*
X60540000Y62144973D03*
X60790000Y53944973D03*
X61040000Y62144973D03*
X61290000Y53944973D03*
X61540000Y62144973D03*
X61790000Y53944973D03*
X62040000Y62144973D03*
X62290000Y53944973D03*
X62540000Y62144973D03*
X62790000Y53944973D03*
X63040000Y62144973D03*
X63290000Y53944973D03*
X63540000Y62144973D03*
X63790000Y53944973D03*
X64040000Y62144973D03*
X64290000Y53944973D03*
X64540000Y62144973D03*
X64790000Y53944973D03*
X65040000Y62144973D03*
X65290000Y53944973D03*
X65540000Y62144973D03*
X65790000Y53944973D03*
X66040000Y62144973D03*
X66290000Y53944973D03*
X66540000Y62144973D03*
X66790000Y53944973D03*
X67040000Y62144973D03*
X67290000Y53944973D03*
X67540000Y62144973D03*
X67790000Y53944973D03*
X68040000Y62144973D03*
X68290000Y53944973D03*
X68540000Y62144973D03*
X68790000Y53944973D03*
X69040000Y62144973D03*
X69290000Y53944973D03*
X69540000Y62144973D03*
X69790000Y53944973D03*
X70040000Y62144973D03*
X70290000Y53944973D03*
X70540000Y62144973D03*
X70790000Y53944973D03*
X71040000Y62144973D03*
X71290000Y53944973D03*
X71540000Y62144973D03*
X71790000Y53944973D03*
X72040000Y62144973D03*
X72290000Y53944973D03*
X72540000Y62144973D03*
X72790000Y53944973D03*
X73040000Y62144973D03*
X73290000Y53944973D03*
X73540000Y62144973D03*
X73790000Y53944973D03*
X74040000Y62144973D03*
X74290000Y53944973D03*
X74540000Y62144973D03*
X74790000Y53944973D03*
X75040000Y62144973D03*
X75290000Y53944973D03*
X75540000Y62144973D03*
X75790000Y53944973D03*
X76040000Y62144973D03*
X76290000Y53944973D03*
X76540000Y62144973D03*
X76790000Y53944973D03*
X77040000Y62144973D03*
X77290000Y53944973D03*
X77540000Y62144973D03*
X77790000Y53944973D03*
X78040000Y62144973D03*
X78290000Y53944973D03*
X78540000Y62144973D03*
X78790000Y53944973D03*
X79040000Y62144973D03*
X79290000Y53944973D03*
X79540000Y62144973D03*
X79790000Y53944973D03*
X80040000Y62144973D03*
X80290000Y53944973D03*
X80540000Y62144973D03*
X80790000Y53944973D03*
X81040000Y62144973D03*
X81290000Y53944973D03*
D28*
X85415000Y50044973D03*
X10415000Y46044973D03*
%TD*%
D29*
%TO.C,USB80*%
X48670001Y9989974D03*
X48670001Y2829974D03*
D30*
X50700001Y9459974D03*
X46640001Y9459974D03*
X50700001Y3359974D03*
X46640001Y3359974D03*
%TD*%
D29*
%TO.C,H78*%
X90615136Y63120000D03*
X91318080Y64817056D03*
X91318080Y61422944D03*
X93015136Y65520000D03*
D31*
X93015136Y63120000D03*
D29*
X93015136Y60720000D03*
X94712192Y64817056D03*
X94712192Y61422944D03*
X95415136Y63120000D03*
%TD*%
D32*
%TO.C,SW78*%
X-1657499Y11309974D03*
X-1657499Y8309974D03*
%TD*%
D29*
%TO.C,H79*%
X-2399999Y0D03*
X-1697055Y1697056D03*
X-1697055Y-1697056D03*
X1Y2400000D03*
D31*
X1Y0D03*
D29*
X1Y-2400000D03*
X1697057Y1697056D03*
X1697057Y-1697056D03*
X2400001Y0D03*
%TD*%
D33*
%TO.C,J79*%
X75044002Y6784974D03*
X60544002Y6784974D03*
D34*
X75044002Y824974D03*
X60544002Y824974D03*
%TD*%
D23*
%TO.C,J84*%
X87415001Y50459974D03*
D26*
X87415001Y30459974D03*
%TD*%
D29*
%TO.C,USB81*%
X85350000Y9979974D03*
X85350000Y2819974D03*
D30*
X87380000Y9449974D03*
X83320000Y9449974D03*
X87380000Y3349974D03*
X83320000Y3349974D03*
%TD*%
D29*
%TO.C,H80*%
X-2399999Y63120000D03*
X-1697055Y64817056D03*
X-1697055Y61422944D03*
X1Y65520000D03*
D31*
X1Y63120000D03*
D29*
X1Y60720000D03*
X1697057Y64817056D03*
X1697057Y61422944D03*
X2400001Y63120000D03*
%TD*%
%TO.C,H81*%
X90615136Y0D03*
X91318080Y1697056D03*
X91318080Y-1697056D03*
X93015136Y2400000D03*
D31*
X93015136Y0D03*
D29*
X93015136Y-2400000D03*
X94712192Y1697056D03*
X94712192Y-1697056D03*
X95415136Y0D03*
%TD*%
%TO.C,USB78*%
X55705001Y10014974D03*
X55705001Y2854974D03*
D30*
X57735001Y9484974D03*
X53675001Y9484974D03*
X57735001Y3384974D03*
X53675001Y3384974D03*
%TD*%
D35*
%TO.C,SW79*%
X6120001Y489974D03*
X7750001Y489974D03*
X9500001Y489974D03*
X11120001Y489974D03*
D36*
X12120001Y2729974D03*
X5180001Y2729974D03*
%TD*%
D13*
%TO.C,R113*%
X94900000Y37150000D03*
X94900000Y38169998D03*
%TD*%
D37*
%TO.C,J83*%
X6840001Y30529974D03*
D38*
X6840001Y50529974D03*
%TD*%
D39*
%TO.C,D81*%
X63250000Y7995000D03*
X63250000Y8965000D03*
%TD*%
D40*
%TO.C,C127*%
X61904997Y26180002D03*
X60354997Y26180002D03*
%TD*%
D41*
%TO.C,R103*%
X40340000Y179999D03*
X40340000Y-839999D03*
%TD*%
D16*
%TO.C,C100*%
X24835001Y26690235D03*
X24835001Y27650235D03*
%TD*%
D42*
%TO.C,C124*%
X57373021Y26180002D03*
X58923021Y26180002D03*
%TD*%
D40*
%TO.C,C140*%
X83425001Y30569974D03*
X81875001Y30569974D03*
%TD*%
D41*
%TO.C,R104*%
X41290000Y229999D03*
X41290000Y-789999D03*
%TD*%
D43*
%TO.C,C91*%
X44049428Y13819974D03*
X44728250Y13141152D03*
%TD*%
D16*
%TO.C,C99*%
X27620001Y26690235D03*
X27620001Y27650235D03*
%TD*%
D13*
%TO.C,R82*%
X47540001Y64189975D03*
X47540001Y65209973D03*
%TD*%
D15*
%TO.C,C135*%
X73280000Y24210000D03*
X74240000Y24210000D03*
%TD*%
D44*
%TO.C,D94*%
X81765000Y7250000D03*
X82735000Y7250000D03*
%TD*%
D45*
%TO.C,Y78*%
X34020000Y32350000D03*
X34020000Y30150000D03*
X32320000Y30150000D03*
X32320000Y32350000D03*
%TD*%
D46*
%TO.C,D93*%
X82735000Y5350000D03*
X81765000Y5350000D03*
%TD*%
D12*
%TO.C,R122*%
X66560003Y31250002D03*
X67580001Y31250002D03*
%TD*%
D41*
%TO.C,R107*%
X27850000Y36590000D03*
X27850000Y35570000D03*
%TD*%
D47*
%TO.C,L79*%
X80435001Y25999974D03*
X80435001Y28999974D03*
%TD*%
D48*
%TO.C,C88*%
X53970000Y1245000D03*
X53970000Y-305000D03*
%TD*%
D39*
%TO.C,D80*%
X64570000Y7995000D03*
X64570000Y8965000D03*
%TD*%
D49*
%TO.C,D98*%
X4407500Y50060000D03*
X2307500Y50060000D03*
%TD*%
D50*
%TO.C,U82*%
X27120001Y22464974D03*
X27620001Y22464974D03*
D51*
X28120001Y22427474D03*
D50*
X28620001Y22464974D03*
X29120001Y22464974D03*
X29120001Y21689974D03*
X28620001Y21689974D03*
D52*
X28120001Y21664974D03*
D50*
X27620001Y21689974D03*
X27120001Y21689974D03*
%TD*%
D39*
%TO.C,D79*%
X65540000Y8005000D03*
X65540000Y8975000D03*
%TD*%
D41*
%TO.C,R142*%
X75320001Y44624885D03*
X75320001Y43604887D03*
%TD*%
%TO.C,R105*%
X52100000Y7819999D03*
X52100000Y6800001D03*
%TD*%
D48*
%TO.C,C89*%
X42540000Y655000D03*
X42540000Y-895000D03*
%TD*%
D15*
%TO.C,C118*%
X81290001Y41079974D03*
X82250001Y41079974D03*
%TD*%
D48*
%TO.C,C92*%
X49120000Y1175000D03*
X49120000Y-375000D03*
%TD*%
D13*
%TO.C,R102*%
X52100000Y4940001D03*
X52100000Y5959999D03*
%TD*%
D43*
%TO.C,C90*%
X44721179Y14498796D03*
X45400001Y13819974D03*
%TD*%
D53*
%TO.C,U91*%
X6230000Y54489999D03*
X4230000Y54489999D03*
X2230000Y54489999D03*
X230000Y54489999D03*
D54*
X-2370000Y56730000D03*
X8830000Y56730000D03*
%TD*%
D14*
%TO.C,C134*%
X79745005Y24739976D03*
X78785005Y24739976D03*
%TD*%
D11*
%TO.C,R127*%
X76459999Y23790000D03*
X75440001Y23790000D03*
%TD*%
D40*
%TO.C,C137*%
X83420001Y32039974D03*
X81870001Y32039974D03*
%TD*%
D15*
%TO.C,C120*%
X81290001Y42019974D03*
X82250001Y42019974D03*
%TD*%
D16*
%TO.C,C143*%
X10090001Y2199974D03*
X10090001Y3159974D03*
%TD*%
D42*
%TO.C,C139*%
X78915001Y30579973D03*
X80465001Y30579973D03*
%TD*%
D15*
%TO.C,C138*%
X81570001Y33239974D03*
X82530001Y33239974D03*
%TD*%
D14*
%TO.C,C106*%
X33150000Y28690000D03*
X32190000Y28690000D03*
%TD*%
D47*
%TO.C,L78*%
X60370000Y30730000D03*
X60370000Y27730000D03*
%TD*%
D11*
%TO.C,R78*%
X7799998Y28230000D03*
X6780000Y28230000D03*
%TD*%
D49*
%TO.C,D89*%
X46327501Y65089974D03*
X44227501Y65089974D03*
%TD*%
D15*
%TO.C,C121*%
X60959997Y32009999D03*
X61919997Y32009999D03*
%TD*%
D55*
%TO.C,U89*%
X77337501Y25192475D03*
X76387502Y25192475D03*
X75437503Y25192475D03*
X75437503Y27467475D03*
X76387502Y27467475D03*
X77337501Y27467475D03*
%TD*%
D40*
%TO.C,C132*%
X77380001Y30579974D03*
X75830001Y30579974D03*
%TD*%
D12*
%TO.C,R101*%
X57740000Y7480000D03*
X58759998Y7480000D03*
%TD*%
D56*
%TO.C,FPC78*%
X90437500Y25609974D03*
X90437500Y25109974D03*
X90437500Y24609974D03*
X90437500Y24109974D03*
X90437500Y23609974D03*
X90437500Y23109974D03*
X90437500Y22609974D03*
X90437500Y22109974D03*
X90437500Y21609974D03*
X90437500Y21109974D03*
X90437500Y20609974D03*
X90437500Y20109974D03*
X90437500Y19609974D03*
X90437500Y19109974D03*
X90437500Y18609974D03*
X90437500Y18109974D03*
X90437500Y17609974D03*
X90437500Y17109974D03*
X90437500Y16609974D03*
X90437500Y16109974D03*
X90437500Y15609974D03*
X90437500Y15109974D03*
D57*
X93457500Y13059974D03*
X93457500Y27659974D03*
%TD*%
D12*
%TO.C,R128*%
X6650001Y-1550026D03*
X7669999Y-1550026D03*
%TD*%
D42*
%TO.C,C129*%
X63345000Y27640002D03*
X64895000Y27640002D03*
%TD*%
D40*
%TO.C,C133*%
X77380001Y29109974D03*
X75830001Y29109974D03*
%TD*%
D58*
%TO.C,D85*%
X49170001Y5909974D03*
X49170001Y6909974D03*
X50470000Y6409974D03*
%TD*%
D42*
%TO.C,C130*%
X63335000Y26180002D03*
X64885000Y26180002D03*
%TD*%
D50*
%TO.C,U81*%
X24120001Y22469974D03*
X24620001Y22469974D03*
D51*
X25120001Y22432474D03*
D50*
X25620001Y22469974D03*
X26120001Y22469974D03*
X26120001Y21694974D03*
X25620001Y21694974D03*
D52*
X25120001Y21669974D03*
D50*
X24620001Y21694974D03*
X24120001Y21694974D03*
%TD*%
D16*
%TO.C,C107*%
X25380001Y35664974D03*
X25380001Y36624974D03*
%TD*%
D59*
%TO.C,U83*%
X28435001Y29469974D03*
D60*
X28035001Y29469974D03*
X27635001Y29469974D03*
X27235001Y29469974D03*
X26835001Y29469974D03*
X26435001Y29469974D03*
X26035001Y29469974D03*
D61*
X25635001Y29469974D03*
D62*
X25085001Y30019974D03*
D63*
X25085001Y30419974D03*
X25085001Y30819974D03*
X25085001Y31219974D03*
X25085001Y31619974D03*
X25085001Y32019974D03*
X25085001Y32419974D03*
D64*
X25085001Y32819974D03*
D65*
X25635001Y33369974D03*
D60*
X26035001Y33369974D03*
X26435001Y33369974D03*
X26835001Y33369974D03*
X27235001Y33369974D03*
X27635001Y33369974D03*
X28035001Y33369974D03*
D66*
X28435001Y33369974D03*
D67*
X28985001Y32819974D03*
D63*
X28985001Y32419974D03*
X28985001Y32019974D03*
X28985001Y31619974D03*
X28985001Y31219974D03*
X28985001Y30819974D03*
X28985001Y30419974D03*
D68*
X28985001Y30019974D03*
D69*
X27035001Y31419974D03*
%TD*%
D58*
%TO.C,D82*%
X53910001Y5939974D03*
X53910001Y6939974D03*
X55210000Y6439974D03*
%TD*%
D70*
%TO.C,F81*%
X47400000Y-487501D03*
X47400000Y1387501D03*
%TD*%
D15*
%TO.C,C125*%
X60070000Y23520000D03*
X61030000Y23520000D03*
%TD*%
D71*
%TO.C,BT78*%
X2335001Y28014975D03*
X2335001Y11614973D03*
D72*
X2335001Y19814974D03*
%TD*%
D16*
%TO.C,C98*%
X30800000Y28999974D03*
X30800000Y29959974D03*
%TD*%
%TO.C,C105*%
X26300001Y35664974D03*
X26300001Y36624974D03*
%TD*%
D73*
%TO.C,D90*%
X4820001Y-2630026D03*
X6620001Y-2630026D03*
%TD*%
D42*
%TO.C,C126*%
X57378019Y24710000D03*
X58928019Y24710000D03*
%TD*%
D74*
%TO.C,D96*%
X7930001Y3194974D03*
X7930001Y2224974D03*
%TD*%
D14*
%TO.C,C103*%
X22120001Y32247474D03*
X21160001Y32247474D03*
%TD*%
D39*
%TO.C,D92*%
X89055000Y6965000D03*
X89055000Y7935000D03*
%TD*%
D44*
%TO.C,D95*%
X81750000Y6300000D03*
X82720000Y6300000D03*
%TD*%
D14*
%TO.C,C104*%
X22120001Y31324974D03*
X21160001Y31324974D03*
%TD*%
D11*
%TO.C,R124*%
X74259999Y25160000D03*
X73240001Y25160000D03*
%TD*%
D42*
%TO.C,C136*%
X78900002Y32039974D03*
X80450002Y32039974D03*
%TD*%
D11*
%TO.C,R121*%
X49459999Y65159974D03*
X48440001Y65159974D03*
%TD*%
D14*
%TO.C,C122*%
X67549998Y32190001D03*
X66589998Y32190001D03*
%TD*%
D75*
%TO.C,D86*%
X52820001Y64282474D03*
X51820001Y64282474D03*
X52320001Y65582473D03*
%TD*%
D70*
%TO.C,F79*%
X52280000Y-397501D03*
X52280000Y1477501D03*
%TD*%
D76*
%TO.C,U80*%
X45470002Y6589974D03*
X45470001Y6089974D03*
D77*
X45432501Y5589974D03*
D76*
X45470001Y5089974D03*
X45470002Y4589974D03*
X44695002Y4589974D03*
X44695003Y5089974D03*
D78*
X44670001Y5589974D03*
D76*
X44695003Y6089974D03*
X44695002Y6589974D03*
%TD*%
D16*
%TO.C,C142*%
X6990001Y2219974D03*
X6990001Y3179974D03*
%TD*%
D12*
%TO.C,R123*%
X64705001Y32990003D03*
X65724999Y32990003D03*
%TD*%
D41*
%TO.C,R106*%
X50330000Y749999D03*
X50330000Y-269999D03*
%TD*%
%TO.C,R141*%
X76270001Y44624884D03*
X76270001Y43604886D03*
%TD*%
D40*
%TO.C,C123*%
X60355001Y24720001D03*
X61905001Y24720001D03*
%TD*%
D74*
%TO.C,D97*%
X9150001Y3189974D03*
X9150001Y2219974D03*
%TD*%
D13*
%TO.C,R112*%
X30815000Y30910261D03*
X30815000Y31930261D03*
%TD*%
D79*
%TO.C,U87*%
X63465002Y31607499D03*
X64415001Y31607499D03*
X65365000Y31607499D03*
X65365000Y29332499D03*
X64415001Y29332499D03*
X63465002Y29332499D03*
%TD*%
D41*
%TO.C,R108*%
X28800000Y36590000D03*
X28800000Y35570000D03*
%TD*%
D15*
%TO.C,C108*%
X32790000Y33810000D03*
X33750000Y33810000D03*
%TD*%
M02*
