%TF.GenerationSoftware,KiCad,Pcbnew,9.0.6*%
%TF.CreationDate,2025-12-23T10:41:37+01:00*%
%TF.ProjectId,LattePanda_MOKA,4c617474-6550-4616-9e64-615f4d4f4b41,1.0*%
%TF.SameCoordinates,Original*%
%TF.FileFunction,Soldermask,Top*%
%TF.FilePolarity,Negative*%
%FSLAX46Y46*%
G04 Gerber Fmt 4.6, Leading zero omitted, Abs format (unit mm)*
G04 Created by KiCad (PCBNEW 9.0.6) date 2025-12-23 10:41:37*
%MOMM*%
%LPD*%
G01*
G04 APERTURE LIST*
G04 Aperture macros list*
%AMRoundRect*
0 Rectangle with rounded corners*
0 $1 Rounding radius*
0 $2 $3 $4 $5 $6 $7 $8 $9 X,Y pos of 4 corners*
0 Add a 4 corners polygon primitive as box body*
4,1,4,$2,$3,$4,$5,$6,$7,$8,$9,$2,$3,0*
0 Add four circle primitives for the rounded corners*
1,1,$1+$1,$2,$3*
1,1,$1+$1,$4,$5*
1,1,$1+$1,$6,$7*
1,1,$1+$1,$8,$9*
0 Add four rect primitives between the rounded corners*
20,1,$1+$1,$2,$3,$4,$5,0*
20,1,$1+$1,$4,$5,$6,$7,0*
20,1,$1+$1,$6,$7,$8,$9,0*
20,1,$1+$1,$8,$9,$2,$3,0*%
%AMFreePoly0*
4,1,107,1.435355,1.265355,1.450000,1.230000,1.450000,0.220000,1.435355,0.184645,1.400000,0.170000,1.344951,0.170000,1.299806,0.160971,1.298220,0.160680,1.179006,0.140811,1.132856,0.131581,1.077215,0.113034,1.028570,0.093576,1.025811,0.092566,0.967215,0.073034,0.870495,0.034346,0.812361,0.005279,0.808570,0.003576,0.762290,-0.014936,0.717933,-0.041550,0.680000,-0.070000,
0.675725,-0.072875,0.628605,-0.101147,0.581235,-0.139043,0.580000,-0.140000,0.540620,-0.169535,0.493395,-0.207315,0.377315,-0.323395,0.339535,-0.370620,0.310000,-0.410000,0.309043,-0.411235,0.271147,-0.458605,0.242875,-0.505725,0.240000,-0.510000,0.211550,-0.547933,0.184936,-0.592290,0.166424,-0.638570,0.164721,-0.642361,0.135654,-0.700495,0.096966,-0.797215,0.077434,-0.855811,
0.076424,-0.858570,0.056966,-0.907215,0.038419,-0.962856,0.029189,-1.009006,0.009320,-1.128220,0.009029,-1.129806,0.000000,-1.174951,0.000000,-1.230000,-0.014645,-1.265355,-0.050000,-1.280000,-1.060000,-1.280000,-1.095355,-1.265355,-1.110000,-1.230000,-1.110000,-1.160000,-1.109497,-1.152929,-1.099564,-1.083398,-1.089614,-1.003798,-1.089497,-1.002929,-1.059497,-0.792929,-1.058076,-0.786264,
-0.958076,-0.436264,-0.954721,-0.427639,-0.925378,-0.368953,-0.897205,-0.303217,-0.878076,-0.236264,-0.871603,-0.222265,-0.834147,-0.166081,-0.805957,-0.100304,-0.804721,-0.097639,-0.774721,-0.037639,-0.771603,-0.032265,-0.571603,0.267735,-0.565355,0.275355,-0.518859,0.321851,-0.481603,0.377735,-0.475355,0.385355,-0.426961,0.433749,-0.378411,0.492009,-0.375355,0.495355,-0.325355,0.545355,
-0.322009,0.548411,-0.263749,0.596961,-0.215355,0.645355,-0.207735,0.651603,-0.151851,0.688859,-0.105355,0.735355,-0.097735,0.741603,0.202265,0.941603,0.207639,0.944721,0.267639,0.974721,0.270304,0.975957,0.336081,1.004147,0.392265,1.041603,0.406264,1.048076,0.473217,1.067205,0.538953,1.095378,0.597639,1.124721,0.606264,1.128076,0.956264,1.228076,0.962929,1.229497,
1.172929,1.259497,1.173798,1.259614,1.253398,1.269564,1.322929,1.279497,1.330000,1.280000,1.400000,1.280000,1.435355,1.265355,1.435355,1.265355,$1*%
%AMFreePoly1*
4,1,107,-0.184645,1.435355,-0.170000,1.400000,-0.170000,1.344951,-0.160971,1.299806,-0.160680,1.298220,-0.140811,1.179006,-0.131581,1.132856,-0.113034,1.077215,-0.093576,1.028570,-0.092566,1.025811,-0.073034,0.967215,-0.034346,0.870495,-0.005279,0.812361,-0.003576,0.808570,0.014936,0.762290,0.041550,0.717933,0.070000,0.680000,0.072875,0.675725,0.101147,0.628605,0.139043,0.581235,
0.140000,0.580000,0.169535,0.540620,0.207315,0.493395,0.323395,0.377315,0.370620,0.339535,0.410000,0.310000,0.411235,0.309043,0.458605,0.271147,0.505725,0.242875,0.510000,0.240000,0.547933,0.211550,0.592290,0.184936,0.638570,0.166424,0.642361,0.164721,0.700495,0.135654,0.797215,0.096966,0.855811,0.077434,0.858570,0.076424,0.907215,0.056966,0.962856,0.038419,
1.009006,0.029189,1.128220,0.009320,1.129806,0.009029,1.174951,0.000000,1.230000,0.000000,1.265355,-0.014645,1.280000,-0.050000,1.280000,-1.060000,1.265355,-1.095355,1.230000,-1.110000,1.160000,-1.110000,1.152929,-1.109497,1.083398,-1.099564,1.003798,-1.089614,1.002929,-1.089497,0.792929,-1.059497,0.786264,-1.058076,0.436264,-0.958076,0.427639,-0.954721,0.368953,-0.925378,
0.303217,-0.897205,0.236264,-0.878076,0.222265,-0.871603,0.166081,-0.834147,0.100304,-0.805957,0.097639,-0.804721,0.037639,-0.774721,0.032265,-0.771603,-0.267735,-0.571603,-0.275355,-0.565355,-0.321851,-0.518859,-0.377735,-0.481603,-0.385355,-0.475355,-0.433749,-0.426961,-0.492009,-0.378411,-0.495355,-0.375355,-0.545355,-0.325355,-0.548411,-0.322009,-0.596961,-0.263749,-0.645355,-0.215355,
-0.651603,-0.207735,-0.688859,-0.151851,-0.735355,-0.105355,-0.741603,-0.097735,-0.941603,0.202265,-0.944721,0.207639,-0.974721,0.267639,-0.975957,0.270304,-1.004147,0.336081,-1.041603,0.392265,-1.048076,0.406264,-1.067205,0.473217,-1.095378,0.538953,-1.124721,0.597639,-1.128076,0.606264,-1.228076,0.956264,-1.229497,0.962929,-1.259497,1.172929,-1.259614,1.173798,-1.269564,1.253398,
-1.279497,1.322929,-1.280000,1.330000,-1.280000,1.400000,-1.265355,1.435355,-1.230000,1.450000,-0.220000,1.450000,-0.184645,1.435355,-0.184645,1.435355,$1*%
%AMFreePoly2*
4,1,107,-1.152929,1.109497,-1.083398,1.099564,-1.003798,1.089614,-1.002929,1.089497,-0.792929,1.059497,-0.786264,1.058076,-0.436264,0.958076,-0.427639,0.954721,-0.368953,0.925378,-0.303217,0.897205,-0.236264,0.878076,-0.222265,0.871603,-0.166081,0.834147,-0.100304,0.805957,-0.097639,0.804721,-0.037639,0.774721,-0.032265,0.771603,0.267735,0.571603,0.275355,0.565355,0.321851,0.518859,
0.377735,0.481603,0.385355,0.475355,0.433749,0.426961,0.492009,0.378411,0.495355,0.375355,0.545355,0.325355,0.548411,0.322009,0.596961,0.263749,0.645355,0.215355,0.651603,0.207735,0.688859,0.151851,0.735355,0.105355,0.741603,0.097735,0.941603,-0.202265,0.944721,-0.207639,0.974721,-0.267639,0.975957,-0.270304,1.004147,-0.336081,1.041603,-0.392265,1.048076,-0.406264,
1.067205,-0.473217,1.095378,-0.538953,1.124721,-0.597639,1.128076,-0.606264,1.228076,-0.956264,1.229497,-0.962929,1.259497,-1.172929,1.259614,-1.173798,1.269564,-1.253398,1.279497,-1.322929,1.280000,-1.330000,1.280000,-1.400000,1.265355,-1.435355,1.230000,-1.450000,0.220000,-1.450000,0.184645,-1.435355,0.170000,-1.400000,0.170000,-1.344951,0.160971,-1.299806,0.160680,-1.298220,
0.140811,-1.179006,0.131581,-1.132856,0.113034,-1.077215,0.093576,-1.028570,0.092566,-1.025811,0.073034,-0.967215,0.034346,-0.870495,0.005279,-0.812361,0.003576,-0.808570,-0.014936,-0.762290,-0.041550,-0.717933,-0.070000,-0.680000,-0.072875,-0.675725,-0.101147,-0.628605,-0.139043,-0.581235,-0.140000,-0.580000,-0.169535,-0.540620,-0.207315,-0.493395,-0.323395,-0.377315,-0.370620,-0.339535,
-0.410000,-0.310000,-0.411235,-0.309043,-0.458605,-0.271147,-0.505725,-0.242875,-0.510000,-0.240000,-0.547933,-0.211550,-0.592290,-0.184936,-0.638570,-0.166424,-0.642361,-0.164721,-0.700495,-0.135654,-0.797215,-0.096966,-0.855811,-0.077434,-0.858570,-0.076424,-0.907215,-0.056966,-0.962856,-0.038419,-1.009006,-0.029189,-1.128220,-0.009320,-1.129806,-0.009029,-1.174951,0.000000,-1.230000,0.000000,
-1.265355,0.014645,-1.280000,0.050000,-1.280000,1.060000,-1.265355,1.095355,-1.230000,1.110000,-1.160000,1.110000,-1.152929,1.109497,-1.152929,1.109497,$1*%
%AMFreePoly3*
4,1,107,1.095355,1.265355,1.110000,1.230000,1.110000,1.160000,1.109497,1.152929,1.099564,1.083398,1.089614,1.003798,1.089497,1.002929,1.059497,0.792929,1.058076,0.786264,0.958076,0.436264,0.954721,0.427639,0.925378,0.368953,0.897205,0.303217,0.878076,0.236264,0.871603,0.222265,0.834147,0.166081,0.805957,0.100304,0.804721,0.097639,0.774721,0.037639,0.771603,0.032265,
0.571603,-0.267735,0.565355,-0.275355,0.518859,-0.321851,0.481603,-0.377735,0.475355,-0.385355,0.426961,-0.433749,0.378411,-0.492009,0.375355,-0.495355,0.325355,-0.545355,0.322009,-0.548411,0.263749,-0.596961,0.215355,-0.645355,0.207735,-0.651603,0.151851,-0.688859,0.105355,-0.735355,0.097735,-0.741603,-0.202265,-0.941603,-0.207639,-0.944721,-0.267639,-0.974721,-0.270304,-0.975957,
-0.336081,-1.004147,-0.392265,-1.041603,-0.406264,-1.048076,-0.473217,-1.067205,-0.538953,-1.095378,-0.597639,-1.124721,-0.606264,-1.128076,-0.956264,-1.228076,-0.962929,-1.229497,-1.172929,-1.259497,-1.173798,-1.259614,-1.253398,-1.269564,-1.322929,-1.279497,-1.330000,-1.280000,-1.400000,-1.280000,-1.435355,-1.265355,-1.450000,-1.230000,-1.450000,-0.220000,-1.435355,-0.184645,-1.400000,-0.170000,
-1.344951,-0.170000,-1.299806,-0.160971,-1.298220,-0.160680,-1.179006,-0.140811,-1.132856,-0.131581,-1.077215,-0.113034,-1.028570,-0.093576,-1.025811,-0.092566,-0.967215,-0.073034,-0.870495,-0.034346,-0.812361,-0.005279,-0.808570,-0.003576,-0.762290,0.014936,-0.717933,0.041550,-0.680000,0.070000,-0.675725,0.072875,-0.628605,0.101147,-0.581235,0.139043,-0.580000,0.140000,-0.540620,0.169535,
-0.493395,0.207315,-0.377315,0.323395,-0.339535,0.370620,-0.310000,0.410000,-0.309043,0.411235,-0.271147,0.458605,-0.242875,0.505725,-0.240000,0.510000,-0.211550,0.547933,-0.184936,0.592290,-0.166424,0.638570,-0.164721,0.642361,-0.135654,0.700495,-0.096966,0.797215,-0.077434,0.855811,-0.076424,0.858570,-0.056966,0.907215,-0.038419,0.962856,-0.029189,1.009006,-0.009320,1.128220,
-0.009029,1.129806,0.000000,1.174951,0.000000,1.230000,0.014645,1.265355,0.050000,1.280000,1.060000,1.280000,1.095355,1.265355,1.095355,1.265355,$1*%
G04 Aperture macros list end*
%ADD10C,0.100000*%
%ADD11FreePoly0,180.000000*%
%ADD12FreePoly1,180.000000*%
%ADD13C,3.150000*%
%ADD14FreePoly2,180.000000*%
%ADD15FreePoly3,180.000000*%
%ADD16RoundRect,0.135000X-0.135000X-0.185000X0.135000X-0.185000X0.135000X0.185000X-0.135000X0.185000X0*%
%ADD17RoundRect,0.140000X0.021213X-0.219203X0.219203X-0.021213X-0.021213X0.219203X-0.219203X0.021213X0*%
%ADD18RoundRect,0.135000X0.135000X0.185000X-0.135000X0.185000X-0.135000X-0.185000X0.135000X-0.185000X0*%
%ADD19RoundRect,0.140000X0.140000X0.170000X-0.140000X0.170000X-0.140000X-0.170000X0.140000X-0.170000X0*%
%ADD20R,0.580000X1.200000*%
%ADD21R,4.400000X3.800000*%
%ADD22RoundRect,0.150000X0.512500X0.150000X-0.512500X0.150000X-0.512500X-0.150000X0.512500X-0.150000X0*%
%ADD23RoundRect,0.140000X-0.140000X-0.170000X0.140000X-0.170000X0.140000X0.170000X-0.140000X0.170000X0*%
%ADD24RoundRect,0.147500X-0.172500X0.147500X-0.172500X-0.147500X0.172500X-0.147500X0.172500X0.147500X0*%
%ADD25RoundRect,0.135000X0.185000X-0.135000X0.185000X0.135000X-0.185000X0.135000X-0.185000X-0.135000X0*%
%ADD26R,0.300000X0.500000*%
%ADD27O,0.800000X1.650000*%
%ADD28R,1.100000X0.450000*%
%ADD29R,1.100000X0.350000*%
%ADD30C,0.800000*%
%ADD31C,6.400000*%
%ADD32RoundRect,0.140000X-0.170000X0.140000X-0.170000X-0.140000X0.170000X-0.140000X0.170000X0.140000X0*%
%ADD33R,1.000000X0.200000*%
%ADD34R,2.200000X1.600000*%
%ADD35R,0.700000X0.600000*%
%ADD36R,0.700000X0.900000*%
%ADD37R,0.250000X0.625000*%
%ADD38R,0.400000X0.700000*%
%ADD39R,0.400000X0.575000*%
%ADD40RoundRect,0.150000X-0.150000X0.587500X-0.150000X-0.587500X0.150000X-0.587500X0.150000X0.587500X0*%
%ADD41RoundRect,0.135000X-0.185000X0.135000X-0.185000X-0.135000X0.185000X-0.135000X0.185000X0.135000X0*%
%ADD42RoundRect,0.140000X0.170000X-0.140000X0.170000X0.140000X-0.170000X0.140000X-0.170000X-0.140000X0*%
%ADD43RoundRect,0.147500X-0.147500X-0.172500X0.147500X-0.172500X0.147500X0.172500X-0.147500X0.172500X0*%
%ADD44RoundRect,0.150000X-0.150000X-0.625000X0.150000X-0.625000X0.150000X0.625000X-0.150000X0.625000X0*%
%ADD45RoundRect,0.250000X-0.350000X-0.650000X0.350000X-0.650000X0.350000X0.650000X-0.350000X0.650000X0*%
%ADD46C,1.500000*%
%ADD47R,0.300000X2.600000*%
%ADD48O,1.500000X3.300000*%
%ADD49O,1.500000X2.300000*%
%ADD50R,1.550000X0.300000*%
%ADD51R,2.750000X1.200000*%
%ADD52RoundRect,0.175000X-0.175000X-0.725000X0.175000X-0.725000X0.175000X0.725000X-0.175000X0.725000X0*%
%ADD53RoundRect,0.250000X-0.650000X-1.150000X0.650000X-1.150000X0.650000X1.150000X-0.650000X1.150000X0*%
%ADD54RoundRect,0.137500X0.212500X0.137500X-0.212500X0.137500X-0.212500X-0.137500X0.212500X-0.137500X0*%
%ADD55O,1.000000X2.050000*%
%ADD56R,1.620000X0.250000*%
%ADD57R,0.850000X0.850000*%
%ADD58RoundRect,0.147500X0.172500X-0.147500X0.172500X0.147500X-0.172500X0.147500X-0.172500X-0.147500X0*%
%ADD59RoundRect,0.150000X0.150000X-0.587500X0.150000X0.587500X-0.150000X0.587500X-0.150000X-0.587500X0*%
%ADD60R,0.700000X0.800000*%
%ADD61C,1.200000*%
%ADD62C,2.000000*%
%ADD63RoundRect,0.200000X0.200000X0.275000X-0.200000X0.275000X-0.200000X-0.275000X0.200000X-0.275000X0*%
%ADD64RoundRect,0.150000X-0.587500X-0.150000X0.587500X-0.150000X0.587500X0.150000X-0.587500X0.150000X0*%
%ADD65RoundRect,0.250000X0.450000X-0.262500X0.450000X0.262500X-0.450000X0.262500X-0.450000X-0.262500X0*%
%ADD66R,2.300000X3.200000*%
%ADD67R,1.100000X0.510000*%
G04 APERTURE END LIST*
D10*
X5012846Y23442406D02*
X5017764Y23437590D01*
X5032511Y23419067D01*
X5053105Y23389774D01*
X5078707Y23351011D01*
X5108477Y23304075D01*
X5141577Y23250266D01*
X5177166Y23190883D01*
X5214406Y23127224D01*
X5354824Y22884776D01*
X5435167Y22746907D01*
X5748883Y22208213D01*
X6344567Y21183531D01*
X6989615Y20074389D01*
X7545860Y19118416D01*
X8013429Y18315612D01*
X8290186Y17840294D01*
X8370119Y17702936D01*
X8572340Y17355176D01*
X8604943Y17298663D01*
X8635359Y17245075D01*
X8662924Y17195647D01*
X8686972Y17151613D01*
X8706838Y17114209D01*
X8721855Y17084667D01*
X8727338Y17073230D01*
X8731360Y17064222D01*
X8733836Y17057797D01*
X8734685Y17054109D01*
X8456384Y17043365D01*
X7601951Y17033713D01*
X4047964Y17016777D01*
X-638757Y17001459D01*
X-805446Y17289690D01*
X754708Y17289690D01*
X884251Y17289692D01*
X884250Y17675776D01*
X961766Y17675776D01*
X1082378Y17289690D01*
X1219548Y17289692D01*
X1079835Y17702439D01*
X1087465Y17706810D01*
X1094798Y17711349D01*
X1101834Y17716057D01*
X1108572Y17720934D01*
X1115013Y17725979D01*
X1121157Y17731192D01*
X1127003Y17736575D01*
X1132551Y17742126D01*
X1137802Y17747845D01*
X1142755Y17753734D01*
X1147410Y17759791D01*
X1151768Y17766016D01*
X1155827Y17772411D01*
X1159589Y17778974D01*
X1163052Y17785705D01*
X1166218Y17792606D01*
X1169293Y17799685D01*
X1172169Y17806954D01*
X1174846Y17814412D01*
X1177324Y17822059D01*
X1179604Y17829895D01*
X1181684Y17837920D01*
X1183566Y17846134D01*
X1185249Y17854537D01*
X1186734Y17863128D01*
X1188020Y17871908D01*
X1189109Y17880876D01*
X1189999Y17890032D01*
X1190691Y17899376D01*
X1191185Y17908908D01*
X1191482Y17918628D01*
X1191580Y17928536D01*
X1191357Y17944866D01*
X1190688Y17960678D01*
X1189572Y17975971D01*
X1188010Y17990745D01*
X1186001Y18005001D01*
X1183546Y18018739D01*
X1180645Y18031958D01*
X1177297Y18044658D01*
X1173502Y18056840D01*
X1169262Y18068504D01*
X1164575Y18079649D01*
X1159441Y18090275D01*
X1153861Y18100384D01*
X1147835Y18109973D01*
X1141362Y18119045D01*
X1134443Y18127598D01*
X1127077Y18135632D01*
X1119265Y18143148D01*
X1111006Y18150146D01*
X1102300Y18156625D01*
X1093148Y18162586D01*
X1083550Y18168029D01*
X1073505Y18172953D01*
X1063014Y18177359D01*
X1052076Y18181246D01*
X1040691Y18184615D01*
X1028860Y18187466D01*
X1016582Y18189799D01*
X1003858Y18191613D01*
X990687Y18192909D01*
X977069Y18193686D01*
X963104Y18193944D01*
X1295760Y18193944D01*
X1295761Y17289692D01*
X1681845Y17289692D01*
X1681845Y17419234D01*
X1425303Y17419232D01*
X1425303Y17492903D01*
X1425303Y18193946D01*
X1765623Y18193946D01*
X1765623Y17492903D01*
X1765688Y17487372D01*
X1765883Y17481890D01*
X1766208Y17476459D01*
X1766662Y17471077D01*
X1767246Y17465745D01*
X1767959Y17460463D01*
X1768802Y17455230D01*
X1769774Y17450047D01*
X1770875Y17444913D01*
X1772104Y17439829D01*
X1773462Y17434795D01*
X1774949Y17429810D01*
X1776565Y17424875D01*
X1778308Y17419989D01*
X1780180Y17415153D01*
X1782180Y17410366D01*
X1784293Y17405792D01*
X1786505Y17401277D01*
X1788816Y17396822D01*
X1791226Y17392426D01*
X1793735Y17388090D01*
X1796343Y17383814D01*
X1799050Y17379597D01*
X1801857Y17375439D01*
X1804762Y17371341D01*
X1807767Y17367303D01*
X1810871Y17363324D01*
X1814074Y17359405D01*
X1817377Y17355545D01*
X1820780Y17351745D01*
X1824281Y17348005D01*
X1827883Y17344323D01*
X1831564Y17340721D01*
X1835305Y17337217D01*
X1839105Y17333811D01*
X1842964Y17330504D01*
X1846884Y17327296D01*
X1850863Y17324187D01*
X1854901Y17321176D01*
X1858999Y17318265D01*
X1863157Y17315453D01*
X1867374Y17312740D01*
X1871650Y17310127D01*
X1875986Y17307614D01*
X1880382Y17305200D01*
X1884837Y17302886D01*
X1889351Y17300672D01*
X1893925Y17298558D01*
X1898708Y17296559D01*
X1903531Y17294689D01*
X1908393Y17292949D01*
X1913296Y17291338D01*
X1918238Y17289855D01*
X1923221Y17288503D01*
X1928243Y17287279D01*
X1933304Y17286184D01*
X1938406Y17285218D01*
X1943547Y17284381D01*
X1948728Y17283673D01*
X1953948Y17283094D01*
X1959208Y17282644D01*
X1964507Y17282322D01*
X1969845Y17282130D01*
X1975223Y17282066D01*
X1980600Y17282130D01*
X1985937Y17282322D01*
X1991233Y17282644D01*
X1996488Y17283094D01*
X2001704Y17283673D01*
X2006879Y17284381D01*
X2012015Y17285218D01*
X2017111Y17286184D01*
X2022167Y17287279D01*
X2027183Y17288503D01*
X2031566Y17289694D01*
X2032160Y17289855D01*
X2037098Y17291338D01*
X2041996Y17292949D01*
X2046856Y17294689D01*
X2051676Y17296559D01*
X2056458Y17298558D01*
X2061186Y17300672D01*
X2065845Y17302885D01*
X2070436Y17305199D01*
X2074958Y17307613D01*
X2079410Y17310126D01*
X2083794Y17312739D01*
X2088108Y17315452D01*
X2092353Y17318264D01*
X2096528Y17321175D01*
X2100634Y17324186D01*
X2104671Y17327295D01*
X2108637Y17330503D01*
X2112534Y17333810D01*
X2116360Y17337216D01*
X2120117Y17340720D01*
X2123803Y17344322D01*
X2127400Y17348003D01*
X2130888Y17351744D01*
X2134267Y17355544D01*
X2137537Y17359404D01*
X2140698Y17363324D01*
X2143750Y17367303D01*
X2146693Y17371342D01*
X2149526Y17375440D01*
X2152251Y17379597D01*
X2154867Y17383814D01*
X2157373Y17388091D01*
X2159770Y17392427D01*
X2162058Y17396823D01*
X2164236Y17401278D01*
X2166305Y17405792D01*
X2168265Y17410366D01*
X2170264Y17415153D01*
X2172134Y17419990D01*
X2173875Y17424876D01*
X2175486Y17429811D01*
X2176968Y17434796D01*
X2178322Y17439830D01*
X2179546Y17444914D01*
X2180641Y17450047D01*
X2181607Y17455230D01*
X2182444Y17460463D01*
X2183152Y17465745D01*
X2183731Y17471076D01*
X2184181Y17476458D01*
X2184503Y17481889D01*
X2184696Y17487370D01*
X2184760Y17492901D01*
X2184760Y18193944D01*
X2310458Y18193944D01*
X2310458Y17289694D01*
X2440000Y17289692D01*
X2440001Y17980562D01*
X2558132Y17980562D01*
X2558133Y17503072D01*
X2558207Y17495993D01*
X2558430Y17489043D01*
X2558802Y17482222D01*
X2559322Y17475530D01*
X2559991Y17468966D01*
X2560808Y17462532D01*
X2561774Y17456226D01*
X2562889Y17450050D01*
X2564153Y17444002D01*
X2565566Y17438083D01*
X2567128Y17432294D01*
X2568838Y17426633D01*
X2570698Y17421101D01*
X2572706Y17415698D01*
X2574864Y17410424D01*
X2577171Y17405279D01*
X2579601Y17400253D01*
X2582131Y17395336D01*
X2584760Y17390527D01*
X2587487Y17385827D01*
X2590314Y17381236D01*
X2593240Y17376753D01*
X2596265Y17372379D01*
X2599389Y17368115D01*
X2602613Y17363959D01*
X2605935Y17359913D01*
X2609357Y17355976D01*
X2612879Y17352149D01*
X2616499Y17348431D01*
X2620219Y17344823D01*
X2624039Y17341324D01*
X2627958Y17337935D01*
X2631797Y17334498D01*
X2635697Y17331171D01*
X2639656Y17327954D01*
X2643675Y17324847D01*
X2647753Y17321850D01*
X2651891Y17318962D01*
X2656088Y17316184D01*
X2660345Y17313515D01*
X2664662Y17310955D01*
X2669038Y17308504D01*
X2673474Y17306162D01*
X2677969Y17303929D01*
X2682523Y17301805D01*
X2687137Y17299788D01*
X2691811Y17297881D01*
X2696543Y17296081D01*
X2706386Y17292804D01*
X2716230Y17289961D01*
X2721152Y17288703D01*
X2726075Y17287553D01*
X2730997Y17286512D01*
X2735920Y17285580D01*
X2740843Y17284757D01*
X2745765Y17284044D01*
X2750688Y17283440D01*
X2755610Y17282945D01*
X2760532Y17282560D01*
X2765454Y17282285D01*
X2770376Y17282119D01*
X2775297Y17282064D01*
X2780213Y17282119D01*
X2785119Y17282284D01*
X2790015Y17282559D01*
X2794900Y17282944D01*
X2799776Y17283439D01*
X2804641Y17284043D01*
X2809496Y17284756D01*
X2814342Y17285579D01*
X2819177Y17286511D01*
X2824002Y17287552D01*
X2828818Y17288702D01*
X2832593Y17289690D01*
X3110595Y17289690D01*
X3240138Y17289692D01*
X3240138Y17495444D01*
X3594472Y17495444D01*
X3594546Y17487750D01*
X3594769Y17480224D01*
X3595141Y17472867D01*
X3595661Y17465678D01*
X3596330Y17458658D01*
X3597148Y17451807D01*
X3598114Y17445123D01*
X3599230Y17438609D01*
X3600494Y17432263D01*
X3601906Y17426086D01*
X3603468Y17420078D01*
X3605178Y17414238D01*
X3607038Y17408568D01*
X3609046Y17403066D01*
X3611204Y17397732D01*
X3613510Y17392568D01*
X3616089Y17387702D01*
X3618748Y17382945D01*
X3621486Y17378298D01*
X3624303Y17373761D01*
X3627199Y17369333D01*
X3630175Y17365015D01*
X3633230Y17360806D01*
X3636364Y17356706D01*
X3639578Y17352715D01*
X3642871Y17348833D01*
X3646243Y17345060D01*
X3649695Y17341396D01*
X3653227Y17337841D01*
X3656837Y17334395D01*
X3660528Y17331057D01*
X3664298Y17327828D01*
X3668138Y17324712D01*
X3672037Y17321714D01*
X3675996Y17318835D01*
X3680015Y17316075D01*
X3684093Y17313433D01*
X3688231Y17310910D01*
X3692429Y17308506D01*
X3696686Y17306221D01*
X3701002Y17304055D01*
X3705378Y17302009D01*
X3709814Y17300081D01*
X3714309Y17298273D01*
X3718864Y17296584D01*
X3723477Y17295015D01*
X3728151Y17293565D01*
X3732884Y17292235D01*
X3742388Y17289854D01*
X3751851Y17287789D01*
X3761273Y17286041D01*
X3770656Y17284611D01*
X3779998Y17283497D01*
X3789302Y17282702D01*
X3798567Y17282224D01*
X3807793Y17282064D01*
X3813166Y17282128D01*
X3818488Y17282321D01*
X3823761Y17282643D01*
X3828984Y17283093D01*
X3834157Y17283673D01*
X3839280Y17284381D01*
X3844354Y17285218D01*
X3849378Y17286184D01*
X3854352Y17287279D01*
X3859277Y17288503D01*
X3864153Y17289856D01*
X3868979Y17291338D01*
X3873755Y17292950D01*
X3878482Y17294691D01*
X3883160Y17296561D01*
X3887788Y17298560D01*
X3892511Y17300827D01*
X3897155Y17303184D01*
X3901719Y17305630D01*
X3906204Y17308166D01*
X3910609Y17310791D01*
X3914936Y17313506D01*
X3919182Y17316310D01*
X3923350Y17319204D01*
X3927438Y17322187D01*
X3931446Y17325259D01*
X3935376Y17328420D01*
X3939226Y17331670D01*
X3942996Y17335010D01*
X3946687Y17338439D01*
X3950299Y17341956D01*
X3953831Y17345563D01*
X3957274Y17349244D01*
X3960619Y17352985D01*
X3963866Y17356786D01*
X3967014Y17360645D01*
X3970063Y17364565D01*
X3973014Y17368543D01*
X3975865Y17372582D01*
X3978617Y17376680D01*
X3981270Y17380837D01*
X3983824Y17385054D01*
X3986278Y17389330D01*
X3988633Y17393666D01*
X3990888Y17398062D01*
X3993043Y17402517D01*
X3995099Y17407031D01*
X3997054Y17411606D01*
X3999053Y17416383D01*
X4000922Y17421190D01*
X4002663Y17426026D01*
X4004274Y17430892D01*
X4005756Y17435787D01*
X4007109Y17440712D01*
X4008333Y17445666D01*
X4009428Y17450651D01*
X4010394Y17455665D01*
X4011231Y17460709D01*
X4011939Y17465783D01*
X4012518Y17470886D01*
X4012968Y17476020D01*
X4013290Y17481183D01*
X4013483Y17486377D01*
X4013547Y17491601D01*
X4013549Y17547536D01*
X3884005Y17547534D01*
X3884005Y17503072D01*
X3883975Y17499773D01*
X3883886Y17496543D01*
X3883737Y17493383D01*
X3883528Y17490291D01*
X3883260Y17487269D01*
X3882932Y17484317D01*
X3882544Y17481433D01*
X3882097Y17478619D01*
X3881590Y17475875D01*
X3881024Y17473200D01*
X3880398Y17470594D01*
X3879713Y17468059D01*
X3878968Y17465592D01*
X3878164Y17463195D01*
X3877301Y17460868D01*
X3876378Y17458611D01*
X3875411Y17456418D01*
X3874414Y17454284D01*
X3873388Y17452209D01*
X3872332Y17450193D01*
X3871246Y17448236D01*
X3870131Y17446339D01*
X3868986Y17444501D01*
X3867812Y17442722D01*
X3866607Y17441003D01*
X3865373Y17439344D01*
X3864109Y17437744D01*
X3862815Y17436204D01*
X3861492Y17434724D01*
X3860138Y17433305D01*
X3858754Y17431945D01*
X3857341Y17430645D01*
X3855743Y17429395D01*
X3854124Y17428186D01*
X3852486Y17427018D01*
X3850827Y17425890D01*
X3849148Y17424802D01*
X3847449Y17423754D01*
X3845730Y17422746D01*
X3843992Y17421778D01*
X3842233Y17420850D01*
X3840455Y17419961D01*
X3838656Y17419112D01*
X3836839Y17418302D01*
X3835001Y17417530D01*
X3833145Y17416798D01*
X3831269Y17416105D01*
X3829373Y17415451D01*
X3825901Y17414556D01*
X3822468Y17413778D01*
X3819076Y17413117D01*
X3815723Y17412575D01*
X3812410Y17412152D01*
X3809137Y17411849D01*
X3805904Y17411667D01*
X3802709Y17411606D01*
X3797257Y17411710D01*
X3792015Y17412022D01*
X3786981Y17412543D01*
X3782156Y17413272D01*
X3777539Y17414209D01*
X3773132Y17415354D01*
X3771006Y17416005D01*
X3768933Y17416708D01*
X3766911Y17417463D01*
X3764942Y17418270D01*
X3763025Y17419129D01*
X3761160Y17420041D01*
X3759347Y17421004D01*
X3757586Y17422020D01*
X3755877Y17423087D01*
X3754220Y17424207D01*
X3752615Y17425379D01*
X3751062Y17426602D01*
X3749561Y17427878D01*
X3748112Y17429207D01*
X3746715Y17430587D01*
X3745371Y17432019D01*
X3744078Y17433503D01*
X3742836Y17435040D01*
X3741647Y17436629D01*
X3740510Y17438269D01*
X3738511Y17441653D01*
X3736641Y17445136D01*
X3734901Y17448719D01*
X3733290Y17452400D01*
X3731807Y17456181D01*
X3730454Y17460061D01*
X3729230Y17464040D01*
X3728136Y17468118D01*
X3727170Y17472295D01*
X3726333Y17476571D01*
X3725624Y17480947D01*
X3725045Y17485422D01*
X3724594Y17489995D01*
X3724273Y17494668D01*
X3724080Y17499441D01*
X3724015Y17504312D01*
X3724016Y17966609D01*
X3724075Y17972260D01*
X3724252Y17977781D01*
X3724547Y17983173D01*
X3724961Y17988435D01*
X3725493Y17993568D01*
X3726144Y17998572D01*
X3726913Y18003447D01*
X3727802Y18008193D01*
X3728810Y18012810D01*
X3729936Y18017297D01*
X3731183Y18021656D01*
X3732548Y18025887D01*
X3734034Y18029988D01*
X3735639Y18033961D01*
X3737363Y18037806D01*
X3739208Y18041521D01*
X3741396Y18045213D01*
X3743833Y18048666D01*
X3746519Y18051882D01*
X3749453Y18054861D01*
X3752635Y18057601D01*
X3756066Y18060104D01*
X3759745Y18062369D01*
X3763672Y18064396D01*
X3767847Y18066184D01*
X3772270Y18067735D01*
X3776941Y18069047D01*
X3781859Y18070121D01*
X3787026Y18070956D01*
X3792440Y18071553D01*
X3798101Y18071911D01*
X3804010Y18072030D01*
X3808555Y18071921D01*
X3812980Y18071593D01*
X3817286Y18071046D01*
X3821472Y18070280D01*
X3825540Y18069296D01*
X3829489Y18068093D01*
X3833318Y18066672D01*
X3837028Y18065032D01*
X3840620Y18063174D01*
X3844092Y18061098D01*
X3847445Y18058804D01*
X3850679Y18056291D01*
X3853795Y18053561D01*
X3856791Y18050613D01*
X3859668Y18047447D01*
X3862426Y18044063D01*
X3865040Y18040531D01*
X3867486Y18036919D01*
X3869762Y18033228D01*
X3871870Y18029458D01*
X3873809Y18025608D01*
X3875579Y18021679D01*
X3877180Y18017670D01*
X3878613Y18013582D01*
X3879877Y18009415D01*
X3880972Y18005168D01*
X3881899Y18000842D01*
X3882657Y17996436D01*
X3883247Y17991951D01*
X3883668Y17987387D01*
X3883921Y17982743D01*
X3884005Y17978020D01*
X3884005Y17934859D01*
X4013548Y17934861D01*
X4013549Y17980564D01*
X4111340Y17980564D01*
X4111341Y17503072D01*
X4111415Y17495993D01*
X4111638Y17489043D01*
X4112009Y17482222D01*
X4112529Y17475530D01*
X4113198Y17468966D01*
X4114015Y17462532D01*
X4114981Y17456226D01*
X4116097Y17450050D01*
X4117360Y17444002D01*
X4118773Y17438084D01*
X4120335Y17432294D01*
X4122045Y17426634D01*
X4123905Y17421102D01*
X4125913Y17415699D01*
X4128071Y17410426D01*
X4130377Y17405281D01*
X4132808Y17400255D01*
X4135338Y17395338D01*
X4137967Y17390529D01*
X4140695Y17385829D01*
X4143522Y17381237D01*
X4146448Y17376755D01*
X4149473Y17372381D01*
X4152597Y17368116D01*
X4155820Y17363960D01*
X4159143Y17359913D01*
X4162565Y17355976D01*
X4166086Y17352149D01*
X4169707Y17348431D01*
X4173427Y17344822D01*
X4177246Y17341324D01*
X4181165Y17337935D01*
X4185005Y17334498D01*
X4188905Y17331171D01*
X4192864Y17327954D01*
X4196882Y17324847D01*
X4200961Y17321849D01*
X4205099Y17318962D01*
X4209296Y17316183D01*
X4213553Y17313514D01*
X4217870Y17310954D01*
X4222246Y17308504D01*
X4226681Y17306162D01*
X4231176Y17303928D01*
X4235730Y17301804D01*
X4240344Y17299788D01*
X4245018Y17297880D01*
X4249750Y17296081D01*
X4259594Y17292804D01*
X4269438Y17289960D01*
X4274360Y17288702D01*
X4279283Y17287552D01*
X4284206Y17286511D01*
X4289128Y17285579D01*
X4294051Y17284756D01*
X4298974Y17284043D01*
X4303896Y17283439D01*
X4308819Y17282945D01*
X4313741Y17282560D01*
X4318663Y17282285D01*
X4323585Y17282121D01*
X4328507Y17282066D01*
X4333423Y17282121D01*
X4338328Y17282285D01*
X4343224Y17282560D01*
X4348109Y17282945D01*
X4352984Y17283439D01*
X4357850Y17284043D01*
X4362705Y17284757D01*
X4367550Y17285579D01*
X4372385Y17286511D01*
X4377210Y17287552D01*
X4382026Y17288701D01*
X4385810Y17289692D01*
X4386831Y17289959D01*
X4391627Y17291326D01*
X4396414Y17292802D01*
X4401190Y17294385D01*
X4405958Y17296077D01*
X4410849Y17297877D01*
X4415682Y17299786D01*
X4420455Y17301803D01*
X4425168Y17303928D01*
X4429822Y17306161D01*
X4434417Y17308503D01*
X4438952Y17310954D01*
X4443427Y17313514D01*
X4447843Y17316183D01*
X4452199Y17318962D01*
X4456496Y17321850D01*
X4460733Y17324847D01*
X4464911Y17327954D01*
X4469029Y17331171D01*
X4473087Y17334498D01*
X4477086Y17337935D01*
X4480851Y17341324D01*
X4484528Y17344822D01*
X4488116Y17348430D01*
X4491614Y17352148D01*
X4495024Y17355976D01*
X4498344Y17359913D01*
X4501575Y17363959D01*
X4504717Y17368115D01*
X4507769Y17372380D01*
X4510733Y17376754D01*
X4513606Y17381237D01*
X4516391Y17385828D01*
X4519085Y17390529D01*
X4521691Y17395338D01*
X4524206Y17400255D01*
X4526632Y17405281D01*
X4528939Y17410426D01*
X4531097Y17415699D01*
X4533106Y17421102D01*
X4534965Y17426634D01*
X4536676Y17432294D01*
X4538238Y17438084D01*
X4539651Y17444002D01*
X4540914Y17450050D01*
X4542030Y17456226D01*
X4542996Y17462531D01*
X4543814Y17468966D01*
X4544482Y17475529D01*
X4545003Y17482221D01*
X4545374Y17489042D01*
X4545597Y17495992D01*
X4545672Y17503070D01*
X4545671Y17980564D01*
X4545596Y17987340D01*
X4545374Y17994019D01*
X4545002Y18000598D01*
X4544482Y18007079D01*
X4543813Y18013461D01*
X4542996Y18019745D01*
X4542029Y18025929D01*
X4540914Y18032014D01*
X4539650Y18038000D01*
X4538237Y18043886D01*
X4536676Y18049674D01*
X4534965Y18055361D01*
X4533106Y18060949D01*
X4531097Y18066438D01*
X4528940Y18071827D01*
X4526633Y18077115D01*
X4524207Y18082299D01*
X4521692Y18087373D01*
X4519086Y18092338D01*
X4516391Y18097193D01*
X4513607Y18101939D01*
X4510733Y18106576D01*
X4507770Y18111103D01*
X4504717Y18115521D01*
X4501575Y18119830D01*
X4498344Y18124029D01*
X4495024Y18128120D01*
X4491614Y18132102D01*
X4488116Y18135975D01*
X4484528Y18139739D01*
X4480851Y18143394D01*
X4477086Y18146941D01*
X4473087Y18150224D01*
X4469029Y18153409D01*
X4464911Y18156493D01*
X4460733Y18159478D01*
X4456496Y18162364D01*
X4452199Y18165150D01*
X4447842Y18167836D01*
X4443427Y18170424D01*
X4438951Y18172912D01*
X4434416Y18175301D01*
X4429822Y18177591D01*
X4425168Y18179782D01*
X4420454Y18181874D01*
X4415682Y18183867D01*
X4410850Y18185762D01*
X4405958Y18187557D01*
X4401191Y18189249D01*
X4396414Y18190833D01*
X4391628Y18192309D01*
X4386832Y18193676D01*
X4385808Y18193944D01*
X4659958Y18193944D01*
X4659958Y17289692D01*
X5046044Y17289692D01*
X5071468Y17289692D01*
X5201011Y17289694D01*
X5239086Y17484037D01*
X5415634Y17484035D01*
X5453708Y17289690D01*
X5583252Y17289692D01*
X5641666Y17289692D01*
X5771208Y17289690D01*
X5771207Y17833285D01*
X5773751Y17833285D01*
X5971878Y17289690D01*
X6093793Y17289692D01*
X6093793Y17503070D01*
X6202996Y17503070D01*
X6203071Y17495992D01*
X6203296Y17489042D01*
X6203670Y17482221D01*
X6204194Y17475529D01*
X6204868Y17468965D01*
X6205690Y17462531D01*
X6206662Y17456226D01*
X6207783Y17450049D01*
X6209053Y17444002D01*
X6210471Y17438083D01*
X6212038Y17432293D01*
X6213753Y17426633D01*
X6215617Y17421101D01*
X6217628Y17415699D01*
X6219788Y17410425D01*
X6222096Y17405281D01*
X6224526Y17400255D01*
X6227055Y17395338D01*
X6229684Y17390529D01*
X6232412Y17385828D01*
X6235238Y17381237D01*
X6238164Y17376754D01*
X6241189Y17372380D01*
X6244314Y17368115D01*
X6247537Y17363960D01*
X6250860Y17359913D01*
X6254282Y17355977D01*
X6257803Y17352149D01*
X6261424Y17348431D01*
X6265144Y17344823D01*
X6268963Y17341325D01*
X6272882Y17337937D01*
X6276722Y17334499D01*
X6280621Y17331172D01*
X6284580Y17327954D01*
X6288599Y17324847D01*
X6292678Y17321850D01*
X6296815Y17318962D01*
X6301013Y17316184D01*
X6305270Y17313515D01*
X6309586Y17310955D01*
X6313962Y17308504D01*
X6318398Y17306162D01*
X6322893Y17303929D01*
X6327447Y17301804D01*
X6332061Y17299788D01*
X6336735Y17297879D01*
X6341467Y17296079D01*
X6351308Y17292803D01*
X6361145Y17289961D01*
X6366063Y17288702D01*
X6370980Y17287552D01*
X6375897Y17286511D01*
X6380814Y17285579D01*
X6385731Y17284756D01*
X6390648Y17284043D01*
X6395565Y17283438D01*
X6400483Y17282944D01*
X6405401Y17282559D01*
X6410320Y17282284D01*
X6415240Y17282119D01*
X6420161Y17282064D01*
X6425077Y17282119D01*
X6429985Y17282285D01*
X6434884Y17282560D01*
X6439773Y17282945D01*
X6444653Y17283439D01*
X6449524Y17284043D01*
X6454385Y17284757D01*
X6459236Y17285579D01*
X6464077Y17286511D01*
X6468908Y17287552D01*
X6473729Y17288702D01*
X6477507Y17289690D01*
X6478540Y17289960D01*
X6483340Y17291328D01*
X6488130Y17292804D01*
X6492909Y17294388D01*
X6497677Y17296081D01*
X6502568Y17297881D01*
X6507400Y17299789D01*
X6512173Y17301805D01*
X6516886Y17303930D01*
X6521540Y17306163D01*
X6526135Y17308505D01*
X6530670Y17310956D01*
X6535145Y17313516D01*
X6539561Y17316184D01*
X6543917Y17318962D01*
X6548214Y17321850D01*
X6552451Y17324847D01*
X6556629Y17327954D01*
X6560747Y17331171D01*
X6564805Y17334498D01*
X6568804Y17337935D01*
X6572569Y17341324D01*
X6576243Y17344823D01*
X6579828Y17348431D01*
X6583322Y17352149D01*
X6586727Y17355977D01*
X6590042Y17359914D01*
X6593267Y17363960D01*
X6596403Y17368116D01*
X6599450Y17372380D01*
X6602407Y17376754D01*
X6605276Y17381236D01*
X6608056Y17385828D01*
X6610747Y17390528D01*
X6613349Y17395336D01*
X6615863Y17400254D01*
X6618288Y17405279D01*
X6620596Y17410424D01*
X6622755Y17415698D01*
X6624767Y17421101D01*
X6626630Y17426632D01*
X6628345Y17432293D01*
X6629912Y17438083D01*
X6631330Y17444002D01*
X6632600Y17450050D01*
X6633720Y17456226D01*
X6634692Y17462532D01*
X6635515Y17468967D01*
X6636188Y17475530D01*
X6636712Y17482222D01*
X6637086Y17489044D01*
X6637311Y17495993D01*
X6637386Y17503072D01*
X6637388Y17787519D01*
X6404968Y17787521D01*
X6404967Y17673232D01*
X6507846Y17673232D01*
X6507846Y17503072D01*
X6507741Y17497293D01*
X6507427Y17491701D01*
X6506903Y17486297D01*
X6506169Y17481081D01*
X6505227Y17476053D01*
X6504077Y17471213D01*
X6502717Y17466561D01*
X6501149Y17462098D01*
X6499373Y17457823D01*
X6497388Y17453737D01*
X6495195Y17449839D01*
X6492795Y17446130D01*
X6490187Y17442611D01*
X6487371Y17439280D01*
X6484348Y17436139D01*
X6481118Y17433186D01*
X6477904Y17430572D01*
X6474610Y17428126D01*
X6471236Y17425850D01*
X6467784Y17423742D01*
X6464252Y17421803D01*
X6460640Y17420033D01*
X6456950Y17418431D01*
X6453179Y17416998D01*
X6449330Y17415734D01*
X6445401Y17414639D01*
X6441393Y17413712D01*
X6437305Y17412953D01*
X6433138Y17412364D01*
X6428892Y17411943D01*
X6424566Y17411690D01*
X6420161Y17411606D01*
X6415751Y17411690D01*
X6411411Y17411943D01*
X6407141Y17412364D01*
X6402941Y17412954D01*
X6398811Y17413713D01*
X6394751Y17414639D01*
X6390760Y17415735D01*
X6386839Y17416999D01*
X6382987Y17418432D01*
X6379205Y17420033D01*
X6375492Y17421803D01*
X6371848Y17423742D01*
X6368273Y17425850D01*
X6364767Y17428127D01*
X6361330Y17430572D01*
X6357962Y17433186D01*
X6354886Y17436139D01*
X6352008Y17439280D01*
X6349328Y17442611D01*
X6346846Y17446130D01*
X6344562Y17449839D01*
X6342477Y17453736D01*
X6340589Y17457822D01*
X6338900Y17462097D01*
X6337410Y17466560D01*
X6336118Y17471212D01*
X6335024Y17476052D01*
X6334130Y17481080D01*
X6333434Y17486296D01*
X6332937Y17491701D01*
X6332638Y17497293D01*
X6332539Y17503072D01*
X6332537Y17980562D01*
X6332637Y17986337D01*
X6332935Y17991913D01*
X6333433Y17997291D01*
X6334129Y18002471D01*
X6335024Y18007452D01*
X6336117Y18012235D01*
X6337410Y18016820D01*
X6338900Y18021206D01*
X6340589Y18025393D01*
X6342477Y18029382D01*
X6344563Y18033173D01*
X6346847Y18036765D01*
X6349329Y18040158D01*
X6352009Y18043353D01*
X6354887Y18046350D01*
X6357963Y18049148D01*
X6361331Y18051916D01*
X6364768Y18054507D01*
X6368274Y18056919D01*
X6371849Y18059153D01*
X6375492Y18061208D01*
X6379205Y18063086D01*
X6382988Y18064784D01*
X6386839Y18066305D01*
X6390760Y18067646D01*
X6394751Y18068809D01*
X6398811Y18069793D01*
X6402941Y18070599D01*
X6407140Y18071225D01*
X6411410Y18071673D01*
X6415749Y18071941D01*
X6420159Y18072030D01*
X6424564Y18071941D01*
X6428891Y18071672D01*
X6433137Y18071225D01*
X6437305Y18070598D01*
X6441392Y18069793D01*
X6445401Y18068808D01*
X6449330Y18067646D01*
X6453179Y18066304D01*
X6456949Y18064784D01*
X6460640Y18063085D01*
X6464252Y18061208D01*
X6467784Y18059152D01*
X6471236Y18056919D01*
X6474610Y18054506D01*
X6477904Y18051916D01*
X6481118Y18049148D01*
X6484348Y18046350D01*
X6487371Y18043353D01*
X6490187Y18040158D01*
X6492795Y18036764D01*
X6495196Y18033172D01*
X6497389Y18029382D01*
X6499373Y18025393D01*
X6501150Y18021205D01*
X6502718Y18016819D01*
X6504077Y18012235D01*
X6505228Y18007452D01*
X6506170Y18002471D01*
X6506903Y17997292D01*
X6507427Y17991914D01*
X6507741Y17986338D01*
X6507846Y17980564D01*
X6507844Y17934859D01*
X6637388Y17934861D01*
X6637388Y17980564D01*
X6637313Y17987340D01*
X6637088Y17994019D01*
X6636714Y18000598D01*
X6636190Y18007079D01*
X6635516Y18013462D01*
X6634693Y18019745D01*
X6633721Y18025929D01*
X6632601Y18032015D01*
X6631331Y18038001D01*
X6629913Y18043887D01*
X6628346Y18049674D01*
X6626630Y18055362D01*
X6624767Y18060950D01*
X6622755Y18066438D01*
X6620596Y18071827D01*
X6618288Y18077115D01*
X6615863Y18082299D01*
X6613349Y18087373D01*
X6610747Y18092338D01*
X6608056Y18097193D01*
X6605276Y18101939D01*
X6602408Y18106575D01*
X6599450Y18111102D01*
X6596404Y18115520D01*
X6593268Y18119829D01*
X6590042Y18124029D01*
X6586727Y18128119D01*
X6583322Y18132101D01*
X6579827Y18135974D01*
X6576242Y18139738D01*
X6572567Y18143394D01*
X6568802Y18146941D01*
X6564803Y18150225D01*
X6560745Y18153409D01*
X6556627Y18156494D01*
X6552450Y18159479D01*
X6548212Y18162365D01*
X6543916Y18165151D01*
X6539559Y18167838D01*
X6535143Y18170425D01*
X6530668Y18172914D01*
X6526133Y18175303D01*
X6521539Y18177592D01*
X6516885Y18179783D01*
X6512172Y18181875D01*
X6507400Y18183868D01*
X6502568Y18185762D01*
X6497677Y18187557D01*
X6492909Y18189249D01*
X6488130Y18190833D01*
X6483340Y18192309D01*
X6478540Y18193676D01*
X6477507Y18193946D01*
X6751675Y18193946D01*
X6751675Y17289690D01*
X7137760Y17289692D01*
X7137760Y17289694D01*
X7137760Y17419232D01*
X6881218Y17419234D01*
X6881217Y17684643D01*
X7104708Y17684643D01*
X7104708Y17806559D01*
X6881217Y17806559D01*
X6881218Y18072030D01*
X7137760Y18072030D01*
X7137760Y18193944D01*
X7221538Y18193944D01*
X7221538Y17289694D01*
X7607623Y17289690D01*
X7607623Y17289692D01*
X7695245Y17289692D01*
X7824788Y17289690D01*
X7824788Y18193944D01*
X7695247Y18193944D01*
X7695245Y17289692D01*
X7607623Y17289692D01*
X7607623Y17419234D01*
X7351080Y17419234D01*
X7351082Y18193944D01*
X7221538Y18193944D01*
X7137760Y18193944D01*
X6751675Y18193946D01*
X6477507Y18193946D01*
X6473729Y18194934D01*
X6468908Y18196084D01*
X6464077Y18197125D01*
X6459236Y18198056D01*
X6454385Y18198879D01*
X6449524Y18199593D01*
X6444653Y18200197D01*
X6439773Y18200692D01*
X6434884Y18201077D01*
X6429985Y18201352D01*
X6425077Y18201518D01*
X6420161Y18201574D01*
X6415240Y18201518D01*
X6410320Y18201353D01*
X6405402Y18201078D01*
X6400483Y18200693D01*
X6395566Y18200198D01*
X6390649Y18199594D01*
X6385732Y18198881D01*
X6380815Y18198058D01*
X6375898Y18197126D01*
X6370981Y18196085D01*
X6366064Y18194935D01*
X6361146Y18193677D01*
X6351308Y18190834D01*
X6341467Y18187557D01*
X6336735Y18185762D01*
X6332062Y18183868D01*
X6327448Y18181875D01*
X6322894Y18179783D01*
X6318399Y18177593D01*
X6313963Y18175303D01*
X6309587Y18172914D01*
X6305270Y18170426D01*
X6301013Y18167838D01*
X6296816Y18165151D01*
X6292678Y18162365D01*
X6288599Y18159480D01*
X6284581Y18156495D01*
X6280621Y18153410D01*
X6276722Y18150226D01*
X6272882Y18146943D01*
X6268963Y18143396D01*
X6265144Y18139740D01*
X6261424Y18135976D01*
X6257803Y18132103D01*
X6254282Y18128121D01*
X6250860Y18124030D01*
X6247538Y18119831D01*
X6244314Y18115522D01*
X6241190Y18111104D01*
X6238165Y18106577D01*
X6235239Y18101940D01*
X6232412Y18097194D01*
X6229685Y18092339D01*
X6227056Y18087374D01*
X6224526Y18082299D01*
X6222096Y18077115D01*
X6219788Y18071827D01*
X6217628Y18066438D01*
X6215617Y18060949D01*
X6213753Y18055361D01*
X6212038Y18049674D01*
X6210471Y18043886D01*
X6209053Y18038000D01*
X6207783Y18032014D01*
X6206662Y18025929D01*
X6205691Y18019745D01*
X6204868Y18013461D01*
X6204195Y18007079D01*
X6203671Y18000598D01*
X6203296Y17994019D01*
X6203072Y17987340D01*
X6202997Y17980564D01*
X6202996Y17503070D01*
X6093793Y17503070D01*
X6093794Y18193944D01*
X5964250Y18193946D01*
X5964251Y17649110D01*
X5961708Y17649110D01*
X5766124Y18193944D01*
X5641666Y18193942D01*
X5641666Y17289692D01*
X5583252Y17289692D01*
X5381341Y18193942D01*
X5381340Y18193944D01*
X5273378Y18193944D01*
X5071468Y17289692D01*
X5046044Y17289692D01*
X5046044Y17419234D01*
X4789500Y17419234D01*
X4789500Y18193944D01*
X4659958Y18193944D01*
X4385808Y18193944D01*
X4382026Y18194934D01*
X4377210Y18196084D01*
X4372385Y18197125D01*
X4367549Y18198057D01*
X4362704Y18198880D01*
X4357849Y18199593D01*
X4352984Y18200197D01*
X4348108Y18200692D01*
X4343223Y18201077D01*
X4338328Y18201352D01*
X4333422Y18201517D01*
X4328506Y18201572D01*
X4323584Y18201517D01*
X4318662Y18201352D01*
X4313740Y18201077D01*
X4308818Y18200692D01*
X4303896Y18200198D01*
X4298973Y18199594D01*
X4294051Y18198880D01*
X4289128Y18198058D01*
X4284205Y18197126D01*
X4279283Y18196085D01*
X4274360Y18194935D01*
X4269438Y18193677D01*
X4259594Y18190834D01*
X4249750Y18187557D01*
X4245018Y18185761D01*
X4240344Y18183867D01*
X4235730Y18181874D01*
X4231176Y18179782D01*
X4226681Y18177591D01*
X4222246Y18175301D01*
X4217870Y18172912D01*
X4213553Y18170424D01*
X4209296Y18167837D01*
X4205099Y18165150D01*
X4200961Y18162364D01*
X4196883Y18159479D01*
X4192864Y18156494D01*
X4188905Y18153409D01*
X4185006Y18150225D01*
X4181166Y18146941D01*
X4177247Y18143394D01*
X4173428Y18139738D01*
X4169707Y18135974D01*
X4166087Y18132101D01*
X4162565Y18128119D01*
X4159143Y18124029D01*
X4155820Y18119829D01*
X4152597Y18115520D01*
X4149472Y18111102D01*
X4146447Y18106575D01*
X4143521Y18101939D01*
X4140694Y18097193D01*
X4137967Y18092338D01*
X4135338Y18087373D01*
X4132808Y18082299D01*
X4130377Y18077115D01*
X4128071Y18071827D01*
X4125913Y18066438D01*
X4123905Y18060950D01*
X4122045Y18055362D01*
X4120335Y18049674D01*
X4118773Y18043887D01*
X4117361Y18038000D01*
X4116097Y18032015D01*
X4114982Y18025930D01*
X4114015Y18019745D01*
X4113198Y18013462D01*
X4112529Y18007080D01*
X4112009Y18000599D01*
X4111637Y17994019D01*
X4111414Y17987341D01*
X4111340Y17980564D01*
X4013549Y17980564D01*
X4013549Y17985647D01*
X4013484Y17991491D01*
X4013291Y17997276D01*
X4012969Y18003003D01*
X4012519Y18008670D01*
X4011939Y18014277D01*
X4011231Y18019826D01*
X4010394Y18025315D01*
X4009428Y18030744D01*
X4008333Y18036114D01*
X4007109Y18041424D01*
X4005756Y18046675D01*
X4004274Y18051866D01*
X4002662Y18056997D01*
X4000922Y18062068D01*
X3999052Y18067079D01*
X3997054Y18072030D01*
X3995099Y18077066D01*
X3993043Y18082011D01*
X3990888Y18086867D01*
X3988633Y18091633D01*
X3986278Y18096309D01*
X3983824Y18100896D01*
X3981270Y18105393D01*
X3978617Y18109801D01*
X3975864Y18114120D01*
X3973013Y18118349D01*
X3970062Y18122489D01*
X3967013Y18126540D01*
X3963865Y18130503D01*
X3960618Y18134376D01*
X3957273Y18138160D01*
X3953830Y18141856D01*
X3946552Y18149084D01*
X3939007Y18155847D01*
X3931195Y18162143D01*
X3923114Y18167974D01*
X3914765Y18173339D01*
X3906149Y18178237D01*
X3897265Y18182670D01*
X3888113Y18186636D01*
X3878693Y18190136D01*
X3869006Y18193170D01*
X3859050Y18195737D01*
X3848826Y18197837D01*
X3838335Y18199471D01*
X3827575Y18200638D01*
X3816547Y18201339D01*
X3805252Y18201572D01*
X3799408Y18201507D01*
X3793624Y18201312D01*
X3787901Y18200987D01*
X3782238Y18200532D01*
X3776635Y18199948D01*
X3771092Y18199235D01*
X3765609Y18198392D01*
X3760185Y18197420D01*
X3754821Y18196320D01*
X3749516Y18195090D01*
X3744271Y18193732D01*
X3739085Y18192245D01*
X3733958Y18190630D01*
X3728889Y18188886D01*
X3723880Y18187014D01*
X3718929Y18185014D01*
X3714207Y18183060D01*
X3709563Y18181007D01*
X3704999Y18178855D01*
X3700514Y18176604D01*
X3696109Y18174254D01*
X3691783Y18171806D01*
X3687536Y18169258D01*
X3683369Y18166611D01*
X3679281Y18163864D01*
X3675272Y18161019D01*
X3671343Y18158074D01*
X3667493Y18155029D01*
X3663723Y18151885D01*
X3660032Y18148642D01*
X3656421Y18145299D01*
X3652889Y18141856D01*
X3649445Y18138324D01*
X3646100Y18134712D01*
X3642853Y18131021D01*
X3639705Y18127251D01*
X3636656Y18123401D01*
X3633706Y18119472D01*
X3630854Y18115463D01*
X3628102Y18111375D01*
X3625449Y18107208D01*
X3622895Y18102961D01*
X3620441Y18098635D01*
X3618086Y18094229D01*
X3615831Y18089744D01*
X3613676Y18085180D01*
X3611621Y18080536D01*
X3609666Y18075813D01*
X3607821Y18071026D01*
X3606096Y18066190D01*
X3604491Y18061304D01*
X3603005Y18056369D01*
X3601639Y18051384D01*
X3600393Y18046349D01*
X3599266Y18041265D01*
X3598259Y18036132D01*
X3597370Y18030948D01*
X3596600Y18025716D01*
X3595949Y18020433D01*
X3595417Y18015101D01*
X3595004Y18009719D01*
X3594708Y18004287D01*
X3594531Y17998806D01*
X3594473Y17993275D01*
X3594472Y17495444D01*
X3240138Y17495444D01*
X3240137Y18193946D01*
X3110596Y18193946D01*
X3110595Y17289690D01*
X2832593Y17289690D01*
X2833624Y17289960D01*
X2838420Y17291327D01*
X2843207Y17292803D01*
X2847983Y17294387D01*
X2852751Y17296079D01*
X2857642Y17297879D01*
X2862474Y17299787D01*
X2867247Y17301804D01*
X2871960Y17303929D01*
X2876614Y17306162D01*
X2881209Y17308504D01*
X2885744Y17310955D01*
X2890219Y17313515D01*
X2894635Y17316184D01*
X2898991Y17318962D01*
X2903288Y17321850D01*
X2907525Y17324848D01*
X2911703Y17327955D01*
X2915821Y17331172D01*
X2919879Y17334499D01*
X2923878Y17337937D01*
X2927644Y17341325D01*
X2931320Y17344823D01*
X2934908Y17348431D01*
X2938406Y17352149D01*
X2941816Y17355977D01*
X2945136Y17359913D01*
X2948367Y17363960D01*
X2951509Y17368115D01*
X2954562Y17372380D01*
X2957525Y17376754D01*
X2960399Y17381237D01*
X2963183Y17385828D01*
X2965878Y17390529D01*
X2968483Y17395338D01*
X2970999Y17400255D01*
X2973425Y17405281D01*
X2975731Y17410425D01*
X2977889Y17415699D01*
X2979898Y17421101D01*
X2981757Y17426633D01*
X2983468Y17432293D01*
X2985030Y17438083D01*
X2986442Y17444002D01*
X2987706Y17450049D01*
X2988821Y17456226D01*
X2989788Y17462531D01*
X2990605Y17468966D01*
X2991274Y17475529D01*
X2991794Y17482222D01*
X2992166Y17489043D01*
X2992389Y17495993D01*
X2992463Y17503072D01*
X2992463Y17787521D01*
X2760044Y17787521D01*
X2760043Y17673234D01*
X2862920Y17673234D01*
X2862920Y17503070D01*
X2862816Y17497291D01*
X2862504Y17491699D01*
X2861984Y17486295D01*
X2861255Y17481079D01*
X2860317Y17476051D01*
X2859172Y17471212D01*
X2857818Y17466560D01*
X2856256Y17462097D01*
X2854485Y17457822D01*
X2852506Y17453736D01*
X2850319Y17449839D01*
X2847923Y17446130D01*
X2845319Y17442611D01*
X2842506Y17439280D01*
X2839485Y17436139D01*
X2836256Y17433186D01*
X2833041Y17430572D01*
X2829747Y17428127D01*
X2826374Y17425851D01*
X2822921Y17423743D01*
X2819389Y17421804D01*
X2815778Y17420034D01*
X2812087Y17418432D01*
X2808317Y17417000D01*
X2804467Y17415735D01*
X2800538Y17414640D01*
X2796530Y17413713D01*
X2792443Y17412954D01*
X2788276Y17412365D01*
X2784029Y17411943D01*
X2779703Y17411690D01*
X2775298Y17411606D01*
X2770887Y17411690D01*
X2766546Y17411943D01*
X2762273Y17412364D01*
X2758069Y17412953D01*
X2753934Y17413712D01*
X2749869Y17414639D01*
X2745872Y17415734D01*
X2741945Y17416998D01*
X2738088Y17418431D01*
X2734300Y17420032D01*
X2730582Y17421802D01*
X2726933Y17423741D01*
X2723354Y17425849D01*
X2719845Y17428125D01*
X2716406Y17430570D01*
X2713038Y17433185D01*
X2709962Y17436137D01*
X2707086Y17439279D01*
X2704409Y17442610D01*
X2701931Y17446129D01*
X2699652Y17449838D01*
X2697572Y17453736D01*
X2695690Y17457822D01*
X2694007Y17462097D01*
X2692522Y17466560D01*
X2691236Y17471212D01*
X2690147Y17476052D01*
X2689257Y17481080D01*
X2688565Y17486296D01*
X2688071Y17491701D01*
X2687774Y17497293D01*
X2687676Y17503072D01*
X2687676Y17980562D01*
X2687774Y17986337D01*
X2688071Y17991914D01*
X2688565Y17997292D01*
X2689257Y18002472D01*
X2690147Y18007453D01*
X2691235Y18012236D01*
X2692522Y18016820D01*
X2694007Y18021206D01*
X2695690Y18025394D01*
X2697572Y18029383D01*
X2699652Y18033173D01*
X2701932Y18036765D01*
X2704410Y18040159D01*
X2707087Y18043354D01*
X2709963Y18046350D01*
X2713039Y18049148D01*
X2716407Y18051916D01*
X2719846Y18054507D01*
X2723355Y18056919D01*
X2726934Y18059153D01*
X2730582Y18061209D01*
X2734300Y18063086D01*
X2738088Y18064785D01*
X2741945Y18066305D01*
X2745872Y18067646D01*
X2749869Y18068809D01*
X2753934Y18069793D01*
X2758069Y18070598D01*
X2762272Y18071225D01*
X2766545Y18071672D01*
X2770887Y18071941D01*
X2775297Y18072030D01*
X2779703Y18071941D01*
X2784029Y18071672D01*
X2788275Y18071225D01*
X2792442Y18070598D01*
X2796530Y18069793D01*
X2800538Y18068809D01*
X2804467Y18067646D01*
X2808317Y18066305D01*
X2812087Y18064785D01*
X2815777Y18063086D01*
X2819389Y18061209D01*
X2822921Y18059153D01*
X2826373Y18056919D01*
X2829746Y18054507D01*
X2833040Y18051916D01*
X2836255Y18049148D01*
X2839484Y18046350D01*
X2842505Y18043353D01*
X2845318Y18040158D01*
X2847922Y18036764D01*
X2850318Y18033172D01*
X2852506Y18029382D01*
X2854485Y18025393D01*
X2856255Y18021205D01*
X2857818Y18016819D01*
X2859171Y18012235D01*
X2860317Y18007452D01*
X2861254Y18002471D01*
X2861983Y17997292D01*
X2862504Y17991914D01*
X2862816Y17986338D01*
X2862920Y17980564D01*
X2862920Y17934861D01*
X2992464Y17934861D01*
X2992463Y17980562D01*
X2992389Y17987339D01*
X2992166Y17994017D01*
X2991794Y18000597D01*
X2991274Y18007078D01*
X2990605Y18013461D01*
X2989788Y18019744D01*
X2988821Y18025928D01*
X2987706Y18032014D01*
X2986442Y18038000D01*
X2985030Y18043886D01*
X2983468Y18049674D01*
X2981757Y18055361D01*
X2979898Y18060949D01*
X2977889Y18066438D01*
X2975731Y18071827D01*
X2973425Y18077115D01*
X2970999Y18082299D01*
X2968483Y18087374D01*
X2965878Y18092339D01*
X2963183Y18097194D01*
X2960398Y18101940D01*
X2957525Y18106577D01*
X2954561Y18111104D01*
X2951509Y18115522D01*
X2948367Y18119830D01*
X2945136Y18124030D01*
X2941815Y18128121D01*
X2938406Y18132102D01*
X2934908Y18135975D01*
X2931320Y18139739D01*
X2927643Y18143394D01*
X2923878Y18146941D01*
X2919880Y18150225D01*
X2915821Y18153409D01*
X2911703Y18156494D01*
X2907526Y18159479D01*
X2903289Y18162364D01*
X2898992Y18165151D01*
X2894635Y18167837D01*
X2890219Y18170425D01*
X2885744Y18172913D01*
X2881209Y18175302D01*
X2876615Y18177592D01*
X2871961Y18179783D01*
X2867247Y18181874D01*
X2862474Y18183867D01*
X2857642Y18185762D01*
X2852751Y18187557D01*
X2847984Y18189250D01*
X2843207Y18190834D01*
X2838420Y18192310D01*
X2833624Y18193677D01*
X2828819Y18194935D01*
X2824003Y18196085D01*
X2819178Y18197126D01*
X2814342Y18198058D01*
X2809497Y18198881D01*
X2804642Y18199594D01*
X2799777Y18200198D01*
X2794901Y18200693D01*
X2790016Y18201078D01*
X2785120Y18201352D01*
X2780214Y18201517D01*
X2775298Y18201572D01*
X2770377Y18201517D01*
X2765455Y18201352D01*
X2760533Y18201077D01*
X2755610Y18200692D01*
X2750688Y18200197D01*
X2745766Y18199593D01*
X2740843Y18198879D01*
X2735920Y18198057D01*
X2730998Y18197125D01*
X2726075Y18196084D01*
X2721153Y18194934D01*
X2716231Y18193675D01*
X2706386Y18190832D01*
X2696543Y18187555D01*
X2691811Y18185760D01*
X2687137Y18183866D01*
X2682523Y18181873D01*
X2677969Y18179781D01*
X2673474Y18177590D01*
X2669038Y18175300D01*
X2664662Y18172911D01*
X2660345Y18170423D01*
X2656088Y18167836D01*
X2651891Y18165149D01*
X2647753Y18162363D01*
X2643675Y18159478D01*
X2639656Y18156493D01*
X2635697Y18153409D01*
X2631797Y18150224D01*
X2627958Y18146941D01*
X2624039Y18143394D01*
X2620219Y18139739D01*
X2616499Y18135975D01*
X2612879Y18132102D01*
X2609357Y18128120D01*
X2605935Y18124029D01*
X2602613Y18119830D01*
X2599389Y18115521D01*
X2596265Y18111103D01*
X2593240Y18106576D01*
X2590314Y18101939D01*
X2587487Y18097193D01*
X2584760Y18092338D01*
X2582131Y18087373D01*
X2579601Y18082299D01*
X2577171Y18077115D01*
X2574864Y18071827D01*
X2572706Y18066438D01*
X2570698Y18060950D01*
X2568838Y18055362D01*
X2567127Y18049674D01*
X2565566Y18043887D01*
X2564153Y18038000D01*
X2562889Y18032014D01*
X2561774Y18025929D01*
X2560808Y18019745D01*
X2559990Y18013462D01*
X2559321Y18007079D01*
X2558801Y18000598D01*
X2558430Y17994018D01*
X2558207Y17987339D01*
X2558132Y17980562D01*
X2440001Y17980562D01*
X2440001Y18193944D01*
X2310458Y18193944D01*
X2184760Y18193944D01*
X2055217Y18193944D01*
X2055217Y17505614D01*
X2055128Y17499681D01*
X2054860Y17493946D01*
X2054412Y17488410D01*
X2053786Y17483072D01*
X2052980Y17477932D01*
X2051996Y17472990D01*
X2050833Y17468247D01*
X2049492Y17463702D01*
X2047972Y17459356D01*
X2046273Y17455208D01*
X2044396Y17451258D01*
X2042340Y17447507D01*
X2040107Y17443955D01*
X2037694Y17440601D01*
X2035104Y17437445D01*
X2032336Y17434488D01*
X2029434Y17431720D01*
X2026444Y17429130D01*
X2023365Y17426718D01*
X2020197Y17424484D01*
X2016941Y17422428D01*
X2013595Y17420551D01*
X2010161Y17418853D01*
X2006637Y17417333D01*
X2003024Y17415991D01*
X1999321Y17414828D01*
X1995530Y17413844D01*
X1991648Y17413039D01*
X1987677Y17412412D01*
X1983616Y17411964D01*
X1979464Y17411695D01*
X1975223Y17411606D01*
X1970981Y17411695D01*
X1966828Y17411964D01*
X1962764Y17412411D01*
X1958789Y17413038D01*
X1954902Y17413843D01*
X1951105Y17414828D01*
X1947397Y17415990D01*
X1943778Y17417332D01*
X1940248Y17418852D01*
X1936808Y17420551D01*
X1933457Y17422428D01*
X1930196Y17424484D01*
X1927024Y17426717D01*
X1923942Y17429130D01*
X1920950Y17431720D01*
X1918048Y17434488D01*
X1915279Y17437445D01*
X1912689Y17440600D01*
X1910277Y17443954D01*
X1908043Y17447507D01*
X1905988Y17451258D01*
X1904111Y17455207D01*
X1902412Y17459355D01*
X1900892Y17463702D01*
X1899550Y17468247D01*
X1898388Y17472990D01*
X1897403Y17477932D01*
X1896598Y17483072D01*
X1895972Y17488410D01*
X1895524Y17493947D01*
X1895255Y17499682D01*
X1895166Y17505616D01*
X1895166Y18193946D01*
X1765623Y18193946D01*
X1425303Y18193946D01*
X1295760Y18193944D01*
X963104Y18193944D01*
X963005Y18193946D01*
X754708Y18193944D01*
X754708Y17289690D01*
X-805446Y17289690D01*
X-805447Y17289692D01*
X-491108Y17289692D01*
X-361626Y17289694D01*
X-361626Y17642785D01*
X-295585Y17642785D01*
X-286645Y17642879D01*
X-277922Y17643162D01*
X-269416Y17643632D01*
X-261128Y17644292D01*
X-253057Y17645139D01*
X-245205Y17646176D01*
X-237570Y17647400D01*
X-230154Y17648814D01*
X-222955Y17650415D01*
X-215976Y17652206D01*
X-209214Y17654185D01*
X-202672Y17656352D01*
X-196348Y17658708D01*
X-190244Y17661253D01*
X-184358Y17663986D01*
X-178692Y17666908D01*
X-173206Y17670157D01*
X-167860Y17673554D01*
X-162654Y17677100D01*
X-157587Y17680795D01*
X-152660Y17684637D01*
X-147872Y17688629D01*
X-143224Y17692769D01*
X-138715Y17697058D01*
X-134344Y17701496D01*
X-130112Y17706082D01*
X-126019Y17710818D01*
X-122065Y17715702D01*
X-118248Y17720736D01*
X-114570Y17725919D01*
X-111030Y17731252D01*
X-107627Y17736733D01*
X-104833Y17741357D01*
X-102168Y17746020D01*
X-99630Y17750724D01*
X-97220Y17755468D01*
X-94938Y17760251D01*
X-92785Y17765075D01*
X-90761Y17769938D01*
X-88865Y17774840D01*
X-87098Y17779783D01*
X-85461Y17784765D01*
X-83952Y17789787D01*
X-82573Y17794848D01*
X-81324Y17799949D01*
X-80205Y17805089D01*
X-79216Y17810268D01*
X-78357Y17815487D01*
X-76573Y17826262D01*
X-75032Y17837634D01*
X-73731Y17849601D01*
X-72669Y17862163D01*
X-71846Y17875321D01*
X-71259Y17889074D01*
X-70908Y17903422D01*
X-70792Y17918365D01*
X-70988Y17938148D01*
X-71578Y17956857D01*
X-72562Y17974493D01*
X-73942Y17991057D01*
X-75719Y18006550D01*
X-77894Y18020972D01*
X-79131Y18027782D01*
X-80468Y18034324D01*
X-81905Y18040599D01*
X-83443Y18046606D01*
X-85110Y18052589D01*
X-86937Y18058474D01*
X-88923Y18064259D01*
X-91069Y18069946D01*
X-93374Y18075533D01*
X-95839Y18081022D01*
X-98462Y18086411D01*
X-101245Y18091701D01*
X-104186Y18096892D01*
X-107285Y18101984D01*
X-110544Y18106977D01*
X-113960Y18111870D01*
X-117535Y18116663D01*
X-121268Y18121357D01*
X-125158Y18125952D01*
X-129207Y18130447D01*
X-133364Y18134807D01*
X-137582Y18139000D01*
X-141859Y18143024D01*
X-146195Y18146880D01*
X-150591Y18150567D01*
X-155047Y18154085D01*
X-159563Y18157435D01*
X-164137Y18160617D01*
X-168772Y18163629D01*
X-173466Y18166473D01*
X-178219Y18169148D01*
X-183032Y18171655D01*
X-187904Y18173992D01*
X-192836Y18176161D01*
X-197827Y18178161D01*
X-202877Y18179991D01*
X-208006Y18181683D01*
X-213234Y18183265D01*
X-223985Y18186101D01*
X-235132Y18188500D01*
X-246676Y18190461D01*
X-258616Y18191986D01*
X-270953Y18193074D01*
X-283689Y18193727D01*
X-296824Y18193944D01*
X-491107Y18193944D01*
X-491108Y17289692D01*
X29543Y17289692D01*
X159085Y17289694D01*
X159085Y18193944D01*
X284845Y18193944D01*
X284846Y17289694D01*
X670930Y17289692D01*
X670930Y17419234D01*
X414387Y17419234D01*
X414387Y17684643D01*
X637878Y17684643D01*
X637879Y17806560D01*
X414387Y17806559D01*
X414388Y18072032D01*
X670930Y18072030D01*
X670930Y18193944D01*
X670930Y18193946D01*
X284845Y18193944D01*
X159085Y18193944D01*
X29544Y18193944D01*
X29543Y17289692D01*
X-491108Y17289692D01*
X-805447Y17289692D01*
X-898400Y17450424D01*
X-1097553Y17795425D01*
X-1211807Y17994454D01*
X-1240857Y18044884D01*
X-1280172Y18111912D01*
X-1368945Y18260794D01*
X-1389692Y18295688D01*
X-1409047Y18329197D01*
X-1426586Y18360518D01*
X-1441887Y18388851D01*
X-1454527Y18413393D01*
X-1459718Y18423991D01*
X-1464085Y18433342D01*
X-1467575Y18441344D01*
X-1470135Y18447897D01*
X-1471714Y18452901D01*
X-1472257Y18456255D01*
X-1276406Y18468297D01*
X-631385Y18477863D01*
X2350456Y18492904D01*
X4375351Y18500517D01*
X5046469Y18504326D01*
X5529110Y18508591D01*
X5852579Y18513650D01*
X5963782Y18516584D01*
X6046182Y18519844D01*
X6103442Y18523472D01*
X6139225Y18527511D01*
X6150207Y18529698D01*
X6157195Y18532004D01*
X6160644Y18534433D01*
X6161014Y18536992D01*
X6156095Y18547551D01*
X6146755Y18565532D01*
X6116987Y18619860D01*
X6076056Y18692178D01*
X6028310Y18774685D01*
X5867845Y19049728D01*
X5822615Y19128161D01*
X5783238Y19197358D01*
X5773905Y19213703D01*
X5764569Y19229785D01*
X5755481Y19245191D01*
X5746889Y19259510D01*
X5739043Y19272331D01*
X5732191Y19283243D01*
X5726583Y19291834D01*
X5722468Y19297693D01*
X5717958Y19304304D01*
X5711218Y19315055D01*
X5692364Y19346726D01*
X5668532Y19388203D01*
X5642349Y19434987D01*
X5540934Y19613262D01*
X5387294Y19878681D01*
X4945708Y20639253D01*
X4751266Y20973051D01*
X4678662Y21096324D01*
X4636021Y21167408D01*
X4608991Y21211818D01*
X4578890Y21262468D01*
X4549388Y21313119D01*
X4524153Y21357534D01*
X4442145Y21501274D01*
X4319452Y21713359D01*
X4288984Y21766093D01*
X4260556Y21815968D01*
X4234790Y21861846D01*
X4212311Y21902586D01*
X4193740Y21937047D01*
X4179701Y21964089D01*
X4170816Y21982573D01*
X4168501Y21988249D01*
X4167708Y21991357D01*
X4168483Y21994471D01*
X4170768Y22000162D01*
X4179560Y22018704D01*
X4211872Y22080422D01*
X4259713Y22167355D01*
X4318149Y22270348D01*
X4728420Y22988009D01*
X4781037Y23079599D01*
X4830976Y23165050D01*
X4877080Y23242490D01*
X4918197Y23310048D01*
X4953172Y23365853D01*
X4980851Y23408035D01*
X4991594Y23423432D01*
X5000080Y23434722D01*
X5006164Y23441670D01*
X5008261Y23443443D01*
X5009704Y23444043D01*
X5012846Y23442406D01*
G36*
X5012846Y23442406D02*
G01*
X5017764Y23437590D01*
X5032511Y23419067D01*
X5053105Y23389774D01*
X5078707Y23351011D01*
X5108477Y23304075D01*
X5141577Y23250266D01*
X5177166Y23190883D01*
X5214406Y23127224D01*
X5354824Y22884776D01*
X5435167Y22746907D01*
X5748883Y22208213D01*
X6344567Y21183531D01*
X6989615Y20074389D01*
X7545860Y19118416D01*
X8013429Y18315612D01*
X8290186Y17840294D01*
X8370119Y17702936D01*
X8572340Y17355176D01*
X8604943Y17298663D01*
X8635359Y17245075D01*
X8662924Y17195647D01*
X8686972Y17151613D01*
X8706838Y17114209D01*
X8721855Y17084667D01*
X8727338Y17073230D01*
X8731360Y17064222D01*
X8733836Y17057797D01*
X8734685Y17054109D01*
X8456384Y17043365D01*
X7601951Y17033713D01*
X4047964Y17016777D01*
X-638757Y17001459D01*
X-805446Y17289690D01*
X754708Y17289690D01*
X884251Y17289692D01*
X884250Y17675776D01*
X961766Y17675776D01*
X1082378Y17289690D01*
X1219548Y17289692D01*
X1079835Y17702439D01*
X1087465Y17706810D01*
X1094798Y17711349D01*
X1101834Y17716057D01*
X1108572Y17720934D01*
X1115013Y17725979D01*
X1121157Y17731192D01*
X1127003Y17736575D01*
X1132551Y17742126D01*
X1137802Y17747845D01*
X1142755Y17753734D01*
X1147410Y17759791D01*
X1151768Y17766016D01*
X1155827Y17772411D01*
X1159589Y17778974D01*
X1163052Y17785705D01*
X1166218Y17792606D01*
X1169293Y17799685D01*
X1172169Y17806954D01*
X1174846Y17814412D01*
X1177324Y17822059D01*
X1179604Y17829895D01*
X1181684Y17837920D01*
X1183566Y17846134D01*
X1185249Y17854537D01*
X1186734Y17863128D01*
X1188020Y17871908D01*
X1189109Y17880876D01*
X1189999Y17890032D01*
X1190691Y17899376D01*
X1191185Y17908908D01*
X1191482Y17918628D01*
X1191580Y17928536D01*
X1191357Y17944866D01*
X1190688Y17960678D01*
X1189572Y17975971D01*
X1188010Y17990745D01*
X1186001Y18005001D01*
X1183546Y18018739D01*
X1180645Y18031958D01*
X1177297Y18044658D01*
X1173502Y18056840D01*
X1169262Y18068504D01*
X1164575Y18079649D01*
X1159441Y18090275D01*
X1153861Y18100384D01*
X1147835Y18109973D01*
X1141362Y18119045D01*
X1134443Y18127598D01*
X1127077Y18135632D01*
X1119265Y18143148D01*
X1111006Y18150146D01*
X1102300Y18156625D01*
X1093148Y18162586D01*
X1083550Y18168029D01*
X1073505Y18172953D01*
X1063014Y18177359D01*
X1052076Y18181246D01*
X1040691Y18184615D01*
X1028860Y18187466D01*
X1016582Y18189799D01*
X1003858Y18191613D01*
X990687Y18192909D01*
X977069Y18193686D01*
X963104Y18193944D01*
X1295760Y18193944D01*
X1295761Y17289692D01*
X1681845Y17289692D01*
X1681845Y17419234D01*
X1425303Y17419232D01*
X1425303Y17492903D01*
X1425303Y18193946D01*
X1765623Y18193946D01*
X1765623Y17492903D01*
X1765688Y17487372D01*
X1765883Y17481890D01*
X1766208Y17476459D01*
X1766662Y17471077D01*
X1767246Y17465745D01*
X1767959Y17460463D01*
X1768802Y17455230D01*
X1769774Y17450047D01*
X1770875Y17444913D01*
X1772104Y17439829D01*
X1773462Y17434795D01*
X1774949Y17429810D01*
X1776565Y17424875D01*
X1778308Y17419989D01*
X1780180Y17415153D01*
X1782180Y17410366D01*
X1784293Y17405792D01*
X1786505Y17401277D01*
X1788816Y17396822D01*
X1791226Y17392426D01*
X1793735Y17388090D01*
X1796343Y17383814D01*
X1799050Y17379597D01*
X1801857Y17375439D01*
X1804762Y17371341D01*
X1807767Y17367303D01*
X1810871Y17363324D01*
X1814074Y17359405D01*
X1817377Y17355545D01*
X1820780Y17351745D01*
X1824281Y17348005D01*
X1827883Y17344323D01*
X1831564Y17340721D01*
X1835305Y17337217D01*
X1839105Y17333811D01*
X1842964Y17330504D01*
X1846884Y17327296D01*
X1850863Y17324187D01*
X1854901Y17321176D01*
X1858999Y17318265D01*
X1863157Y17315453D01*
X1867374Y17312740D01*
X1871650Y17310127D01*
X1875986Y17307614D01*
X1880382Y17305200D01*
X1884837Y17302886D01*
X1889351Y17300672D01*
X1893925Y17298558D01*
X1898708Y17296559D01*
X1903531Y17294689D01*
X1908393Y17292949D01*
X1913296Y17291338D01*
X1918238Y17289855D01*
X1923221Y17288503D01*
X1928243Y17287279D01*
X1933304Y17286184D01*
X1938406Y17285218D01*
X1943547Y17284381D01*
X1948728Y17283673D01*
X1953948Y17283094D01*
X1959208Y17282644D01*
X1964507Y17282322D01*
X1969845Y17282130D01*
X1975223Y17282066D01*
X1980600Y17282130D01*
X1985937Y17282322D01*
X1991233Y17282644D01*
X1996488Y17283094D01*
X2001704Y17283673D01*
X2006879Y17284381D01*
X2012015Y17285218D01*
X2017111Y17286184D01*
X2022167Y17287279D01*
X2027183Y17288503D01*
X2031566Y17289694D01*
X2032160Y17289855D01*
X2037098Y17291338D01*
X2041996Y17292949D01*
X2046856Y17294689D01*
X2051676Y17296559D01*
X2056458Y17298558D01*
X2061186Y17300672D01*
X2065845Y17302885D01*
X2070436Y17305199D01*
X2074958Y17307613D01*
X2079410Y17310126D01*
X2083794Y17312739D01*
X2088108Y17315452D01*
X2092353Y17318264D01*
X2096528Y17321175D01*
X2100634Y17324186D01*
X2104671Y17327295D01*
X2108637Y17330503D01*
X2112534Y17333810D01*
X2116360Y17337216D01*
X2120117Y17340720D01*
X2123803Y17344322D01*
X2127400Y17348003D01*
X2130888Y17351744D01*
X2134267Y17355544D01*
X2137537Y17359404D01*
X2140698Y17363324D01*
X2143750Y17367303D01*
X2146693Y17371342D01*
X2149526Y17375440D01*
X2152251Y17379597D01*
X2154867Y17383814D01*
X2157373Y17388091D01*
X2159770Y17392427D01*
X2162058Y17396823D01*
X2164236Y17401278D01*
X2166305Y17405792D01*
X2168265Y17410366D01*
X2170264Y17415153D01*
X2172134Y17419990D01*
X2173875Y17424876D01*
X2175486Y17429811D01*
X2176968Y17434796D01*
X2178322Y17439830D01*
X2179546Y17444914D01*
X2180641Y17450047D01*
X2181607Y17455230D01*
X2182444Y17460463D01*
X2183152Y17465745D01*
X2183731Y17471076D01*
X2184181Y17476458D01*
X2184503Y17481889D01*
X2184696Y17487370D01*
X2184760Y17492901D01*
X2184760Y18193944D01*
X2310458Y18193944D01*
X2310458Y17289694D01*
X2440000Y17289692D01*
X2440001Y17980562D01*
X2558132Y17980562D01*
X2558133Y17503072D01*
X2558207Y17495993D01*
X2558430Y17489043D01*
X2558802Y17482222D01*
X2559322Y17475530D01*
X2559991Y17468966D01*
X2560808Y17462532D01*
X2561774Y17456226D01*
X2562889Y17450050D01*
X2564153Y17444002D01*
X2565566Y17438083D01*
X2567128Y17432294D01*
X2568838Y17426633D01*
X2570698Y17421101D01*
X2572706Y17415698D01*
X2574864Y17410424D01*
X2577171Y17405279D01*
X2579601Y17400253D01*
X2582131Y17395336D01*
X2584760Y17390527D01*
X2587487Y17385827D01*
X2590314Y17381236D01*
X2593240Y17376753D01*
X2596265Y17372379D01*
X2599389Y17368115D01*
X2602613Y17363959D01*
X2605935Y17359913D01*
X2609357Y17355976D01*
X2612879Y17352149D01*
X2616499Y17348431D01*
X2620219Y17344823D01*
X2624039Y17341324D01*
X2627958Y17337935D01*
X2631797Y17334498D01*
X2635697Y17331171D01*
X2639656Y17327954D01*
X2643675Y17324847D01*
X2647753Y17321850D01*
X2651891Y17318962D01*
X2656088Y17316184D01*
X2660345Y17313515D01*
X2664662Y17310955D01*
X2669038Y17308504D01*
X2673474Y17306162D01*
X2677969Y17303929D01*
X2682523Y17301805D01*
X2687137Y17299788D01*
X2691811Y17297881D01*
X2696543Y17296081D01*
X2706386Y17292804D01*
X2716230Y17289961D01*
X2721152Y17288703D01*
X2726075Y17287553D01*
X2730997Y17286512D01*
X2735920Y17285580D01*
X2740843Y17284757D01*
X2745765Y17284044D01*
X2750688Y17283440D01*
X2755610Y17282945D01*
X2760532Y17282560D01*
X2765454Y17282285D01*
X2770376Y17282119D01*
X2775297Y17282064D01*
X2780213Y17282119D01*
X2785119Y17282284D01*
X2790015Y17282559D01*
X2794900Y17282944D01*
X2799776Y17283439D01*
X2804641Y17284043D01*
X2809496Y17284756D01*
X2814342Y17285579D01*
X2819177Y17286511D01*
X2824002Y17287552D01*
X2828818Y17288702D01*
X2832593Y17289690D01*
X3110595Y17289690D01*
X3240138Y17289692D01*
X3240138Y17495444D01*
X3594472Y17495444D01*
X3594546Y17487750D01*
X3594769Y17480224D01*
X3595141Y17472867D01*
X3595661Y17465678D01*
X3596330Y17458658D01*
X3597148Y17451807D01*
X3598114Y17445123D01*
X3599230Y17438609D01*
X3600494Y17432263D01*
X3601906Y17426086D01*
X3603468Y17420078D01*
X3605178Y17414238D01*
X3607038Y17408568D01*
X3609046Y17403066D01*
X3611204Y17397732D01*
X3613510Y17392568D01*
X3616089Y17387702D01*
X3618748Y17382945D01*
X3621486Y17378298D01*
X3624303Y17373761D01*
X3627199Y17369333D01*
X3630175Y17365015D01*
X3633230Y17360806D01*
X3636364Y17356706D01*
X3639578Y17352715D01*
X3642871Y17348833D01*
X3646243Y17345060D01*
X3649695Y17341396D01*
X3653227Y17337841D01*
X3656837Y17334395D01*
X3660528Y17331057D01*
X3664298Y17327828D01*
X3668138Y17324712D01*
X3672037Y17321714D01*
X3675996Y17318835D01*
X3680015Y17316075D01*
X3684093Y17313433D01*
X3688231Y17310910D01*
X3692429Y17308506D01*
X3696686Y17306221D01*
X3701002Y17304055D01*
X3705378Y17302009D01*
X3709814Y17300081D01*
X3714309Y17298273D01*
X3718864Y17296584D01*
X3723477Y17295015D01*
X3728151Y17293565D01*
X3732884Y17292235D01*
X3742388Y17289854D01*
X3751851Y17287789D01*
X3761273Y17286041D01*
X3770656Y17284611D01*
X3779998Y17283497D01*
X3789302Y17282702D01*
X3798567Y17282224D01*
X3807793Y17282064D01*
X3813166Y17282128D01*
X3818488Y17282321D01*
X3823761Y17282643D01*
X3828984Y17283093D01*
X3834157Y17283673D01*
X3839280Y17284381D01*
X3844354Y17285218D01*
X3849378Y17286184D01*
X3854352Y17287279D01*
X3859277Y17288503D01*
X3864153Y17289856D01*
X3868979Y17291338D01*
X3873755Y17292950D01*
X3878482Y17294691D01*
X3883160Y17296561D01*
X3887788Y17298560D01*
X3892511Y17300827D01*
X3897155Y17303184D01*
X3901719Y17305630D01*
X3906204Y17308166D01*
X3910609Y17310791D01*
X3914936Y17313506D01*
X3919182Y17316310D01*
X3923350Y17319204D01*
X3927438Y17322187D01*
X3931446Y17325259D01*
X3935376Y17328420D01*
X3939226Y17331670D01*
X3942996Y17335010D01*
X3946687Y17338439D01*
X3950299Y17341956D01*
X3953831Y17345563D01*
X3957274Y17349244D01*
X3960619Y17352985D01*
X3963866Y17356786D01*
X3967014Y17360645D01*
X3970063Y17364565D01*
X3973014Y17368543D01*
X3975865Y17372582D01*
X3978617Y17376680D01*
X3981270Y17380837D01*
X3983824Y17385054D01*
X3986278Y17389330D01*
X3988633Y17393666D01*
X3990888Y17398062D01*
X3993043Y17402517D01*
X3995099Y17407031D01*
X3997054Y17411606D01*
X3999053Y17416383D01*
X4000922Y17421190D01*
X4002663Y17426026D01*
X4004274Y17430892D01*
X4005756Y17435787D01*
X4007109Y17440712D01*
X4008333Y17445666D01*
X4009428Y17450651D01*
X4010394Y17455665D01*
X4011231Y17460709D01*
X4011939Y17465783D01*
X4012518Y17470886D01*
X4012968Y17476020D01*
X4013290Y17481183D01*
X4013483Y17486377D01*
X4013547Y17491601D01*
X4013549Y17547536D01*
X3884005Y17547534D01*
X3884005Y17503072D01*
X3883975Y17499773D01*
X3883886Y17496543D01*
X3883737Y17493383D01*
X3883528Y17490291D01*
X3883260Y17487269D01*
X3882932Y17484317D01*
X3882544Y17481433D01*
X3882097Y17478619D01*
X3881590Y17475875D01*
X3881024Y17473200D01*
X3880398Y17470594D01*
X3879713Y17468059D01*
X3878968Y17465592D01*
X3878164Y17463195D01*
X3877301Y17460868D01*
X3876378Y17458611D01*
X3875411Y17456418D01*
X3874414Y17454284D01*
X3873388Y17452209D01*
X3872332Y17450193D01*
X3871246Y17448236D01*
X3870131Y17446339D01*
X3868986Y17444501D01*
X3867812Y17442722D01*
X3866607Y17441003D01*
X3865373Y17439344D01*
X3864109Y17437744D01*
X3862815Y17436204D01*
X3861492Y17434724D01*
X3860138Y17433305D01*
X3858754Y17431945D01*
X3857341Y17430645D01*
X3855743Y17429395D01*
X3854124Y17428186D01*
X3852486Y17427018D01*
X3850827Y17425890D01*
X3849148Y17424802D01*
X3847449Y17423754D01*
X3845730Y17422746D01*
X3843992Y17421778D01*
X3842233Y17420850D01*
X3840455Y17419961D01*
X3838656Y17419112D01*
X3836839Y17418302D01*
X3835001Y17417530D01*
X3833145Y17416798D01*
X3831269Y17416105D01*
X3829373Y17415451D01*
X3825901Y17414556D01*
X3822468Y17413778D01*
X3819076Y17413117D01*
X3815723Y17412575D01*
X3812410Y17412152D01*
X3809137Y17411849D01*
X3805904Y17411667D01*
X3802709Y17411606D01*
X3797257Y17411710D01*
X3792015Y17412022D01*
X3786981Y17412543D01*
X3782156Y17413272D01*
X3777539Y17414209D01*
X3773132Y17415354D01*
X3771006Y17416005D01*
X3768933Y17416708D01*
X3766911Y17417463D01*
X3764942Y17418270D01*
X3763025Y17419129D01*
X3761160Y17420041D01*
X3759347Y17421004D01*
X3757586Y17422020D01*
X3755877Y17423087D01*
X3754220Y17424207D01*
X3752615Y17425379D01*
X3751062Y17426602D01*
X3749561Y17427878D01*
X3748112Y17429207D01*
X3746715Y17430587D01*
X3745371Y17432019D01*
X3744078Y17433503D01*
X3742836Y17435040D01*
X3741647Y17436629D01*
X3740510Y17438269D01*
X3738511Y17441653D01*
X3736641Y17445136D01*
X3734901Y17448719D01*
X3733290Y17452400D01*
X3731807Y17456181D01*
X3730454Y17460061D01*
X3729230Y17464040D01*
X3728136Y17468118D01*
X3727170Y17472295D01*
X3726333Y17476571D01*
X3725624Y17480947D01*
X3725045Y17485422D01*
X3724594Y17489995D01*
X3724273Y17494668D01*
X3724080Y17499441D01*
X3724015Y17504312D01*
X3724016Y17966609D01*
X3724075Y17972260D01*
X3724252Y17977781D01*
X3724547Y17983173D01*
X3724961Y17988435D01*
X3725493Y17993568D01*
X3726144Y17998572D01*
X3726913Y18003447D01*
X3727802Y18008193D01*
X3728810Y18012810D01*
X3729936Y18017297D01*
X3731183Y18021656D01*
X3732548Y18025887D01*
X3734034Y18029988D01*
X3735639Y18033961D01*
X3737363Y18037806D01*
X3739208Y18041521D01*
X3741396Y18045213D01*
X3743833Y18048666D01*
X3746519Y18051882D01*
X3749453Y18054861D01*
X3752635Y18057601D01*
X3756066Y18060104D01*
X3759745Y18062369D01*
X3763672Y18064396D01*
X3767847Y18066184D01*
X3772270Y18067735D01*
X3776941Y18069047D01*
X3781859Y18070121D01*
X3787026Y18070956D01*
X3792440Y18071553D01*
X3798101Y18071911D01*
X3804010Y18072030D01*
X3808555Y18071921D01*
X3812980Y18071593D01*
X3817286Y18071046D01*
X3821472Y18070280D01*
X3825540Y18069296D01*
X3829489Y18068093D01*
X3833318Y18066672D01*
X3837028Y18065032D01*
X3840620Y18063174D01*
X3844092Y18061098D01*
X3847445Y18058804D01*
X3850679Y18056291D01*
X3853795Y18053561D01*
X3856791Y18050613D01*
X3859668Y18047447D01*
X3862426Y18044063D01*
X3865040Y18040531D01*
X3867486Y18036919D01*
X3869762Y18033228D01*
X3871870Y18029458D01*
X3873809Y18025608D01*
X3875579Y18021679D01*
X3877180Y18017670D01*
X3878613Y18013582D01*
X3879877Y18009415D01*
X3880972Y18005168D01*
X3881899Y18000842D01*
X3882657Y17996436D01*
X3883247Y17991951D01*
X3883668Y17987387D01*
X3883921Y17982743D01*
X3884005Y17978020D01*
X3884005Y17934859D01*
X4013548Y17934861D01*
X4013549Y17980564D01*
X4111340Y17980564D01*
X4111341Y17503072D01*
X4111415Y17495993D01*
X4111638Y17489043D01*
X4112009Y17482222D01*
X4112529Y17475530D01*
X4113198Y17468966D01*
X4114015Y17462532D01*
X4114981Y17456226D01*
X4116097Y17450050D01*
X4117360Y17444002D01*
X4118773Y17438084D01*
X4120335Y17432294D01*
X4122045Y17426634D01*
X4123905Y17421102D01*
X4125913Y17415699D01*
X4128071Y17410426D01*
X4130377Y17405281D01*
X4132808Y17400255D01*
X4135338Y17395338D01*
X4137967Y17390529D01*
X4140695Y17385829D01*
X4143522Y17381237D01*
X4146448Y17376755D01*
X4149473Y17372381D01*
X4152597Y17368116D01*
X4155820Y17363960D01*
X4159143Y17359913D01*
X4162565Y17355976D01*
X4166086Y17352149D01*
X4169707Y17348431D01*
X4173427Y17344822D01*
X4177246Y17341324D01*
X4181165Y17337935D01*
X4185005Y17334498D01*
X4188905Y17331171D01*
X4192864Y17327954D01*
X4196882Y17324847D01*
X4200961Y17321849D01*
X4205099Y17318962D01*
X4209296Y17316183D01*
X4213553Y17313514D01*
X4217870Y17310954D01*
X4222246Y17308504D01*
X4226681Y17306162D01*
X4231176Y17303928D01*
X4235730Y17301804D01*
X4240344Y17299788D01*
X4245018Y17297880D01*
X4249750Y17296081D01*
X4259594Y17292804D01*
X4269438Y17289960D01*
X4274360Y17288702D01*
X4279283Y17287552D01*
X4284206Y17286511D01*
X4289128Y17285579D01*
X4294051Y17284756D01*
X4298974Y17284043D01*
X4303896Y17283439D01*
X4308819Y17282945D01*
X4313741Y17282560D01*
X4318663Y17282285D01*
X4323585Y17282121D01*
X4328507Y17282066D01*
X4333423Y17282121D01*
X4338328Y17282285D01*
X4343224Y17282560D01*
X4348109Y17282945D01*
X4352984Y17283439D01*
X4357850Y17284043D01*
X4362705Y17284757D01*
X4367550Y17285579D01*
X4372385Y17286511D01*
X4377210Y17287552D01*
X4382026Y17288701D01*
X4385810Y17289692D01*
X4386831Y17289959D01*
X4391627Y17291326D01*
X4396414Y17292802D01*
X4401190Y17294385D01*
X4405958Y17296077D01*
X4410849Y17297877D01*
X4415682Y17299786D01*
X4420455Y17301803D01*
X4425168Y17303928D01*
X4429822Y17306161D01*
X4434417Y17308503D01*
X4438952Y17310954D01*
X4443427Y17313514D01*
X4447843Y17316183D01*
X4452199Y17318962D01*
X4456496Y17321850D01*
X4460733Y17324847D01*
X4464911Y17327954D01*
X4469029Y17331171D01*
X4473087Y17334498D01*
X4477086Y17337935D01*
X4480851Y17341324D01*
X4484528Y17344822D01*
X4488116Y17348430D01*
X4491614Y17352148D01*
X4495024Y17355976D01*
X4498344Y17359913D01*
X4501575Y17363959D01*
X4504717Y17368115D01*
X4507769Y17372380D01*
X4510733Y17376754D01*
X4513606Y17381237D01*
X4516391Y17385828D01*
X4519085Y17390529D01*
X4521691Y17395338D01*
X4524206Y17400255D01*
X4526632Y17405281D01*
X4528939Y17410426D01*
X4531097Y17415699D01*
X4533106Y17421102D01*
X4534965Y17426634D01*
X4536676Y17432294D01*
X4538238Y17438084D01*
X4539651Y17444002D01*
X4540914Y17450050D01*
X4542030Y17456226D01*
X4542996Y17462531D01*
X4543814Y17468966D01*
X4544482Y17475529D01*
X4545003Y17482221D01*
X4545374Y17489042D01*
X4545597Y17495992D01*
X4545672Y17503070D01*
X4545671Y17980564D01*
X4545596Y17987340D01*
X4545374Y17994019D01*
X4545002Y18000598D01*
X4544482Y18007079D01*
X4543813Y18013461D01*
X4542996Y18019745D01*
X4542029Y18025929D01*
X4540914Y18032014D01*
X4539650Y18038000D01*
X4538237Y18043886D01*
X4536676Y18049674D01*
X4534965Y18055361D01*
X4533106Y18060949D01*
X4531097Y18066438D01*
X4528940Y18071827D01*
X4526633Y18077115D01*
X4524207Y18082299D01*
X4521692Y18087373D01*
X4519086Y18092338D01*
X4516391Y18097193D01*
X4513607Y18101939D01*
X4510733Y18106576D01*
X4507770Y18111103D01*
X4504717Y18115521D01*
X4501575Y18119830D01*
X4498344Y18124029D01*
X4495024Y18128120D01*
X4491614Y18132102D01*
X4488116Y18135975D01*
X4484528Y18139739D01*
X4480851Y18143394D01*
X4477086Y18146941D01*
X4473087Y18150224D01*
X4469029Y18153409D01*
X4464911Y18156493D01*
X4460733Y18159478D01*
X4456496Y18162364D01*
X4452199Y18165150D01*
X4447842Y18167836D01*
X4443427Y18170424D01*
X4438951Y18172912D01*
X4434416Y18175301D01*
X4429822Y18177591D01*
X4425168Y18179782D01*
X4420454Y18181874D01*
X4415682Y18183867D01*
X4410850Y18185762D01*
X4405958Y18187557D01*
X4401191Y18189249D01*
X4396414Y18190833D01*
X4391628Y18192309D01*
X4386832Y18193676D01*
X4385808Y18193944D01*
X4659958Y18193944D01*
X4659958Y17289692D01*
X5046044Y17289692D01*
X5071468Y17289692D01*
X5201011Y17289694D01*
X5239086Y17484037D01*
X5415634Y17484035D01*
X5453708Y17289690D01*
X5583252Y17289692D01*
X5641666Y17289692D01*
X5771208Y17289690D01*
X5771207Y17833285D01*
X5773751Y17833285D01*
X5971878Y17289690D01*
X6093793Y17289692D01*
X6093793Y17503070D01*
X6202996Y17503070D01*
X6203071Y17495992D01*
X6203296Y17489042D01*
X6203670Y17482221D01*
X6204194Y17475529D01*
X6204868Y17468965D01*
X6205690Y17462531D01*
X6206662Y17456226D01*
X6207783Y17450049D01*
X6209053Y17444002D01*
X6210471Y17438083D01*
X6212038Y17432293D01*
X6213753Y17426633D01*
X6215617Y17421101D01*
X6217628Y17415699D01*
X6219788Y17410425D01*
X6222096Y17405281D01*
X6224526Y17400255D01*
X6227055Y17395338D01*
X6229684Y17390529D01*
X6232412Y17385828D01*
X6235238Y17381237D01*
X6238164Y17376754D01*
X6241189Y17372380D01*
X6244314Y17368115D01*
X6247537Y17363960D01*
X6250860Y17359913D01*
X6254282Y17355977D01*
X6257803Y17352149D01*
X6261424Y17348431D01*
X6265144Y17344823D01*
X6268963Y17341325D01*
X6272882Y17337937D01*
X6276722Y17334499D01*
X6280621Y17331172D01*
X6284580Y17327954D01*
X6288599Y17324847D01*
X6292678Y17321850D01*
X6296815Y17318962D01*
X6301013Y17316184D01*
X6305270Y17313515D01*
X6309586Y17310955D01*
X6313962Y17308504D01*
X6318398Y17306162D01*
X6322893Y17303929D01*
X6327447Y17301804D01*
X6332061Y17299788D01*
X6336735Y17297879D01*
X6341467Y17296079D01*
X6351308Y17292803D01*
X6361145Y17289961D01*
X6366063Y17288702D01*
X6370980Y17287552D01*
X6375897Y17286511D01*
X6380814Y17285579D01*
X6385731Y17284756D01*
X6390648Y17284043D01*
X6395565Y17283438D01*
X6400483Y17282944D01*
X6405401Y17282559D01*
X6410320Y17282284D01*
X6415240Y17282119D01*
X6420161Y17282064D01*
X6425077Y17282119D01*
X6429985Y17282285D01*
X6434884Y17282560D01*
X6439773Y17282945D01*
X6444653Y17283439D01*
X6449524Y17284043D01*
X6454385Y17284757D01*
X6459236Y17285579D01*
X6464077Y17286511D01*
X6468908Y17287552D01*
X6473729Y17288702D01*
X6477507Y17289690D01*
X6478540Y17289960D01*
X6483340Y17291328D01*
X6488130Y17292804D01*
X6492909Y17294388D01*
X6497677Y17296081D01*
X6502568Y17297881D01*
X6507400Y17299789D01*
X6512173Y17301805D01*
X6516886Y17303930D01*
X6521540Y17306163D01*
X6526135Y17308505D01*
X6530670Y17310956D01*
X6535145Y17313516D01*
X6539561Y17316184D01*
X6543917Y17318962D01*
X6548214Y17321850D01*
X6552451Y17324847D01*
X6556629Y17327954D01*
X6560747Y17331171D01*
X6564805Y17334498D01*
X6568804Y17337935D01*
X6572569Y17341324D01*
X6576243Y17344823D01*
X6579828Y17348431D01*
X6583322Y17352149D01*
X6586727Y17355977D01*
X6590042Y17359914D01*
X6593267Y17363960D01*
X6596403Y17368116D01*
X6599450Y17372380D01*
X6602407Y17376754D01*
X6605276Y17381236D01*
X6608056Y17385828D01*
X6610747Y17390528D01*
X6613349Y17395336D01*
X6615863Y17400254D01*
X6618288Y17405279D01*
X6620596Y17410424D01*
X6622755Y17415698D01*
X6624767Y17421101D01*
X6626630Y17426632D01*
X6628345Y17432293D01*
X6629912Y17438083D01*
X6631330Y17444002D01*
X6632600Y17450050D01*
X6633720Y17456226D01*
X6634692Y17462532D01*
X6635515Y17468967D01*
X6636188Y17475530D01*
X6636712Y17482222D01*
X6637086Y17489044D01*
X6637311Y17495993D01*
X6637386Y17503072D01*
X6637388Y17787519D01*
X6404968Y17787521D01*
X6404967Y17673232D01*
X6507846Y17673232D01*
X6507846Y17503072D01*
X6507741Y17497293D01*
X6507427Y17491701D01*
X6506903Y17486297D01*
X6506169Y17481081D01*
X6505227Y17476053D01*
X6504077Y17471213D01*
X6502717Y17466561D01*
X6501149Y17462098D01*
X6499373Y17457823D01*
X6497388Y17453737D01*
X6495195Y17449839D01*
X6492795Y17446130D01*
X6490187Y17442611D01*
X6487371Y17439280D01*
X6484348Y17436139D01*
X6481118Y17433186D01*
X6477904Y17430572D01*
X6474610Y17428126D01*
X6471236Y17425850D01*
X6467784Y17423742D01*
X6464252Y17421803D01*
X6460640Y17420033D01*
X6456950Y17418431D01*
X6453179Y17416998D01*
X6449330Y17415734D01*
X6445401Y17414639D01*
X6441393Y17413712D01*
X6437305Y17412953D01*
X6433138Y17412364D01*
X6428892Y17411943D01*
X6424566Y17411690D01*
X6420161Y17411606D01*
X6415751Y17411690D01*
X6411411Y17411943D01*
X6407141Y17412364D01*
X6402941Y17412954D01*
X6398811Y17413713D01*
X6394751Y17414639D01*
X6390760Y17415735D01*
X6386839Y17416999D01*
X6382987Y17418432D01*
X6379205Y17420033D01*
X6375492Y17421803D01*
X6371848Y17423742D01*
X6368273Y17425850D01*
X6364767Y17428127D01*
X6361330Y17430572D01*
X6357962Y17433186D01*
X6354886Y17436139D01*
X6352008Y17439280D01*
X6349328Y17442611D01*
X6346846Y17446130D01*
X6344562Y17449839D01*
X6342477Y17453736D01*
X6340589Y17457822D01*
X6338900Y17462097D01*
X6337410Y17466560D01*
X6336118Y17471212D01*
X6335024Y17476052D01*
X6334130Y17481080D01*
X6333434Y17486296D01*
X6332937Y17491701D01*
X6332638Y17497293D01*
X6332539Y17503072D01*
X6332537Y17980562D01*
X6332637Y17986337D01*
X6332935Y17991913D01*
X6333433Y17997291D01*
X6334129Y18002471D01*
X6335024Y18007452D01*
X6336117Y18012235D01*
X6337410Y18016820D01*
X6338900Y18021206D01*
X6340589Y18025393D01*
X6342477Y18029382D01*
X6344563Y18033173D01*
X6346847Y18036765D01*
X6349329Y18040158D01*
X6352009Y18043353D01*
X6354887Y18046350D01*
X6357963Y18049148D01*
X6361331Y18051916D01*
X6364768Y18054507D01*
X6368274Y18056919D01*
X6371849Y18059153D01*
X6375492Y18061208D01*
X6379205Y18063086D01*
X6382988Y18064784D01*
X6386839Y18066305D01*
X6390760Y18067646D01*
X6394751Y18068809D01*
X6398811Y18069793D01*
X6402941Y18070599D01*
X6407140Y18071225D01*
X6411410Y18071673D01*
X6415749Y18071941D01*
X6420159Y18072030D01*
X6424564Y18071941D01*
X6428891Y18071672D01*
X6433137Y18071225D01*
X6437305Y18070598D01*
X6441392Y18069793D01*
X6445401Y18068808D01*
X6449330Y18067646D01*
X6453179Y18066304D01*
X6456949Y18064784D01*
X6460640Y18063085D01*
X6464252Y18061208D01*
X6467784Y18059152D01*
X6471236Y18056919D01*
X6474610Y18054506D01*
X6477904Y18051916D01*
X6481118Y18049148D01*
X6484348Y18046350D01*
X6487371Y18043353D01*
X6490187Y18040158D01*
X6492795Y18036764D01*
X6495196Y18033172D01*
X6497389Y18029382D01*
X6499373Y18025393D01*
X6501150Y18021205D01*
X6502718Y18016819D01*
X6504077Y18012235D01*
X6505228Y18007452D01*
X6506170Y18002471D01*
X6506903Y17997292D01*
X6507427Y17991914D01*
X6507741Y17986338D01*
X6507846Y17980564D01*
X6507844Y17934859D01*
X6637388Y17934861D01*
X6637388Y17980564D01*
X6637313Y17987340D01*
X6637088Y17994019D01*
X6636714Y18000598D01*
X6636190Y18007079D01*
X6635516Y18013462D01*
X6634693Y18019745D01*
X6633721Y18025929D01*
X6632601Y18032015D01*
X6631331Y18038001D01*
X6629913Y18043887D01*
X6628346Y18049674D01*
X6626630Y18055362D01*
X6624767Y18060950D01*
X6622755Y18066438D01*
X6620596Y18071827D01*
X6618288Y18077115D01*
X6615863Y18082299D01*
X6613349Y18087373D01*
X6610747Y18092338D01*
X6608056Y18097193D01*
X6605276Y18101939D01*
X6602408Y18106575D01*
X6599450Y18111102D01*
X6596404Y18115520D01*
X6593268Y18119829D01*
X6590042Y18124029D01*
X6586727Y18128119D01*
X6583322Y18132101D01*
X6579827Y18135974D01*
X6576242Y18139738D01*
X6572567Y18143394D01*
X6568802Y18146941D01*
X6564803Y18150225D01*
X6560745Y18153409D01*
X6556627Y18156494D01*
X6552450Y18159479D01*
X6548212Y18162365D01*
X6543916Y18165151D01*
X6539559Y18167838D01*
X6535143Y18170425D01*
X6530668Y18172914D01*
X6526133Y18175303D01*
X6521539Y18177592D01*
X6516885Y18179783D01*
X6512172Y18181875D01*
X6507400Y18183868D01*
X6502568Y18185762D01*
X6497677Y18187557D01*
X6492909Y18189249D01*
X6488130Y18190833D01*
X6483340Y18192309D01*
X6478540Y18193676D01*
X6477507Y18193946D01*
X6751675Y18193946D01*
X6751675Y17289690D01*
X7137760Y17289692D01*
X7137760Y17289694D01*
X7137760Y17419232D01*
X6881218Y17419234D01*
X6881217Y17684643D01*
X7104708Y17684643D01*
X7104708Y17806559D01*
X6881217Y17806559D01*
X6881218Y18072030D01*
X7137760Y18072030D01*
X7137760Y18193944D01*
X7221538Y18193944D01*
X7221538Y17289694D01*
X7607623Y17289690D01*
X7607623Y17289692D01*
X7695245Y17289692D01*
X7824788Y17289690D01*
X7824788Y18193944D01*
X7695247Y18193944D01*
X7695245Y17289692D01*
X7607623Y17289692D01*
X7607623Y17419234D01*
X7351080Y17419234D01*
X7351082Y18193944D01*
X7221538Y18193944D01*
X7137760Y18193944D01*
X6751675Y18193946D01*
X6477507Y18193946D01*
X6473729Y18194934D01*
X6468908Y18196084D01*
X6464077Y18197125D01*
X6459236Y18198056D01*
X6454385Y18198879D01*
X6449524Y18199593D01*
X6444653Y18200197D01*
X6439773Y18200692D01*
X6434884Y18201077D01*
X6429985Y18201352D01*
X6425077Y18201518D01*
X6420161Y18201574D01*
X6415240Y18201518D01*
X6410320Y18201353D01*
X6405402Y18201078D01*
X6400483Y18200693D01*
X6395566Y18200198D01*
X6390649Y18199594D01*
X6385732Y18198881D01*
X6380815Y18198058D01*
X6375898Y18197126D01*
X6370981Y18196085D01*
X6366064Y18194935D01*
X6361146Y18193677D01*
X6351308Y18190834D01*
X6341467Y18187557D01*
X6336735Y18185762D01*
X6332062Y18183868D01*
X6327448Y18181875D01*
X6322894Y18179783D01*
X6318399Y18177593D01*
X6313963Y18175303D01*
X6309587Y18172914D01*
X6305270Y18170426D01*
X6301013Y18167838D01*
X6296816Y18165151D01*
X6292678Y18162365D01*
X6288599Y18159480D01*
X6284581Y18156495D01*
X6280621Y18153410D01*
X6276722Y18150226D01*
X6272882Y18146943D01*
X6268963Y18143396D01*
X6265144Y18139740D01*
X6261424Y18135976D01*
X6257803Y18132103D01*
X6254282Y18128121D01*
X6250860Y18124030D01*
X6247538Y18119831D01*
X6244314Y18115522D01*
X6241190Y18111104D01*
X6238165Y18106577D01*
X6235239Y18101940D01*
X6232412Y18097194D01*
X6229685Y18092339D01*
X6227056Y18087374D01*
X6224526Y18082299D01*
X6222096Y18077115D01*
X6219788Y18071827D01*
X6217628Y18066438D01*
X6215617Y18060949D01*
X6213753Y18055361D01*
X6212038Y18049674D01*
X6210471Y18043886D01*
X6209053Y18038000D01*
X6207783Y18032014D01*
X6206662Y18025929D01*
X6205691Y18019745D01*
X6204868Y18013461D01*
X6204195Y18007079D01*
X6203671Y18000598D01*
X6203296Y17994019D01*
X6203072Y17987340D01*
X6202997Y17980564D01*
X6202996Y17503070D01*
X6093793Y17503070D01*
X6093794Y18193944D01*
X5964250Y18193946D01*
X5964251Y17649110D01*
X5961708Y17649110D01*
X5766124Y18193944D01*
X5641666Y18193942D01*
X5641666Y17289692D01*
X5583252Y17289692D01*
X5381341Y18193942D01*
X5381340Y18193944D01*
X5273378Y18193944D01*
X5071468Y17289692D01*
X5046044Y17289692D01*
X5046044Y17419234D01*
X4789500Y17419234D01*
X4789500Y18193944D01*
X4659958Y18193944D01*
X4385808Y18193944D01*
X4382026Y18194934D01*
X4377210Y18196084D01*
X4372385Y18197125D01*
X4367549Y18198057D01*
X4362704Y18198880D01*
X4357849Y18199593D01*
X4352984Y18200197D01*
X4348108Y18200692D01*
X4343223Y18201077D01*
X4338328Y18201352D01*
X4333422Y18201517D01*
X4328506Y18201572D01*
X4323584Y18201517D01*
X4318662Y18201352D01*
X4313740Y18201077D01*
X4308818Y18200692D01*
X4303896Y18200198D01*
X4298973Y18199594D01*
X4294051Y18198880D01*
X4289128Y18198058D01*
X4284205Y18197126D01*
X4279283Y18196085D01*
X4274360Y18194935D01*
X4269438Y18193677D01*
X4259594Y18190834D01*
X4249750Y18187557D01*
X4245018Y18185761D01*
X4240344Y18183867D01*
X4235730Y18181874D01*
X4231176Y18179782D01*
X4226681Y18177591D01*
X4222246Y18175301D01*
X4217870Y18172912D01*
X4213553Y18170424D01*
X4209296Y18167837D01*
X4205099Y18165150D01*
X4200961Y18162364D01*
X4196883Y18159479D01*
X4192864Y18156494D01*
X4188905Y18153409D01*
X4185006Y18150225D01*
X4181166Y18146941D01*
X4177247Y18143394D01*
X4173428Y18139738D01*
X4169707Y18135974D01*
X4166087Y18132101D01*
X4162565Y18128119D01*
X4159143Y18124029D01*
X4155820Y18119829D01*
X4152597Y18115520D01*
X4149472Y18111102D01*
X4146447Y18106575D01*
X4143521Y18101939D01*
X4140694Y18097193D01*
X4137967Y18092338D01*
X4135338Y18087373D01*
X4132808Y18082299D01*
X4130377Y18077115D01*
X4128071Y18071827D01*
X4125913Y18066438D01*
X4123905Y18060950D01*
X4122045Y18055362D01*
X4120335Y18049674D01*
X4118773Y18043887D01*
X4117361Y18038000D01*
X4116097Y18032015D01*
X4114982Y18025930D01*
X4114015Y18019745D01*
X4113198Y18013462D01*
X4112529Y18007080D01*
X4112009Y18000599D01*
X4111637Y17994019D01*
X4111414Y17987341D01*
X4111340Y17980564D01*
X4013549Y17980564D01*
X4013549Y17985647D01*
X4013484Y17991491D01*
X4013291Y17997276D01*
X4012969Y18003003D01*
X4012519Y18008670D01*
X4011939Y18014277D01*
X4011231Y18019826D01*
X4010394Y18025315D01*
X4009428Y18030744D01*
X4008333Y18036114D01*
X4007109Y18041424D01*
X4005756Y18046675D01*
X4004274Y18051866D01*
X4002662Y18056997D01*
X4000922Y18062068D01*
X3999052Y18067079D01*
X3997054Y18072030D01*
X3995099Y18077066D01*
X3993043Y18082011D01*
X3990888Y18086867D01*
X3988633Y18091633D01*
X3986278Y18096309D01*
X3983824Y18100896D01*
X3981270Y18105393D01*
X3978617Y18109801D01*
X3975864Y18114120D01*
X3973013Y18118349D01*
X3970062Y18122489D01*
X3967013Y18126540D01*
X3963865Y18130503D01*
X3960618Y18134376D01*
X3957273Y18138160D01*
X3953830Y18141856D01*
X3946552Y18149084D01*
X3939007Y18155847D01*
X3931195Y18162143D01*
X3923114Y18167974D01*
X3914765Y18173339D01*
X3906149Y18178237D01*
X3897265Y18182670D01*
X3888113Y18186636D01*
X3878693Y18190136D01*
X3869006Y18193170D01*
X3859050Y18195737D01*
X3848826Y18197837D01*
X3838335Y18199471D01*
X3827575Y18200638D01*
X3816547Y18201339D01*
X3805252Y18201572D01*
X3799408Y18201507D01*
X3793624Y18201312D01*
X3787901Y18200987D01*
X3782238Y18200532D01*
X3776635Y18199948D01*
X3771092Y18199235D01*
X3765609Y18198392D01*
X3760185Y18197420D01*
X3754821Y18196320D01*
X3749516Y18195090D01*
X3744271Y18193732D01*
X3739085Y18192245D01*
X3733958Y18190630D01*
X3728889Y18188886D01*
X3723880Y18187014D01*
X3718929Y18185014D01*
X3714207Y18183060D01*
X3709563Y18181007D01*
X3704999Y18178855D01*
X3700514Y18176604D01*
X3696109Y18174254D01*
X3691783Y18171806D01*
X3687536Y18169258D01*
X3683369Y18166611D01*
X3679281Y18163864D01*
X3675272Y18161019D01*
X3671343Y18158074D01*
X3667493Y18155029D01*
X3663723Y18151885D01*
X3660032Y18148642D01*
X3656421Y18145299D01*
X3652889Y18141856D01*
X3649445Y18138324D01*
X3646100Y18134712D01*
X3642853Y18131021D01*
X3639705Y18127251D01*
X3636656Y18123401D01*
X3633706Y18119472D01*
X3630854Y18115463D01*
X3628102Y18111375D01*
X3625449Y18107208D01*
X3622895Y18102961D01*
X3620441Y18098635D01*
X3618086Y18094229D01*
X3615831Y18089744D01*
X3613676Y18085180D01*
X3611621Y18080536D01*
X3609666Y18075813D01*
X3607821Y18071026D01*
X3606096Y18066190D01*
X3604491Y18061304D01*
X3603005Y18056369D01*
X3601639Y18051384D01*
X3600393Y18046349D01*
X3599266Y18041265D01*
X3598259Y18036132D01*
X3597370Y18030948D01*
X3596600Y18025716D01*
X3595949Y18020433D01*
X3595417Y18015101D01*
X3595004Y18009719D01*
X3594708Y18004287D01*
X3594531Y17998806D01*
X3594473Y17993275D01*
X3594472Y17495444D01*
X3240138Y17495444D01*
X3240137Y18193946D01*
X3110596Y18193946D01*
X3110595Y17289690D01*
X2832593Y17289690D01*
X2833624Y17289960D01*
X2838420Y17291327D01*
X2843207Y17292803D01*
X2847983Y17294387D01*
X2852751Y17296079D01*
X2857642Y17297879D01*
X2862474Y17299787D01*
X2867247Y17301804D01*
X2871960Y17303929D01*
X2876614Y17306162D01*
X2881209Y17308504D01*
X2885744Y17310955D01*
X2890219Y17313515D01*
X2894635Y17316184D01*
X2898991Y17318962D01*
X2903288Y17321850D01*
X2907525Y17324848D01*
X2911703Y17327955D01*
X2915821Y17331172D01*
X2919879Y17334499D01*
X2923878Y17337937D01*
X2927644Y17341325D01*
X2931320Y17344823D01*
X2934908Y17348431D01*
X2938406Y17352149D01*
X2941816Y17355977D01*
X2945136Y17359913D01*
X2948367Y17363960D01*
X2951509Y17368115D01*
X2954562Y17372380D01*
X2957525Y17376754D01*
X2960399Y17381237D01*
X2963183Y17385828D01*
X2965878Y17390529D01*
X2968483Y17395338D01*
X2970999Y17400255D01*
X2973425Y17405281D01*
X2975731Y17410425D01*
X2977889Y17415699D01*
X2979898Y17421101D01*
X2981757Y17426633D01*
X2983468Y17432293D01*
X2985030Y17438083D01*
X2986442Y17444002D01*
X2987706Y17450049D01*
X2988821Y17456226D01*
X2989788Y17462531D01*
X2990605Y17468966D01*
X2991274Y17475529D01*
X2991794Y17482222D01*
X2992166Y17489043D01*
X2992389Y17495993D01*
X2992463Y17503072D01*
X2992463Y17787521D01*
X2760044Y17787521D01*
X2760043Y17673234D01*
X2862920Y17673234D01*
X2862920Y17503070D01*
X2862816Y17497291D01*
X2862504Y17491699D01*
X2861984Y17486295D01*
X2861255Y17481079D01*
X2860317Y17476051D01*
X2859172Y17471212D01*
X2857818Y17466560D01*
X2856256Y17462097D01*
X2854485Y17457822D01*
X2852506Y17453736D01*
X2850319Y17449839D01*
X2847923Y17446130D01*
X2845319Y17442611D01*
X2842506Y17439280D01*
X2839485Y17436139D01*
X2836256Y17433186D01*
X2833041Y17430572D01*
X2829747Y17428127D01*
X2826374Y17425851D01*
X2822921Y17423743D01*
X2819389Y17421804D01*
X2815778Y17420034D01*
X2812087Y17418432D01*
X2808317Y17417000D01*
X2804467Y17415735D01*
X2800538Y17414640D01*
X2796530Y17413713D01*
X2792443Y17412954D01*
X2788276Y17412365D01*
X2784029Y17411943D01*
X2779703Y17411690D01*
X2775298Y17411606D01*
X2770887Y17411690D01*
X2766546Y17411943D01*
X2762273Y17412364D01*
X2758069Y17412953D01*
X2753934Y17413712D01*
X2749869Y17414639D01*
X2745872Y17415734D01*
X2741945Y17416998D01*
X2738088Y17418431D01*
X2734300Y17420032D01*
X2730582Y17421802D01*
X2726933Y17423741D01*
X2723354Y17425849D01*
X2719845Y17428125D01*
X2716406Y17430570D01*
X2713038Y17433185D01*
X2709962Y17436137D01*
X2707086Y17439279D01*
X2704409Y17442610D01*
X2701931Y17446129D01*
X2699652Y17449838D01*
X2697572Y17453736D01*
X2695690Y17457822D01*
X2694007Y17462097D01*
X2692522Y17466560D01*
X2691236Y17471212D01*
X2690147Y17476052D01*
X2689257Y17481080D01*
X2688565Y17486296D01*
X2688071Y17491701D01*
X2687774Y17497293D01*
X2687676Y17503072D01*
X2687676Y17980562D01*
X2687774Y17986337D01*
X2688071Y17991914D01*
X2688565Y17997292D01*
X2689257Y18002472D01*
X2690147Y18007453D01*
X2691235Y18012236D01*
X2692522Y18016820D01*
X2694007Y18021206D01*
X2695690Y18025394D01*
X2697572Y18029383D01*
X2699652Y18033173D01*
X2701932Y18036765D01*
X2704410Y18040159D01*
X2707087Y18043354D01*
X2709963Y18046350D01*
X2713039Y18049148D01*
X2716407Y18051916D01*
X2719846Y18054507D01*
X2723355Y18056919D01*
X2726934Y18059153D01*
X2730582Y18061209D01*
X2734300Y18063086D01*
X2738088Y18064785D01*
X2741945Y18066305D01*
X2745872Y18067646D01*
X2749869Y18068809D01*
X2753934Y18069793D01*
X2758069Y18070598D01*
X2762272Y18071225D01*
X2766545Y18071672D01*
X2770887Y18071941D01*
X2775297Y18072030D01*
X2779703Y18071941D01*
X2784029Y18071672D01*
X2788275Y18071225D01*
X2792442Y18070598D01*
X2796530Y18069793D01*
X2800538Y18068809D01*
X2804467Y18067646D01*
X2808317Y18066305D01*
X2812087Y18064785D01*
X2815777Y18063086D01*
X2819389Y18061209D01*
X2822921Y18059153D01*
X2826373Y18056919D01*
X2829746Y18054507D01*
X2833040Y18051916D01*
X2836255Y18049148D01*
X2839484Y18046350D01*
X2842505Y18043353D01*
X2845318Y18040158D01*
X2847922Y18036764D01*
X2850318Y18033172D01*
X2852506Y18029382D01*
X2854485Y18025393D01*
X2856255Y18021205D01*
X2857818Y18016819D01*
X2859171Y18012235D01*
X2860317Y18007452D01*
X2861254Y18002471D01*
X2861983Y17997292D01*
X2862504Y17991914D01*
X2862816Y17986338D01*
X2862920Y17980564D01*
X2862920Y17934861D01*
X2992464Y17934861D01*
X2992463Y17980562D01*
X2992389Y17987339D01*
X2992166Y17994017D01*
X2991794Y18000597D01*
X2991274Y18007078D01*
X2990605Y18013461D01*
X2989788Y18019744D01*
X2988821Y18025928D01*
X2987706Y18032014D01*
X2986442Y18038000D01*
X2985030Y18043886D01*
X2983468Y18049674D01*
X2981757Y18055361D01*
X2979898Y18060949D01*
X2977889Y18066438D01*
X2975731Y18071827D01*
X2973425Y18077115D01*
X2970999Y18082299D01*
X2968483Y18087374D01*
X2965878Y18092339D01*
X2963183Y18097194D01*
X2960398Y18101940D01*
X2957525Y18106577D01*
X2954561Y18111104D01*
X2951509Y18115522D01*
X2948367Y18119830D01*
X2945136Y18124030D01*
X2941815Y18128121D01*
X2938406Y18132102D01*
X2934908Y18135975D01*
X2931320Y18139739D01*
X2927643Y18143394D01*
X2923878Y18146941D01*
X2919880Y18150225D01*
X2915821Y18153409D01*
X2911703Y18156494D01*
X2907526Y18159479D01*
X2903289Y18162364D01*
X2898992Y18165151D01*
X2894635Y18167837D01*
X2890219Y18170425D01*
X2885744Y18172913D01*
X2881209Y18175302D01*
X2876615Y18177592D01*
X2871961Y18179783D01*
X2867247Y18181874D01*
X2862474Y18183867D01*
X2857642Y18185762D01*
X2852751Y18187557D01*
X2847984Y18189250D01*
X2843207Y18190834D01*
X2838420Y18192310D01*
X2833624Y18193677D01*
X2828819Y18194935D01*
X2824003Y18196085D01*
X2819178Y18197126D01*
X2814342Y18198058D01*
X2809497Y18198881D01*
X2804642Y18199594D01*
X2799777Y18200198D01*
X2794901Y18200693D01*
X2790016Y18201078D01*
X2785120Y18201352D01*
X2780214Y18201517D01*
X2775298Y18201572D01*
X2770377Y18201517D01*
X2765455Y18201352D01*
X2760533Y18201077D01*
X2755610Y18200692D01*
X2750688Y18200197D01*
X2745766Y18199593D01*
X2740843Y18198879D01*
X2735920Y18198057D01*
X2730998Y18197125D01*
X2726075Y18196084D01*
X2721153Y18194934D01*
X2716231Y18193675D01*
X2706386Y18190832D01*
X2696543Y18187555D01*
X2691811Y18185760D01*
X2687137Y18183866D01*
X2682523Y18181873D01*
X2677969Y18179781D01*
X2673474Y18177590D01*
X2669038Y18175300D01*
X2664662Y18172911D01*
X2660345Y18170423D01*
X2656088Y18167836D01*
X2651891Y18165149D01*
X2647753Y18162363D01*
X2643675Y18159478D01*
X2639656Y18156493D01*
X2635697Y18153409D01*
X2631797Y18150224D01*
X2627958Y18146941D01*
X2624039Y18143394D01*
X2620219Y18139739D01*
X2616499Y18135975D01*
X2612879Y18132102D01*
X2609357Y18128120D01*
X2605935Y18124029D01*
X2602613Y18119830D01*
X2599389Y18115521D01*
X2596265Y18111103D01*
X2593240Y18106576D01*
X2590314Y18101939D01*
X2587487Y18097193D01*
X2584760Y18092338D01*
X2582131Y18087373D01*
X2579601Y18082299D01*
X2577171Y18077115D01*
X2574864Y18071827D01*
X2572706Y18066438D01*
X2570698Y18060950D01*
X2568838Y18055362D01*
X2567127Y18049674D01*
X2565566Y18043887D01*
X2564153Y18038000D01*
X2562889Y18032014D01*
X2561774Y18025929D01*
X2560808Y18019745D01*
X2559990Y18013462D01*
X2559321Y18007079D01*
X2558801Y18000598D01*
X2558430Y17994018D01*
X2558207Y17987339D01*
X2558132Y17980562D01*
X2440001Y17980562D01*
X2440001Y18193944D01*
X2310458Y18193944D01*
X2184760Y18193944D01*
X2055217Y18193944D01*
X2055217Y17505614D01*
X2055128Y17499681D01*
X2054860Y17493946D01*
X2054412Y17488410D01*
X2053786Y17483072D01*
X2052980Y17477932D01*
X2051996Y17472990D01*
X2050833Y17468247D01*
X2049492Y17463702D01*
X2047972Y17459356D01*
X2046273Y17455208D01*
X2044396Y17451258D01*
X2042340Y17447507D01*
X2040107Y17443955D01*
X2037694Y17440601D01*
X2035104Y17437445D01*
X2032336Y17434488D01*
X2029434Y17431720D01*
X2026444Y17429130D01*
X2023365Y17426718D01*
X2020197Y17424484D01*
X2016941Y17422428D01*
X2013595Y17420551D01*
X2010161Y17418853D01*
X2006637Y17417333D01*
X2003024Y17415991D01*
X1999321Y17414828D01*
X1995530Y17413844D01*
X1991648Y17413039D01*
X1987677Y17412412D01*
X1983616Y17411964D01*
X1979464Y17411695D01*
X1975223Y17411606D01*
X1970981Y17411695D01*
X1966828Y17411964D01*
X1962764Y17412411D01*
X1958789Y17413038D01*
X1954902Y17413843D01*
X1951105Y17414828D01*
X1947397Y17415990D01*
X1943778Y17417332D01*
X1940248Y17418852D01*
X1936808Y17420551D01*
X1933457Y17422428D01*
X1930196Y17424484D01*
X1927024Y17426717D01*
X1923942Y17429130D01*
X1920950Y17431720D01*
X1918048Y17434488D01*
X1915279Y17437445D01*
X1912689Y17440600D01*
X1910277Y17443954D01*
X1908043Y17447507D01*
X1905988Y17451258D01*
X1904111Y17455207D01*
X1902412Y17459355D01*
X1900892Y17463702D01*
X1899550Y17468247D01*
X1898388Y17472990D01*
X1897403Y17477932D01*
X1896598Y17483072D01*
X1895972Y17488410D01*
X1895524Y17493947D01*
X1895255Y17499682D01*
X1895166Y17505616D01*
X1895166Y18193946D01*
X1765623Y18193946D01*
X1425303Y18193946D01*
X1295760Y18193944D01*
X963104Y18193944D01*
X963005Y18193946D01*
X754708Y18193944D01*
X754708Y17289690D01*
X-805446Y17289690D01*
X-805447Y17289692D01*
X-491108Y17289692D01*
X-361626Y17289694D01*
X-361626Y17642785D01*
X-295585Y17642785D01*
X-286645Y17642879D01*
X-277922Y17643162D01*
X-269416Y17643632D01*
X-261128Y17644292D01*
X-253057Y17645139D01*
X-245205Y17646176D01*
X-237570Y17647400D01*
X-230154Y17648814D01*
X-222955Y17650415D01*
X-215976Y17652206D01*
X-209214Y17654185D01*
X-202672Y17656352D01*
X-196348Y17658708D01*
X-190244Y17661253D01*
X-184358Y17663986D01*
X-178692Y17666908D01*
X-173206Y17670157D01*
X-167860Y17673554D01*
X-162654Y17677100D01*
X-157587Y17680795D01*
X-152660Y17684637D01*
X-147872Y17688629D01*
X-143224Y17692769D01*
X-138715Y17697058D01*
X-134344Y17701496D01*
X-130112Y17706082D01*
X-126019Y17710818D01*
X-122065Y17715702D01*
X-118248Y17720736D01*
X-114570Y17725919D01*
X-111030Y17731252D01*
X-107627Y17736733D01*
X-104833Y17741357D01*
X-102168Y17746020D01*
X-99630Y17750724D01*
X-97220Y17755468D01*
X-94938Y17760251D01*
X-92785Y17765075D01*
X-90761Y17769938D01*
X-88865Y17774840D01*
X-87098Y17779783D01*
X-85461Y17784765D01*
X-83952Y17789787D01*
X-82573Y17794848D01*
X-81324Y17799949D01*
X-80205Y17805089D01*
X-79216Y17810268D01*
X-78357Y17815487D01*
X-76573Y17826262D01*
X-75032Y17837634D01*
X-73731Y17849601D01*
X-72669Y17862163D01*
X-71846Y17875321D01*
X-71259Y17889074D01*
X-70908Y17903422D01*
X-70792Y17918365D01*
X-70988Y17938148D01*
X-71578Y17956857D01*
X-72562Y17974493D01*
X-73942Y17991057D01*
X-75719Y18006550D01*
X-77894Y18020972D01*
X-79131Y18027782D01*
X-80468Y18034324D01*
X-81905Y18040599D01*
X-83443Y18046606D01*
X-85110Y18052589D01*
X-86937Y18058474D01*
X-88923Y18064259D01*
X-91069Y18069946D01*
X-93374Y18075533D01*
X-95839Y18081022D01*
X-98462Y18086411D01*
X-101245Y18091701D01*
X-104186Y18096892D01*
X-107285Y18101984D01*
X-110544Y18106977D01*
X-113960Y18111870D01*
X-117535Y18116663D01*
X-121268Y18121357D01*
X-125158Y18125952D01*
X-129207Y18130447D01*
X-133364Y18134807D01*
X-137582Y18139000D01*
X-141859Y18143024D01*
X-146195Y18146880D01*
X-150591Y18150567D01*
X-155047Y18154085D01*
X-159563Y18157435D01*
X-164137Y18160617D01*
X-168772Y18163629D01*
X-173466Y18166473D01*
X-178219Y18169148D01*
X-183032Y18171655D01*
X-187904Y18173992D01*
X-192836Y18176161D01*
X-197827Y18178161D01*
X-202877Y18179991D01*
X-208006Y18181683D01*
X-213234Y18183265D01*
X-223985Y18186101D01*
X-235132Y18188500D01*
X-246676Y18190461D01*
X-258616Y18191986D01*
X-270953Y18193074D01*
X-283689Y18193727D01*
X-296824Y18193944D01*
X-491107Y18193944D01*
X-491108Y17289692D01*
X29543Y17289692D01*
X159085Y17289694D01*
X159085Y18193944D01*
X284845Y18193944D01*
X284846Y17289694D01*
X670930Y17289692D01*
X670930Y17419234D01*
X414387Y17419234D01*
X414387Y17684643D01*
X637878Y17684643D01*
X637879Y17806560D01*
X414387Y17806559D01*
X414388Y18072032D01*
X670930Y18072030D01*
X670930Y18193944D01*
X670930Y18193946D01*
X284845Y18193944D01*
X159085Y18193944D01*
X29544Y18193944D01*
X29543Y17289692D01*
X-491108Y17289692D01*
X-805447Y17289692D01*
X-898400Y17450424D01*
X-1097553Y17795425D01*
X-1211807Y17994454D01*
X-1240857Y18044884D01*
X-1280172Y18111912D01*
X-1368945Y18260794D01*
X-1389692Y18295688D01*
X-1409047Y18329197D01*
X-1426586Y18360518D01*
X-1441887Y18388851D01*
X-1454527Y18413393D01*
X-1459718Y18423991D01*
X-1464085Y18433342D01*
X-1467575Y18441344D01*
X-1470135Y18447897D01*
X-1471714Y18452901D01*
X-1472257Y18456255D01*
X-1276406Y18468297D01*
X-631385Y18477863D01*
X2350456Y18492904D01*
X4375351Y18500517D01*
X5046469Y18504326D01*
X5529110Y18508591D01*
X5852579Y18513650D01*
X5963782Y18516584D01*
X6046182Y18519844D01*
X6103442Y18523472D01*
X6139225Y18527511D01*
X6150207Y18529698D01*
X6157195Y18532004D01*
X6160644Y18534433D01*
X6161014Y18536992D01*
X6156095Y18547551D01*
X6146755Y18565532D01*
X6116987Y18619860D01*
X6076056Y18692178D01*
X6028310Y18774685D01*
X5867845Y19049728D01*
X5822615Y19128161D01*
X5783238Y19197358D01*
X5773905Y19213703D01*
X5764569Y19229785D01*
X5755481Y19245191D01*
X5746889Y19259510D01*
X5739043Y19272331D01*
X5732191Y19283243D01*
X5726583Y19291834D01*
X5722468Y19297693D01*
X5717958Y19304304D01*
X5711218Y19315055D01*
X5692364Y19346726D01*
X5668532Y19388203D01*
X5642349Y19434987D01*
X5540934Y19613262D01*
X5387294Y19878681D01*
X4945708Y20639253D01*
X4751266Y20973051D01*
X4678662Y21096324D01*
X4636021Y21167408D01*
X4608991Y21211818D01*
X4578890Y21262468D01*
X4549388Y21313119D01*
X4524153Y21357534D01*
X4442145Y21501274D01*
X4319452Y21713359D01*
X4288984Y21766093D01*
X4260556Y21815968D01*
X4234790Y21861846D01*
X4212311Y21902586D01*
X4193740Y21937047D01*
X4179701Y21964089D01*
X4170816Y21982573D01*
X4168501Y21988249D01*
X4167708Y21991357D01*
X4168483Y21994471D01*
X4170768Y22000162D01*
X4179560Y22018704D01*
X4211872Y22080422D01*
X4259713Y22167355D01*
X4318149Y22270348D01*
X4728420Y22988009D01*
X4781037Y23079599D01*
X4830976Y23165050D01*
X4877080Y23242490D01*
X4918197Y23310048D01*
X4953172Y23365853D01*
X4980851Y23408035D01*
X4991594Y23423432D01*
X5000080Y23434722D01*
X5006164Y23441670D01*
X5008261Y23443443D01*
X5009704Y23444043D01*
X5012846Y23442406D01*
G37*
X959840Y18071893D02*
X967746Y18071475D01*
X975315Y18070779D01*
X982546Y18069804D01*
X989439Y18068551D01*
X995995Y18067020D01*
X1002213Y18065211D01*
X1005195Y18064202D01*
X1008093Y18063124D01*
X1010907Y18061976D01*
X1013636Y18060759D01*
X1016281Y18059473D01*
X1018842Y18058117D01*
X1021319Y18056691D01*
X1023711Y18055197D01*
X1026019Y18053632D01*
X1028242Y18051999D01*
X1030382Y18050296D01*
X1032437Y18048524D01*
X1034408Y18046682D01*
X1036295Y18044771D01*
X1038098Y18042791D01*
X1039816Y18040742D01*
X1041450Y18038623D01*
X1043000Y18036435D01*
X1044400Y18034024D01*
X1045740Y18031554D01*
X1047020Y18029025D01*
X1048242Y18026437D01*
X1049404Y18023789D01*
X1050506Y18021082D01*
X1051549Y18018315D01*
X1052533Y18015489D01*
X1053457Y18012604D01*
X1054322Y18009658D01*
X1055126Y18006653D01*
X1055872Y18003588D01*
X1056557Y18000464D01*
X1057183Y17997280D01*
X1057749Y17994036D01*
X1058255Y17990732D01*
X1059150Y17984242D01*
X1059928Y17977473D01*
X1060588Y17970424D01*
X1061130Y17963097D01*
X1061553Y17955492D01*
X1061857Y17947609D01*
X1062039Y17939450D01*
X1062100Y17931015D01*
X1062039Y17922562D01*
X1061857Y17914347D01*
X1061553Y17906371D01*
X1061130Y17898632D01*
X1060588Y17891132D01*
X1059928Y17883869D01*
X1059150Y17876845D01*
X1058256Y17870060D01*
X1057755Y17866914D01*
X1057205Y17863829D01*
X1056605Y17860803D01*
X1055956Y17857838D01*
X1055258Y17854932D01*
X1054510Y17852086D01*
X1053713Y17849299D01*
X1052867Y17846572D01*
X1051970Y17843905D01*
X1051024Y17841297D01*
X1050028Y17838749D01*
X1048983Y17836260D01*
X1047888Y17833830D01*
X1046742Y17831460D01*
X1045547Y17829148D01*
X1044302Y17826896D01*
X1042839Y17824704D01*
X1041306Y17822573D01*
X1039704Y17820501D01*
X1038032Y17818489D01*
X1036291Y17816538D01*
X1034480Y17814646D01*
X1032600Y17812814D01*
X1030650Y17811041D01*
X1028631Y17809328D01*
X1026543Y17807675D01*
X1024385Y17806080D01*
X1022157Y17804545D01*
X1019860Y17803069D01*
X1017494Y17801652D01*
X1015058Y17800294D01*
X1012553Y17798995D01*
X1009958Y17797917D01*
X1007254Y17796909D01*
X1004440Y17795969D01*
X1001516Y17795098D01*
X998483Y17794296D01*
X995341Y17793563D01*
X992090Y17792900D01*
X988729Y17792306D01*
X985259Y17791781D01*
X981680Y17791326D01*
X974196Y17790625D01*
X966276Y17790204D01*
X957920Y17790063D01*
X884251Y17790064D01*
X884250Y18072029D01*
X951595Y18072032D01*
X959840Y18071893D01*
G36*
X959840Y18071893D02*
G01*
X967746Y18071475D01*
X975315Y18070779D01*
X982546Y18069804D01*
X989439Y18068551D01*
X995995Y18067020D01*
X1002213Y18065211D01*
X1005195Y18064202D01*
X1008093Y18063124D01*
X1010907Y18061976D01*
X1013636Y18060759D01*
X1016281Y18059473D01*
X1018842Y18058117D01*
X1021319Y18056691D01*
X1023711Y18055197D01*
X1026019Y18053632D01*
X1028242Y18051999D01*
X1030382Y18050296D01*
X1032437Y18048524D01*
X1034408Y18046682D01*
X1036295Y18044771D01*
X1038098Y18042791D01*
X1039816Y18040742D01*
X1041450Y18038623D01*
X1043000Y18036435D01*
X1044400Y18034024D01*
X1045740Y18031554D01*
X1047020Y18029025D01*
X1048242Y18026437D01*
X1049404Y18023789D01*
X1050506Y18021082D01*
X1051549Y18018315D01*
X1052533Y18015489D01*
X1053457Y18012604D01*
X1054322Y18009658D01*
X1055126Y18006653D01*
X1055872Y18003588D01*
X1056557Y18000464D01*
X1057183Y17997280D01*
X1057749Y17994036D01*
X1058255Y17990732D01*
X1059150Y17984242D01*
X1059928Y17977473D01*
X1060588Y17970424D01*
X1061130Y17963097D01*
X1061553Y17955492D01*
X1061857Y17947609D01*
X1062039Y17939450D01*
X1062100Y17931015D01*
X1062039Y17922562D01*
X1061857Y17914347D01*
X1061553Y17906371D01*
X1061130Y17898632D01*
X1060588Y17891132D01*
X1059928Y17883869D01*
X1059150Y17876845D01*
X1058256Y17870060D01*
X1057755Y17866914D01*
X1057205Y17863829D01*
X1056605Y17860803D01*
X1055956Y17857838D01*
X1055258Y17854932D01*
X1054510Y17852086D01*
X1053713Y17849299D01*
X1052867Y17846572D01*
X1051970Y17843905D01*
X1051024Y17841297D01*
X1050028Y17838749D01*
X1048983Y17836260D01*
X1047888Y17833830D01*
X1046742Y17831460D01*
X1045547Y17829148D01*
X1044302Y17826896D01*
X1042839Y17824704D01*
X1041306Y17822573D01*
X1039704Y17820501D01*
X1038032Y17818489D01*
X1036291Y17816538D01*
X1034480Y17814646D01*
X1032600Y17812814D01*
X1030650Y17811041D01*
X1028631Y17809328D01*
X1026543Y17807675D01*
X1024385Y17806080D01*
X1022157Y17804545D01*
X1019860Y17803069D01*
X1017494Y17801652D01*
X1015058Y17800294D01*
X1012553Y17798995D01*
X1009958Y17797917D01*
X1007254Y17796909D01*
X1004440Y17795969D01*
X1001516Y17795098D01*
X998483Y17794296D01*
X995341Y17793563D01*
X992090Y17792900D01*
X988729Y17792306D01*
X985259Y17791781D01*
X981680Y17791326D01*
X974196Y17790625D01*
X966276Y17790204D01*
X957920Y17790063D01*
X884251Y17790064D01*
X884250Y18072029D01*
X951595Y18072032D01*
X959840Y18071893D01*
G37*
X-289590Y18071985D02*
X-285036Y18071849D01*
X-280620Y18071624D01*
X-276344Y18071309D01*
X-272207Y18070904D01*
X-268209Y18070409D01*
X-264350Y18069825D01*
X-260630Y18069151D01*
X-257048Y18068388D01*
X-253606Y18067536D01*
X-250302Y18066595D01*
X-247137Y18065565D01*
X-244112Y18064447D01*
X-241225Y18063239D01*
X-238476Y18061943D01*
X-235867Y18060559D01*
X-233366Y18059091D01*
X-230944Y18057544D01*
X-228601Y18055918D01*
X-226337Y18054213D01*
X-224152Y18052429D01*
X-222046Y18050566D01*
X-220020Y18048624D01*
X-218072Y18046603D01*
X-216204Y18044502D01*
X-214416Y18042322D01*
X-212706Y18040062D01*
X-211077Y18037723D01*
X-209527Y18035304D01*
X-208057Y18032805D01*
X-206667Y18030226D01*
X-205357Y18027567D01*
X-204122Y18024838D01*
X-202957Y18022051D01*
X-201861Y18019204D01*
X-200836Y18016298D01*
X-199880Y18013332D01*
X-198994Y18010307D01*
X-198177Y18007222D01*
X-197430Y18004078D01*
X-196752Y18000875D01*
X-196144Y17997612D01*
X-195605Y17994289D01*
X-195135Y17990906D01*
X-194734Y17987464D01*
X-194403Y17983962D01*
X-193947Y17976779D01*
X-193396Y17962567D01*
X-193010Y17947873D01*
X-192782Y17932703D01*
X-192707Y17917063D01*
X-192747Y17908591D01*
X-192866Y17900320D01*
X-193065Y17892248D01*
X-193343Y17884376D01*
X-193701Y17876703D01*
X-194138Y17869227D01*
X-194654Y17861947D01*
X-195249Y17854864D01*
X-195443Y17851406D01*
X-195705Y17848017D01*
X-196037Y17844698D01*
X-196437Y17841448D01*
X-196907Y17838267D01*
X-197446Y17835155D01*
X-198054Y17832113D01*
X-198732Y17829140D01*
X-199479Y17826237D01*
X-200296Y17823403D01*
X-201183Y17820639D01*
X-202139Y17817944D01*
X-203164Y17815319D01*
X-204260Y17812764D01*
X-205425Y17810278D01*
X-206660Y17807862D01*
X-207974Y17805357D01*
X-209378Y17802921D01*
X-210872Y17800554D01*
X-212454Y17798257D01*
X-214126Y17796030D01*
X-215887Y17793871D01*
X-217738Y17791783D01*
X-219677Y17789763D01*
X-221706Y17787814D01*
X-223825Y17785933D01*
X-226032Y17784123D01*
X-228329Y17782381D01*
X-230715Y17780709D01*
X-233190Y17779107D01*
X-235755Y17777574D01*
X-238409Y17776110D01*
X-241178Y17774726D01*
X-244085Y17773432D01*
X-247131Y17772228D01*
X-250315Y17771113D01*
X-253639Y17770088D01*
X-257102Y17769152D01*
X-260703Y17768305D01*
X-264444Y17767548D01*
X-268323Y17766880D01*
X-272341Y17766301D01*
X-276498Y17765812D01*
X-280794Y17765411D01*
X-285229Y17765100D01*
X-289803Y17764877D01*
X-299368Y17764699D01*
X-361627Y17764701D01*
X-361627Y18072030D01*
X-294283Y18072030D01*
X-289590Y18071985D01*
G36*
X-289590Y18071985D02*
G01*
X-285036Y18071849D01*
X-280620Y18071624D01*
X-276344Y18071309D01*
X-272207Y18070904D01*
X-268209Y18070409D01*
X-264350Y18069825D01*
X-260630Y18069151D01*
X-257048Y18068388D01*
X-253606Y18067536D01*
X-250302Y18066595D01*
X-247137Y18065565D01*
X-244112Y18064447D01*
X-241225Y18063239D01*
X-238476Y18061943D01*
X-235867Y18060559D01*
X-233366Y18059091D01*
X-230944Y18057544D01*
X-228601Y18055918D01*
X-226337Y18054213D01*
X-224152Y18052429D01*
X-222046Y18050566D01*
X-220020Y18048624D01*
X-218072Y18046603D01*
X-216204Y18044502D01*
X-214416Y18042322D01*
X-212706Y18040062D01*
X-211077Y18037723D01*
X-209527Y18035304D01*
X-208057Y18032805D01*
X-206667Y18030226D01*
X-205357Y18027567D01*
X-204122Y18024838D01*
X-202957Y18022051D01*
X-201861Y18019204D01*
X-200836Y18016298D01*
X-199880Y18013332D01*
X-198994Y18010307D01*
X-198177Y18007222D01*
X-197430Y18004078D01*
X-196752Y18000875D01*
X-196144Y17997612D01*
X-195605Y17994289D01*
X-195135Y17990906D01*
X-194734Y17987464D01*
X-194403Y17983962D01*
X-193947Y17976779D01*
X-193396Y17962567D01*
X-193010Y17947873D01*
X-192782Y17932703D01*
X-192707Y17917063D01*
X-192747Y17908591D01*
X-192866Y17900320D01*
X-193065Y17892248D01*
X-193343Y17884376D01*
X-193701Y17876703D01*
X-194138Y17869227D01*
X-194654Y17861947D01*
X-195249Y17854864D01*
X-195443Y17851406D01*
X-195705Y17848017D01*
X-196037Y17844698D01*
X-196437Y17841448D01*
X-196907Y17838267D01*
X-197446Y17835155D01*
X-198054Y17832113D01*
X-198732Y17829140D01*
X-199479Y17826237D01*
X-200296Y17823403D01*
X-201183Y17820639D01*
X-202139Y17817944D01*
X-203164Y17815319D01*
X-204260Y17812764D01*
X-205425Y17810278D01*
X-206660Y17807862D01*
X-207974Y17805357D01*
X-209378Y17802921D01*
X-210872Y17800554D01*
X-212454Y17798257D01*
X-214126Y17796030D01*
X-215887Y17793871D01*
X-217738Y17791783D01*
X-219677Y17789763D01*
X-221706Y17787814D01*
X-223825Y17785933D01*
X-226032Y17784123D01*
X-228329Y17782381D01*
X-230715Y17780709D01*
X-233190Y17779107D01*
X-235755Y17777574D01*
X-238409Y17776110D01*
X-241178Y17774726D01*
X-244085Y17773432D01*
X-247131Y17772228D01*
X-250315Y17771113D01*
X-253639Y17770088D01*
X-257102Y17769152D01*
X-260703Y17768305D01*
X-264444Y17767548D01*
X-268323Y17766880D01*
X-272341Y17766301D01*
X-276498Y17765812D01*
X-280794Y17765411D01*
X-285229Y17765100D01*
X-289803Y17764877D01*
X-299368Y17764699D01*
X-361627Y17764701D01*
X-361627Y18072030D01*
X-294283Y18072030D01*
X-289590Y18071985D01*
G37*
X5391510Y17605950D02*
X5261968Y17605950D01*
X5325468Y17933557D01*
X5328010Y17933559D01*
X5391510Y17605950D01*
G36*
X5391510Y17605950D02*
G01*
X5261968Y17605950D01*
X5325468Y17933557D01*
X5328010Y17933559D01*
X5391510Y17605950D01*
G37*
X4332912Y18071941D02*
X4337237Y18071672D01*
X4341484Y18071225D01*
X4345651Y18070598D01*
X4349738Y18069793D01*
X4353746Y18068808D01*
X4357675Y18067646D01*
X4361524Y18066304D01*
X4365294Y18064784D01*
X4368985Y18063085D01*
X4372596Y18061208D01*
X4376128Y18059152D01*
X4379581Y18056919D01*
X4382954Y18054506D01*
X4386248Y18051916D01*
X4389462Y18049148D01*
X4392692Y18046350D01*
X4395713Y18043353D01*
X4398526Y18040158D01*
X4401130Y18036765D01*
X4403526Y18033173D01*
X4405713Y18029382D01*
X4407692Y18025393D01*
X4409463Y18021205D01*
X4411025Y18016819D01*
X4412379Y18012234D01*
X4413525Y18007451D01*
X4414462Y18002470D01*
X4415191Y17997290D01*
X4415711Y17991913D01*
X4416023Y17986336D01*
X4416127Y17980562D01*
X4416128Y17503072D01*
X4416024Y17497293D01*
X4415712Y17491701D01*
X4415191Y17486296D01*
X4414462Y17481080D01*
X4413525Y17476052D01*
X4412379Y17471212D01*
X4411025Y17466560D01*
X4409463Y17462097D01*
X4407692Y17457822D01*
X4405713Y17453736D01*
X4403526Y17449838D01*
X4401130Y17446129D01*
X4398526Y17442610D01*
X4395713Y17439279D01*
X4392692Y17436137D01*
X4389462Y17433185D01*
X4386248Y17430570D01*
X4382954Y17428125D01*
X4379580Y17425849D01*
X4376128Y17423741D01*
X4372596Y17421802D01*
X4368984Y17420032D01*
X4365294Y17418431D01*
X4361524Y17416998D01*
X4357674Y17415734D01*
X4353745Y17414639D01*
X4349737Y17413712D01*
X4345650Y17412954D01*
X4341483Y17412365D01*
X4337237Y17411944D01*
X4332911Y17411691D01*
X4328506Y17411607D01*
X4324095Y17411691D01*
X4319753Y17411944D01*
X4315481Y17412365D01*
X4311277Y17412954D01*
X4307142Y17413712D01*
X4303076Y17414639D01*
X4299080Y17415734D01*
X4295153Y17416999D01*
X4291296Y17418431D01*
X4287508Y17420033D01*
X4283789Y17421803D01*
X4280141Y17423742D01*
X4276562Y17425850D01*
X4273053Y17428126D01*
X4269614Y17430572D01*
X4266245Y17433186D01*
X4263170Y17436139D01*
X4260294Y17439280D01*
X4257617Y17442611D01*
X4255139Y17446130D01*
X4252860Y17449839D01*
X4250779Y17453736D01*
X4248898Y17457822D01*
X4247214Y17462097D01*
X4245730Y17466560D01*
X4244443Y17471212D01*
X4243355Y17476052D01*
X4242465Y17481080D01*
X4241772Y17486296D01*
X4241278Y17491701D01*
X4240981Y17497293D01*
X4240882Y17503072D01*
X4240882Y17980564D01*
X4240981Y17986338D01*
X4241278Y17991914D01*
X4241772Y17997292D01*
X4242464Y18002471D01*
X4243354Y18007452D01*
X4244443Y18012235D01*
X4245729Y18016819D01*
X4247214Y18021205D01*
X4248897Y18025393D01*
X4250779Y18029382D01*
X4252860Y18033172D01*
X4255139Y18036764D01*
X4257617Y18040158D01*
X4260294Y18043353D01*
X4263171Y18046350D01*
X4266246Y18049148D01*
X4269615Y18051916D01*
X4273054Y18054506D01*
X4276563Y18056919D01*
X4280142Y18059152D01*
X4283790Y18061208D01*
X4287508Y18063085D01*
X4291296Y18064784D01*
X4295153Y18066304D01*
X4299080Y18067646D01*
X4303076Y18068808D01*
X4307142Y18069793D01*
X4311277Y18070598D01*
X4315481Y18071225D01*
X4319754Y18071672D01*
X4324096Y18071941D01*
X4328507Y18072030D01*
X4332912Y18071941D01*
G36*
X4332912Y18071941D02*
G01*
X4337237Y18071672D01*
X4341484Y18071225D01*
X4345651Y18070598D01*
X4349738Y18069793D01*
X4353746Y18068808D01*
X4357675Y18067646D01*
X4361524Y18066304D01*
X4365294Y18064784D01*
X4368985Y18063085D01*
X4372596Y18061208D01*
X4376128Y18059152D01*
X4379581Y18056919D01*
X4382954Y18054506D01*
X4386248Y18051916D01*
X4389462Y18049148D01*
X4392692Y18046350D01*
X4395713Y18043353D01*
X4398526Y18040158D01*
X4401130Y18036765D01*
X4403526Y18033173D01*
X4405713Y18029382D01*
X4407692Y18025393D01*
X4409463Y18021205D01*
X4411025Y18016819D01*
X4412379Y18012234D01*
X4413525Y18007451D01*
X4414462Y18002470D01*
X4415191Y17997290D01*
X4415711Y17991913D01*
X4416023Y17986336D01*
X4416127Y17980562D01*
X4416128Y17503072D01*
X4416024Y17497293D01*
X4415712Y17491701D01*
X4415191Y17486296D01*
X4414462Y17481080D01*
X4413525Y17476052D01*
X4412379Y17471212D01*
X4411025Y17466560D01*
X4409463Y17462097D01*
X4407692Y17457822D01*
X4405713Y17453736D01*
X4403526Y17449838D01*
X4401130Y17446129D01*
X4398526Y17442610D01*
X4395713Y17439279D01*
X4392692Y17436137D01*
X4389462Y17433185D01*
X4386248Y17430570D01*
X4382954Y17428125D01*
X4379580Y17425849D01*
X4376128Y17423741D01*
X4372596Y17421802D01*
X4368984Y17420032D01*
X4365294Y17418431D01*
X4361524Y17416998D01*
X4357674Y17415734D01*
X4353745Y17414639D01*
X4349737Y17413712D01*
X4345650Y17412954D01*
X4341483Y17412365D01*
X4337237Y17411944D01*
X4332911Y17411691D01*
X4328506Y17411607D01*
X4324095Y17411691D01*
X4319753Y17411944D01*
X4315481Y17412365D01*
X4311277Y17412954D01*
X4307142Y17413712D01*
X4303076Y17414639D01*
X4299080Y17415734D01*
X4295153Y17416999D01*
X4291296Y17418431D01*
X4287508Y17420033D01*
X4283789Y17421803D01*
X4280141Y17423742D01*
X4276562Y17425850D01*
X4273053Y17428126D01*
X4269614Y17430572D01*
X4266245Y17433186D01*
X4263170Y17436139D01*
X4260294Y17439280D01*
X4257617Y17442611D01*
X4255139Y17446130D01*
X4252860Y17449839D01*
X4250779Y17453736D01*
X4248898Y17457822D01*
X4247214Y17462097D01*
X4245730Y17466560D01*
X4244443Y17471212D01*
X4243355Y17476052D01*
X4242465Y17481080D01*
X4241772Y17486296D01*
X4241278Y17491701D01*
X4240981Y17497293D01*
X4240882Y17503072D01*
X4240882Y17980564D01*
X4240981Y17986338D01*
X4241278Y17991914D01*
X4241772Y17997292D01*
X4242464Y18002471D01*
X4243354Y18007452D01*
X4244443Y18012235D01*
X4245729Y18016819D01*
X4247214Y18021205D01*
X4248897Y18025393D01*
X4250779Y18029382D01*
X4252860Y18033172D01*
X4255139Y18036764D01*
X4257617Y18040158D01*
X4260294Y18043353D01*
X4263171Y18046350D01*
X4266246Y18049148D01*
X4269615Y18051916D01*
X4273054Y18054506D01*
X4276563Y18056919D01*
X4280142Y18059152D01*
X4283790Y18061208D01*
X4287508Y18063085D01*
X4291296Y18064784D01*
X4295153Y18066304D01*
X4299080Y18067646D01*
X4303076Y18068808D01*
X4307142Y18069793D01*
X4311277Y18070598D01*
X4315481Y18071225D01*
X4319754Y18071672D01*
X4324096Y18071941D01*
X4328507Y18072030D01*
X4332912Y18071941D01*
G37*
X4475161Y26753842D02*
X4554715Y26753397D01*
X4623125Y26752678D01*
X4681163Y26751659D01*
X4729601Y26750313D01*
X4769214Y26748612D01*
X4785952Y26747621D01*
X4800773Y26746530D01*
X4813775Y26745338D01*
X4825052Y26744040D01*
X4834703Y26742634D01*
X4842823Y26741115D01*
X4849510Y26739481D01*
X4854860Y26737728D01*
X4858969Y26735852D01*
X4861934Y26733852D01*
X4863017Y26732803D01*
X4863851Y26731722D01*
X4864448Y26730608D01*
X4864819Y26729460D01*
X4864932Y26727062D01*
X4864287Y26724526D01*
X4859424Y26713935D01*
X4850165Y26695893D01*
X4820624Y26641370D01*
X4779986Y26568785D01*
X4732575Y26485965D01*
X4025268Y25250569D01*
X4016545Y25235226D01*
X4007785Y25220076D01*
X3999223Y25205510D01*
X3991096Y25191919D01*
X3983640Y25179694D01*
X3977091Y25169227D01*
X3971686Y25160908D01*
X3967660Y25155130D01*
X3963193Y25148488D01*
X3956522Y25137689D01*
X3937868Y25105884D01*
X3914297Y25064240D01*
X3888407Y25017281D01*
X3775693Y24816564D01*
X3593852Y24497747D01*
X2680172Y22902001D01*
X2219922Y22101427D01*
X1904282Y21550082D01*
X1586099Y20993403D01*
X1507158Y20855550D01*
X1284722Y20468535D01*
X1213314Y20343354D01*
X1154269Y20237663D01*
X1131301Y20195604D01*
X1113725Y20162592D01*
X1102309Y20140016D01*
X1099150Y20133078D01*
X1097819Y20129270D01*
X1129070Y20124293D01*
X1224259Y20119819D01*
X1604022Y20112416D01*
X3104022Y20104031D01*
X5113945Y20100000D01*
X5303701Y19772579D01*
X5533455Y19376446D01*
X5573310Y19307651D01*
X5612955Y19238656D01*
X5804571Y18910179D01*
X5863613Y18808722D01*
X5911956Y18724191D01*
X5930559Y18691033D01*
X5944620Y18665419D01*
X5953515Y18648451D01*
X5955831Y18643556D01*
X5956623Y18641236D01*
X4865448Y18630914D01*
X2241935Y18619530D01*
X-381576Y18615646D01*
X-1179648Y18618100D01*
X-1472753Y18623313D01*
X-1459135Y18651799D01*
X-1421754Y18721542D01*
X-1296449Y18947729D01*
X-1138343Y19227743D01*
X-988937Y19487448D01*
X-715218Y19964565D01*
X-441622Y20441745D01*
X-143930Y20961031D01*
X121134Y21427793D01*
X146106Y21472377D01*
X175298Y21523227D01*
X205081Y21574078D01*
X231825Y21618666D01*
X345816Y21813788D01*
X538102Y22148866D01*
X1016645Y22986521D01*
X1365895Y23596158D01*
X1678621Y24142233D01*
X2465425Y25515357D01*
X2544552Y25653212D01*
X3099061Y26623384D01*
X3107894Y26638835D01*
X3116977Y26654299D01*
X3126052Y26669360D01*
X3134860Y26683605D01*
X3143142Y26696621D01*
X3150641Y26707993D01*
X3157097Y26717309D01*
X3162251Y26724154D01*
X3167556Y26727825D01*
X3177551Y26731187D01*
X3213183Y26737043D01*
X3272291Y26741828D01*
X3358021Y26745649D01*
X3621922Y26750824D01*
X4030043Y26753423D01*
X4279528Y26754018D01*
X4383690Y26754040D01*
X4475161Y26753842D01*
G36*
X4475161Y26753842D02*
G01*
X4554715Y26753397D01*
X4623125Y26752678D01*
X4681163Y26751659D01*
X4729601Y26750313D01*
X4769214Y26748612D01*
X4785952Y26747621D01*
X4800773Y26746530D01*
X4813775Y26745338D01*
X4825052Y26744040D01*
X4834703Y26742634D01*
X4842823Y26741115D01*
X4849510Y26739481D01*
X4854860Y26737728D01*
X4858969Y26735852D01*
X4861934Y26733852D01*
X4863017Y26732803D01*
X4863851Y26731722D01*
X4864448Y26730608D01*
X4864819Y26729460D01*
X4864932Y26727062D01*
X4864287Y26724526D01*
X4859424Y26713935D01*
X4850165Y26695893D01*
X4820624Y26641370D01*
X4779986Y26568785D01*
X4732575Y26485965D01*
X4025268Y25250569D01*
X4016545Y25235226D01*
X4007785Y25220076D01*
X3999223Y25205510D01*
X3991096Y25191919D01*
X3983640Y25179694D01*
X3977091Y25169227D01*
X3971686Y25160908D01*
X3967660Y25155130D01*
X3963193Y25148488D01*
X3956522Y25137689D01*
X3937868Y25105884D01*
X3914297Y25064240D01*
X3888407Y25017281D01*
X3775693Y24816564D01*
X3593852Y24497747D01*
X2680172Y22902001D01*
X2219922Y22101427D01*
X1904282Y21550082D01*
X1586099Y20993403D01*
X1507158Y20855550D01*
X1284722Y20468535D01*
X1213314Y20343354D01*
X1154269Y20237663D01*
X1131301Y20195604D01*
X1113725Y20162592D01*
X1102309Y20140016D01*
X1099150Y20133078D01*
X1097819Y20129270D01*
X1129070Y20124293D01*
X1224259Y20119819D01*
X1604022Y20112416D01*
X3104022Y20104031D01*
X5113945Y20100000D01*
X5303701Y19772579D01*
X5533455Y19376446D01*
X5573310Y19307651D01*
X5612955Y19238656D01*
X5804571Y18910179D01*
X5863613Y18808722D01*
X5911956Y18724191D01*
X5930559Y18691033D01*
X5944620Y18665419D01*
X5953515Y18648451D01*
X5955831Y18643556D01*
X5956623Y18641236D01*
X4865448Y18630914D01*
X2241935Y18619530D01*
X-381576Y18615646D01*
X-1179648Y18618100D01*
X-1472753Y18623313D01*
X-1459135Y18651799D01*
X-1421754Y18721542D01*
X-1296449Y18947729D01*
X-1138343Y19227743D01*
X-988937Y19487448D01*
X-715218Y19964565D01*
X-441622Y20441745D01*
X-143930Y20961031D01*
X121134Y21427793D01*
X146106Y21472377D01*
X175298Y21523227D01*
X205081Y21574078D01*
X231825Y21618666D01*
X345816Y21813788D01*
X538102Y22148866D01*
X1016645Y22986521D01*
X1365895Y23596158D01*
X1678621Y24142233D01*
X2465425Y25515357D01*
X2544552Y25653212D01*
X3099061Y26623384D01*
X3107894Y26638835D01*
X3116977Y26654299D01*
X3126052Y26669360D01*
X3134860Y26683605D01*
X3143142Y26696621D01*
X3150641Y26707993D01*
X3157097Y26717309D01*
X3162251Y26724154D01*
X3167556Y26727825D01*
X3177551Y26731187D01*
X3213183Y26737043D01*
X3272291Y26741828D01*
X3358021Y26745649D01*
X3621922Y26750824D01*
X4030043Y26753423D01*
X4279528Y26754018D01*
X4383690Y26754040D01*
X4475161Y26753842D01*
G37*
X5004371Y26666670D02*
X5006790Y26665474D01*
X5009689Y26663354D01*
X5013029Y26660360D01*
X5016771Y26656544D01*
X5020877Y26651959D01*
X5025309Y26646655D01*
X5034996Y26634102D01*
X5045526Y26619297D01*
X5056590Y26602657D01*
X5067882Y26584595D01*
X5079094Y26565526D01*
X5127865Y26480349D01*
X5169756Y26407894D01*
X5530561Y25786731D01*
X5671312Y25542457D01*
X5749814Y25404357D01*
X5763043Y25380584D01*
X5776014Y25357575D01*
X5788398Y25335892D01*
X5799866Y25316098D01*
X5810089Y25298755D01*
X5818738Y25284427D01*
X5825483Y25273675D01*
X5829994Y25267063D01*
X5834056Y25261313D01*
X5839512Y25253030D01*
X5853649Y25230428D01*
X5870501Y25202378D01*
X5888161Y25172000D01*
X6127341Y24760057D01*
X6285247Y24487189D01*
X6347952Y24377615D01*
X6388412Y24305819D01*
X6401646Y24282040D01*
X6414645Y24259012D01*
X6427078Y24237300D01*
X6438613Y24217471D01*
X6448920Y24200090D01*
X6457665Y24185720D01*
X6464519Y24174929D01*
X6469151Y24168280D01*
X6494180Y24127945D01*
X6550112Y24033856D01*
X6721536Y23740522D01*
X7194191Y22927301D01*
X7380330Y22605946D01*
X7451633Y22481626D01*
X7495259Y22404416D01*
X7521458Y22357624D01*
X7545310Y22316126D01*
X7555533Y22298773D01*
X7564182Y22284435D01*
X7570927Y22273676D01*
X7575439Y22267061D01*
X7579501Y22261311D01*
X7584956Y22253028D01*
X7599093Y22230426D01*
X7615945Y22202376D01*
X7633606Y22171996D01*
X7764855Y21944152D01*
X7909579Y21695421D01*
X8028977Y21492199D01*
X8084245Y21400881D01*
X8088848Y21394269D01*
X8095677Y21383518D01*
X8114686Y21351848D01*
X8138629Y21310370D01*
X8164861Y21263588D01*
X8279789Y21062058D01*
X8465927Y20740705D01*
X8938643Y19927482D01*
X9031509Y19767956D01*
X9110036Y19634117D01*
X9165948Y19540006D01*
X9182837Y19512236D01*
X9190969Y19499663D01*
X9195588Y19493017D01*
X9202410Y19482233D01*
X9221344Y19450504D01*
X9245136Y19408984D01*
X9271149Y19362184D01*
X9311315Y19290563D01*
X9373643Y19181458D01*
X9530731Y18910119D01*
X9726688Y18574201D01*
X9654754Y18455387D01*
X9622646Y18401735D01*
X9588404Y18343471D01*
X9556130Y18287617D01*
X9529925Y18241196D01*
X9243390Y17737706D01*
X8953897Y17235497D01*
X8947493Y17224822D01*
X8941059Y17214382D01*
X8934636Y17204234D01*
X8928269Y17194435D01*
X8921998Y17185040D01*
X8915865Y17176108D01*
X8909915Y17167696D01*
X8904187Y17159859D01*
X8898725Y17152656D01*
X8893572Y17146143D01*
X8888768Y17140376D01*
X8884358Y17135414D01*
X8880382Y17131312D01*
X8876883Y17128127D01*
X8875325Y17126897D01*
X8873903Y17125918D01*
X8872621Y17125196D01*
X8871485Y17124740D01*
X8870188Y17124840D01*
X8868431Y17125772D01*
X8863585Y17130049D01*
X8857054Y17137408D01*
X8848942Y17147687D01*
X8828396Y17176362D01*
X8802787Y17214779D01*
X8772956Y17261645D01*
X8739744Y17315668D01*
X8703990Y17375553D01*
X8666535Y17440007D01*
X8456672Y17803607D01*
X8210998Y18226315D01*
X7621204Y19240392D01*
X7270068Y19845411D01*
X7031224Y20254470D01*
X6829446Y20600114D01*
X6711617Y20803770D01*
X6629016Y20946336D01*
X6392316Y21353068D01*
X6075561Y21897038D01*
X5796261Y22377688D01*
X5549113Y22802995D01*
X5432128Y23003141D01*
X5346127Y23152073D01*
X5210870Y23388294D01*
X5192373Y23420433D01*
X5174323Y23451272D01*
X5156791Y23480703D01*
X5139850Y23508620D01*
X5123571Y23534917D01*
X5108027Y23559487D01*
X5093290Y23582225D01*
X5079431Y23603023D01*
X5066523Y23621775D01*
X5054638Y23638375D01*
X5043848Y23652717D01*
X5034224Y23664693D01*
X5025839Y23674198D01*
X5018764Y23681126D01*
X5015741Y23683589D01*
X5013073Y23685368D01*
X5010768Y23686450D01*
X5008836Y23686820D01*
X5007178Y23686764D01*
X5005482Y23686587D01*
X5003750Y23686290D01*
X5001986Y23685878D01*
X5000194Y23685352D01*
X4998377Y23684717D01*
X4994683Y23683130D01*
X4990931Y23681140D01*
X4987151Y23678770D01*
X4983370Y23676046D01*
X4979617Y23672990D01*
X4975919Y23669627D01*
X4972305Y23665982D01*
X4968803Y23662076D01*
X4965441Y23657936D01*
X4962247Y23653585D01*
X4959249Y23649046D01*
X4956476Y23644345D01*
X4953956Y23639504D01*
X4912861Y23563973D01*
X4808134Y23379041D01*
X4337744Y22558144D01*
X4019004Y22001463D01*
X3466170Y21036561D01*
X3098565Y20395051D01*
X3004742Y20230721D01*
X2160390Y20227991D01*
X1958444Y20227666D01*
X1785026Y20228108D01*
X1639641Y20229331D01*
X1521796Y20231343D01*
X1430995Y20234158D01*
X1395581Y20235869D01*
X1366743Y20237786D01*
X1344420Y20239908D01*
X1328548Y20242237D01*
X1319066Y20244776D01*
X1316703Y20246124D01*
X1315914Y20247525D01*
X1322146Y20265981D01*
X1340791Y20304681D01*
X1414691Y20441683D01*
X1536360Y20656261D01*
X1704541Y20946149D01*
X1760130Y21041817D01*
X1815266Y21137687D01*
X1863579Y21222619D01*
X1898700Y21285476D01*
X2065953Y21580829D01*
X2305063Y21995884D01*
X2857030Y22960787D01*
X2865746Y22976129D01*
X2874498Y22991279D01*
X2883050Y23005845D01*
X2891166Y23019436D01*
X2898612Y23031661D01*
X2905153Y23042128D01*
X2910552Y23050445D01*
X2914576Y23056222D01*
X2919043Y23062862D01*
X2925711Y23073654D01*
X2944353Y23105439D01*
X2967904Y23147063D01*
X2993765Y23194012D01*
X3030438Y23260219D01*
X3083431Y23354265D01*
X3210000Y23575756D01*
X3336599Y23797217D01*
X3389613Y23891243D01*
X3426297Y23957439D01*
X3452158Y24004398D01*
X3475709Y24046043D01*
X3485806Y24063458D01*
X3494351Y24077848D01*
X3501019Y24088648D01*
X3505486Y24095290D01*
X3509510Y24101067D01*
X3514911Y24109385D01*
X3528902Y24132076D01*
X3545571Y24160234D01*
X3563033Y24190727D01*
X3799794Y24604283D01*
X4277606Y25436903D01*
X4509951Y25844826D01*
X4537498Y25893594D01*
X4573302Y25955836D01*
X4612732Y26023546D01*
X4651152Y26088719D01*
X4695010Y26163580D01*
X4749249Y26257669D01*
X4806978Y26358951D01*
X4861310Y26455395D01*
X4873850Y26477588D01*
X4886252Y26499088D01*
X4898444Y26519786D01*
X4910352Y26539575D01*
X4921902Y26558346D01*
X4933022Y26575990D01*
X4943637Y26592400D01*
X4953674Y26607468D01*
X4963061Y26621084D01*
X4971722Y26633140D01*
X4979587Y26643529D01*
X4986579Y26652142D01*
X4992628Y26658871D01*
X4995275Y26661495D01*
X4997658Y26663608D01*
X4999768Y26665195D01*
X5001597Y26666243D01*
X5003134Y26666739D01*
X5004371Y26666670D01*
G36*
X5004371Y26666670D02*
G01*
X5006790Y26665474D01*
X5009689Y26663354D01*
X5013029Y26660360D01*
X5016771Y26656544D01*
X5020877Y26651959D01*
X5025309Y26646655D01*
X5034996Y26634102D01*
X5045526Y26619297D01*
X5056590Y26602657D01*
X5067882Y26584595D01*
X5079094Y26565526D01*
X5127865Y26480349D01*
X5169756Y26407894D01*
X5530561Y25786731D01*
X5671312Y25542457D01*
X5749814Y25404357D01*
X5763043Y25380584D01*
X5776014Y25357575D01*
X5788398Y25335892D01*
X5799866Y25316098D01*
X5810089Y25298755D01*
X5818738Y25284427D01*
X5825483Y25273675D01*
X5829994Y25267063D01*
X5834056Y25261313D01*
X5839512Y25253030D01*
X5853649Y25230428D01*
X5870501Y25202378D01*
X5888161Y25172000D01*
X6127341Y24760057D01*
X6285247Y24487189D01*
X6347952Y24377615D01*
X6388412Y24305819D01*
X6401646Y24282040D01*
X6414645Y24259012D01*
X6427078Y24237300D01*
X6438613Y24217471D01*
X6448920Y24200090D01*
X6457665Y24185720D01*
X6464519Y24174929D01*
X6469151Y24168280D01*
X6494180Y24127945D01*
X6550112Y24033856D01*
X6721536Y23740522D01*
X7194191Y22927301D01*
X7380330Y22605946D01*
X7451633Y22481626D01*
X7495259Y22404416D01*
X7521458Y22357624D01*
X7545310Y22316126D01*
X7555533Y22298773D01*
X7564182Y22284435D01*
X7570927Y22273676D01*
X7575439Y22267061D01*
X7579501Y22261311D01*
X7584956Y22253028D01*
X7599093Y22230426D01*
X7615945Y22202376D01*
X7633606Y22171996D01*
X7764855Y21944152D01*
X7909579Y21695421D01*
X8028977Y21492199D01*
X8084245Y21400881D01*
X8088848Y21394269D01*
X8095677Y21383518D01*
X8114686Y21351848D01*
X8138629Y21310370D01*
X8164861Y21263588D01*
X8279789Y21062058D01*
X8465927Y20740705D01*
X8938643Y19927482D01*
X9031509Y19767956D01*
X9110036Y19634117D01*
X9165948Y19540006D01*
X9182837Y19512236D01*
X9190969Y19499663D01*
X9195588Y19493017D01*
X9202410Y19482233D01*
X9221344Y19450504D01*
X9245136Y19408984D01*
X9271149Y19362184D01*
X9311315Y19290563D01*
X9373643Y19181458D01*
X9530731Y18910119D01*
X9726688Y18574201D01*
X9654754Y18455387D01*
X9622646Y18401735D01*
X9588404Y18343471D01*
X9556130Y18287617D01*
X9529925Y18241196D01*
X9243390Y17737706D01*
X8953897Y17235497D01*
X8947493Y17224822D01*
X8941059Y17214382D01*
X8934636Y17204234D01*
X8928269Y17194435D01*
X8921998Y17185040D01*
X8915865Y17176108D01*
X8909915Y17167696D01*
X8904187Y17159859D01*
X8898725Y17152656D01*
X8893572Y17146143D01*
X8888768Y17140376D01*
X8884358Y17135414D01*
X8880382Y17131312D01*
X8876883Y17128127D01*
X8875325Y17126897D01*
X8873903Y17125918D01*
X8872621Y17125196D01*
X8871485Y17124740D01*
X8870188Y17124840D01*
X8868431Y17125772D01*
X8863585Y17130049D01*
X8857054Y17137408D01*
X8848942Y17147687D01*
X8828396Y17176362D01*
X8802787Y17214779D01*
X8772956Y17261645D01*
X8739744Y17315668D01*
X8703990Y17375553D01*
X8666535Y17440007D01*
X8456672Y17803607D01*
X8210998Y18226315D01*
X7621204Y19240392D01*
X7270068Y19845411D01*
X7031224Y20254470D01*
X6829446Y20600114D01*
X6711617Y20803770D01*
X6629016Y20946336D01*
X6392316Y21353068D01*
X6075561Y21897038D01*
X5796261Y22377688D01*
X5549113Y22802995D01*
X5432128Y23003141D01*
X5346127Y23152073D01*
X5210870Y23388294D01*
X5192373Y23420433D01*
X5174323Y23451272D01*
X5156791Y23480703D01*
X5139850Y23508620D01*
X5123571Y23534917D01*
X5108027Y23559487D01*
X5093290Y23582225D01*
X5079431Y23603023D01*
X5066523Y23621775D01*
X5054638Y23638375D01*
X5043848Y23652717D01*
X5034224Y23664693D01*
X5025839Y23674198D01*
X5018764Y23681126D01*
X5015741Y23683589D01*
X5013073Y23685368D01*
X5010768Y23686450D01*
X5008836Y23686820D01*
X5007178Y23686764D01*
X5005482Y23686587D01*
X5003750Y23686290D01*
X5001986Y23685878D01*
X5000194Y23685352D01*
X4998377Y23684717D01*
X4994683Y23683130D01*
X4990931Y23681140D01*
X4987151Y23678770D01*
X4983370Y23676046D01*
X4979617Y23672990D01*
X4975919Y23669627D01*
X4972305Y23665982D01*
X4968803Y23662076D01*
X4965441Y23657936D01*
X4962247Y23653585D01*
X4959249Y23649046D01*
X4956476Y23644345D01*
X4953956Y23639504D01*
X4912861Y23563973D01*
X4808134Y23379041D01*
X4337744Y22558144D01*
X4019004Y22001463D01*
X3466170Y21036561D01*
X3098565Y20395051D01*
X3004742Y20230721D01*
X2160390Y20227991D01*
X1958444Y20227666D01*
X1785026Y20228108D01*
X1639641Y20229331D01*
X1521796Y20231343D01*
X1430995Y20234158D01*
X1395581Y20235869D01*
X1366743Y20237786D01*
X1344420Y20239908D01*
X1328548Y20242237D01*
X1319066Y20244776D01*
X1316703Y20246124D01*
X1315914Y20247525D01*
X1322146Y20265981D01*
X1340791Y20304681D01*
X1414691Y20441683D01*
X1536360Y20656261D01*
X1704541Y20946149D01*
X1760130Y21041817D01*
X1815266Y21137687D01*
X1863579Y21222619D01*
X1898700Y21285476D01*
X2065953Y21580829D01*
X2305063Y21995884D01*
X2857030Y22960787D01*
X2865746Y22976129D01*
X2874498Y22991279D01*
X2883050Y23005845D01*
X2891166Y23019436D01*
X2898612Y23031661D01*
X2905153Y23042128D01*
X2910552Y23050445D01*
X2914576Y23056222D01*
X2919043Y23062862D01*
X2925711Y23073654D01*
X2944353Y23105439D01*
X2967904Y23147063D01*
X2993765Y23194012D01*
X3030438Y23260219D01*
X3083431Y23354265D01*
X3210000Y23575756D01*
X3336599Y23797217D01*
X3389613Y23891243D01*
X3426297Y23957439D01*
X3452158Y24004398D01*
X3475709Y24046043D01*
X3485806Y24063458D01*
X3494351Y24077848D01*
X3501019Y24088648D01*
X3505486Y24095290D01*
X3509510Y24101067D01*
X3514911Y24109385D01*
X3528902Y24132076D01*
X3545571Y24160234D01*
X3563033Y24190727D01*
X3799794Y24604283D01*
X4277606Y25436903D01*
X4509951Y25844826D01*
X4537498Y25893594D01*
X4573302Y25955836D01*
X4612732Y26023546D01*
X4651152Y26088719D01*
X4695010Y26163580D01*
X4749249Y26257669D01*
X4806978Y26358951D01*
X4861310Y26455395D01*
X4873850Y26477588D01*
X4886252Y26499088D01*
X4898444Y26519786D01*
X4910352Y26539575D01*
X4921902Y26558346D01*
X4933022Y26575990D01*
X4943637Y26592400D01*
X4953674Y26607468D01*
X4963061Y26621084D01*
X4971722Y26633140D01*
X4979587Y26643529D01*
X4986579Y26652142D01*
X4992628Y26658871D01*
X4995275Y26661495D01*
X4997658Y26663608D01*
X4999768Y26665195D01*
X5001597Y26666243D01*
X5003134Y26666739D01*
X5004371Y26666670D01*
G37*
D11*
%TO.C,U84*%
X36610000Y39189972D03*
D12*
X36440000Y42019972D03*
D13*
X35110000Y40519972D03*
D14*
X33780000Y39019972D03*
D15*
X33610000Y41849972D03*
%TD*%
D16*
%TO.C,R130*%
X88830002Y11450000D03*
X89850000Y11450000D03*
%TD*%
D17*
%TO.C,C116*%
X85991126Y26384461D03*
X86669948Y27063283D03*
%TD*%
D18*
%TO.C,R94*%
X62879999Y14820000D03*
X61860001Y14820000D03*
%TD*%
D19*
%TO.C,C78*%
X60490000Y10040000D03*
X59530000Y10040000D03*
%TD*%
%TO.C,C117*%
X13160001Y48079972D03*
X12200001Y48079972D03*
%TD*%
D20*
%TO.C,Q82*%
X76110000Y14045000D03*
X77380000Y14045000D03*
X78650000Y14045000D03*
X79920000Y14045000D03*
X79930000Y19545000D03*
X78660000Y19545000D03*
X77390000Y19545000D03*
X76120000Y19545000D03*
D21*
X78020000Y17445000D03*
%TD*%
D22*
%TO.C,U88*%
X84267500Y13570001D03*
X84267500Y14520000D03*
X84267500Y15469999D03*
X81992500Y15469999D03*
X81992500Y14520000D03*
X81992500Y13570001D03*
%TD*%
D23*
%TO.C,C146*%
X46795578Y24050045D03*
X47755578Y24050045D03*
%TD*%
%TO.C,C144*%
X4190000Y56830000D03*
X5150000Y56830000D03*
%TD*%
D24*
%TO.C,D83*%
X44800000Y7020000D03*
X44800000Y6050000D03*
%TD*%
D25*
%TO.C,R90*%
X72539001Y15169974D03*
X72539001Y16189974D03*
%TD*%
D26*
%TO.C,U93*%
X47675578Y26410045D03*
X46875578Y26410045D03*
X46875578Y25010045D03*
X47675578Y25010045D03*
%TD*%
D27*
%TO.C,USB80*%
X50700001Y9459974D03*
X46640001Y9459974D03*
X50700001Y3359974D03*
X46640001Y3359974D03*
D28*
X49520001Y9009974D03*
X49520001Y8209974D03*
D29*
X49520001Y7459974D03*
X49520001Y6759974D03*
X49520001Y6059974D03*
X49520001Y5359974D03*
D28*
X49520001Y4609974D03*
X49520001Y3809974D03*
X47820001Y3809974D03*
X47820001Y4609974D03*
D29*
X47820001Y5359974D03*
X47820001Y6059974D03*
X47820001Y6759974D03*
X47820001Y7459974D03*
D28*
X47820001Y8209974D03*
X47820001Y9009974D03*
%TD*%
D30*
%TO.C,H78*%
X90615136Y63120000D03*
X91318080Y64817056D03*
X91318080Y61422944D03*
X93015136Y65520000D03*
D31*
X93015136Y63120000D03*
D30*
X93015136Y60720000D03*
X94712192Y64817056D03*
X94712192Y61422944D03*
X95415136Y63120000D03*
%TD*%
D32*
%TO.C,C82*%
X69885001Y19909974D03*
X69885001Y18949974D03*
%TD*%
%TO.C,C83*%
X68525001Y19909974D03*
X68525001Y18949974D03*
%TD*%
D16*
%TO.C,R138*%
X2288972Y55870000D03*
X3308970Y55870000D03*
%TD*%
D33*
%TO.C,FPC79*%
X90440000Y15110000D03*
X90440000Y15610000D03*
X90440000Y16110000D03*
X90440000Y16610000D03*
X90440000Y17110000D03*
X90440000Y17610000D03*
X90440000Y18110000D03*
X90440000Y18610000D03*
X90440000Y19110000D03*
X90440000Y19610000D03*
X90440000Y20110000D03*
X90440000Y20610000D03*
X90440000Y21110000D03*
X90440000Y21610000D03*
X90440000Y22110000D03*
X90440000Y22610000D03*
X90440000Y23110000D03*
X90440000Y23610000D03*
X90440000Y24110000D03*
X90440000Y24610000D03*
X90440000Y25110000D03*
X90440000Y25610000D03*
D34*
X93460000Y27660000D03*
X93460000Y13060000D03*
%TD*%
D35*
%TO.C,SW78*%
X-467499Y10809974D03*
X-467499Y8809974D03*
D36*
X-1727499Y6809974D03*
X-1727499Y12809974D03*
D35*
X-467499Y9809974D03*
%TD*%
D37*
%TO.C,U78*%
X72044002Y11624974D03*
X71544002Y11624974D03*
D38*
X71044002Y11587474D03*
D37*
X70544002Y11624974D03*
X70044002Y11624974D03*
X70044002Y10849974D03*
X70544002Y10849974D03*
D39*
X71044002Y10824974D03*
D37*
X71544002Y10849974D03*
X72044002Y10849974D03*
%TD*%
D40*
%TO.C,Q79*%
X63614002Y21187474D03*
X61714002Y21187474D03*
X62664002Y19312474D03*
%TD*%
D18*
%TO.C,R133*%
X3609998Y7690000D03*
X2590000Y7690000D03*
%TD*%
D16*
%TO.C,R132*%
X730000Y7690000D03*
X1749998Y7690000D03*
%TD*%
D41*
%TO.C,R100*%
X58834002Y17857474D03*
X58834002Y16837474D03*
%TD*%
D42*
%TO.C,C112*%
X82620000Y47850000D03*
X82620000Y48810000D03*
%TD*%
D30*
%TO.C,H79*%
X-2399999Y0D03*
X-1697055Y1697056D03*
X-1697055Y-1697056D03*
X1Y2400000D03*
D31*
X1Y0D03*
D30*
X1Y-2400000D03*
X1697057Y1697056D03*
X1697057Y-1697056D03*
X2400001Y0D03*
%TD*%
D32*
%TO.C,C81*%
X70805001Y19909974D03*
X70805001Y18949974D03*
%TD*%
%TO.C,C86*%
X65330001Y19909974D03*
X65330001Y18949974D03*
%TD*%
%TO.C,C84*%
X67605001Y19909974D03*
X67605001Y18949974D03*
%TD*%
D16*
%TO.C,R150*%
X87410000Y17540000D03*
X88430000Y17540000D03*
%TD*%
D18*
%TO.C,R98*%
X59769999Y22670000D03*
X58750001Y22670000D03*
%TD*%
D43*
%TO.C,D91*%
X89115000Y3495026D03*
X90085000Y3495026D03*
%TD*%
D40*
%TO.C,Q81*%
X60204002Y21184974D03*
X58304002Y21184974D03*
X59254002Y19309974D03*
%TD*%
D44*
%TO.C,J78*%
X19575000Y62315000D03*
X20575000Y62315000D03*
X21575000Y62315000D03*
X22575000Y62315000D03*
D45*
X18275000Y64840000D03*
X23875000Y64840000D03*
%TD*%
D16*
%TO.C,R137*%
X-59999Y53059999D03*
X959999Y53059999D03*
%TD*%
D25*
%TO.C,R88*%
X70039001Y15169974D03*
X70039001Y16189974D03*
%TD*%
D17*
%TO.C,C114*%
X85340589Y27035000D03*
X86019411Y27713822D03*
%TD*%
D46*
%TO.C,TP86*%
X7120000Y54300000D03*
%TD*%
D23*
%TO.C,C131*%
X81400000Y12350000D03*
X82360000Y12350000D03*
%TD*%
D46*
%TO.C,TP80*%
X45210000Y64975000D03*
%TD*%
D47*
%TO.C,J79*%
X72294002Y7544974D03*
X71794002Y7544974D03*
X71294002Y7544974D03*
X70794002Y7544974D03*
X70294002Y7544974D03*
X69794002Y7544974D03*
X69294002Y7544974D03*
X68794002Y7544974D03*
X68294002Y7544974D03*
X67794002Y7544974D03*
X67294002Y7544974D03*
X66794002Y7544974D03*
X66294002Y7544974D03*
X65794002Y7544974D03*
X65294002Y7544974D03*
X64794002Y7544974D03*
X64294002Y7544974D03*
X63794002Y7544974D03*
X63294002Y7544974D03*
D48*
X75044002Y6784974D03*
X60544002Y6784974D03*
D49*
X75044002Y824974D03*
X60544002Y824974D03*
%TD*%
D16*
%TO.C,R129*%
X89090001Y4645026D03*
X90109999Y4645026D03*
%TD*%
D25*
%TO.C,R120*%
X82636580Y38525403D03*
X82636580Y39545401D03*
%TD*%
%TO.C,R81*%
X63335000Y61995001D03*
X63335000Y63014999D03*
%TD*%
D50*
%TO.C,J84*%
X92690001Y49709974D03*
X85140001Y49459974D03*
X92690001Y49209975D03*
X85140001Y48959974D03*
X92690001Y48709974D03*
X85140001Y48459974D03*
X92690001Y48209974D03*
X85140001Y47959974D03*
X92690001Y47709973D03*
X85140001Y47459974D03*
X92690001Y47209974D03*
X85140001Y46959974D03*
X92690001Y46709974D03*
X85140001Y46459974D03*
X92690001Y46209974D03*
X85140001Y45959974D03*
X92690001Y45709974D03*
X85140001Y45459974D03*
X92690001Y45209973D03*
X85140001Y44959974D03*
X92690001Y44709974D03*
X85140001Y44459974D03*
X92690001Y44209974D03*
X85140001Y41959974D03*
X92690001Y41709974D03*
X85140001Y41459974D03*
X92690001Y41209973D03*
X85140001Y40959974D03*
X92690001Y40709974D03*
X85140001Y40459974D03*
X92690001Y40209975D03*
X85140001Y39959974D03*
X92690001Y39709974D03*
X85140001Y39459974D03*
X92690001Y39209974D03*
X85140001Y38959974D03*
X92690001Y38709973D03*
X85140001Y38459974D03*
X92690001Y38209974D03*
X85140001Y37959974D03*
X92690001Y37709975D03*
X85140001Y37459974D03*
X92690001Y37209974D03*
X85140001Y36959974D03*
X92690001Y36709974D03*
X85140001Y36459974D03*
X92690001Y36209973D03*
X85140001Y35959974D03*
X92690001Y35709974D03*
X85140001Y35459974D03*
X92690001Y35209974D03*
X85140001Y34959974D03*
X92690001Y34709974D03*
X85140001Y34459974D03*
X92690001Y34209974D03*
X85140001Y33959974D03*
X92690001Y33709975D03*
X85140001Y33459974D03*
X92690001Y33209974D03*
X85140001Y32959974D03*
X92690001Y32709974D03*
X85140001Y32459974D03*
X92690001Y32209974D03*
X85140001Y31959974D03*
X92690001Y31709974D03*
X85140001Y31459974D03*
X92690001Y31209975D03*
D51*
X91915001Y50809974D03*
X91915001Y30109974D03*
%TD*%
D18*
%TO.C,R131*%
X94459999Y11450000D03*
X93440001Y11450000D03*
%TD*%
D37*
%TO.C,U79*%
X69034002Y11624974D03*
X68534002Y11624974D03*
D38*
X68034002Y11587474D03*
D37*
X67534002Y11624974D03*
X67034002Y11624974D03*
X67034002Y10849974D03*
X67534002Y10849974D03*
D39*
X68034002Y10824974D03*
D37*
X68534002Y10849974D03*
X69034002Y10849974D03*
%TD*%
D52*
%TO.C,J80*%
X31220001Y18263474D03*
X30200001Y18263474D03*
X29180001Y18263474D03*
X28160001Y18263474D03*
X27140001Y18263474D03*
X26120001Y18263474D03*
X25100001Y18263474D03*
X24080001Y18263474D03*
X23060001Y18263474D03*
X22040001Y18263474D03*
X33260001Y18263474D03*
X32240001Y18263474D03*
X21020001Y18263474D03*
X20000001Y18263474D03*
D53*
X35480001Y4359474D03*
X17780001Y4359474D03*
%TD*%
D54*
%TO.C,D78*%
X60110001Y13449974D03*
X58010001Y13449974D03*
%TD*%
D27*
%TO.C,USB81*%
X87380000Y9449974D03*
X83320000Y9449974D03*
X87380000Y3349974D03*
X83320000Y3349974D03*
D28*
X86200000Y8999974D03*
X86200000Y8199974D03*
D29*
X86200000Y7449974D03*
X86200000Y6749974D03*
X86200000Y6049974D03*
X86200000Y5349974D03*
D28*
X86200000Y4599974D03*
X86200000Y3799974D03*
X84500000Y3799974D03*
X84500000Y4599974D03*
D29*
X84500000Y5349974D03*
X84500000Y6049974D03*
X84500000Y6749974D03*
X84500000Y7449974D03*
D28*
X84500000Y8199974D03*
X84500000Y8999974D03*
%TD*%
D11*
%TO.C,U86*%
X60640001Y39129974D03*
D12*
X60470001Y41959974D03*
D13*
X59140001Y40459974D03*
D14*
X57810001Y38959974D03*
D15*
X57640001Y41789974D03*
%TD*%
D25*
%TO.C,R89*%
X71539001Y15169974D03*
X71539001Y16189974D03*
%TD*%
D30*
%TO.C,H80*%
X-2399999Y63120000D03*
X-1697055Y64817056D03*
X-1697055Y61422944D03*
X1Y65520000D03*
D31*
X1Y63120000D03*
D30*
X1Y60720000D03*
X1697057Y64817056D03*
X1697057Y61422944D03*
X2400001Y63120000D03*
%TD*%
D46*
%TO.C,TP83*%
X55810000Y18890000D03*
%TD*%
D16*
%TO.C,R126*%
X820001Y10760000D03*
X1839999Y10760000D03*
%TD*%
D18*
%TO.C,R111*%
X31655000Y27940000D03*
X30635000Y27940000D03*
%TD*%
D46*
%TO.C,TP85*%
X7780000Y57030000D03*
%TD*%
D18*
%TO.C,R136*%
X3319999Y56850000D03*
X2300001Y56850000D03*
%TD*%
D25*
%TO.C,R134*%
X7115001Y3029975D03*
X7115001Y4049973D03*
%TD*%
%TO.C,R110*%
X19990000Y21080000D03*
X19990000Y22100000D03*
%TD*%
D16*
%TO.C,R119*%
X12160000Y49029972D03*
X13179998Y49029972D03*
%TD*%
D18*
%TO.C,R95*%
X63179999Y22670000D03*
X62160001Y22670000D03*
%TD*%
D46*
%TO.C,TP78*%
X45930000Y62565000D03*
%TD*%
D32*
%TO.C,C79*%
X73085001Y19909974D03*
X73085001Y18949974D03*
%TD*%
D16*
%TO.C,R140*%
X4160000Y55870000D03*
X5179998Y55870000D03*
%TD*%
D46*
%TO.C,TP81*%
X79250000Y11260000D03*
%TD*%
D55*
%TO.C,USB79*%
X38145001Y1544974D03*
X44145001Y1544974D03*
X44145001Y9644974D03*
X38145001Y9644974D03*
D56*
X40005001Y2844974D03*
X40005001Y3344974D03*
X40005001Y3844974D03*
X40005001Y4344974D03*
X40005001Y4844974D03*
X40005001Y5344974D03*
X40005001Y5844974D03*
X40005001Y6344974D03*
X40005001Y6844974D03*
X40005001Y7344974D03*
X40005001Y7844974D03*
X40005001Y8344974D03*
X42285001Y8344974D03*
X42285001Y7844974D03*
X42285001Y7344974D03*
X42285001Y6844974D03*
X42285001Y6344974D03*
X42285001Y5844974D03*
X42285001Y5344974D03*
X42285001Y4844974D03*
X42285001Y4344974D03*
X42285001Y3844974D03*
X42285001Y3344974D03*
X42285001Y2844974D03*
%TD*%
D16*
%TO.C,R125*%
X810001Y9810000D03*
X1829999Y9810000D03*
%TD*%
D57*
%TO.C,U92*%
X48300000Y29400000D03*
X48300000Y30550000D03*
X48300000Y31700000D03*
X47270000Y32079999D03*
X46250000Y31700000D03*
X46250000Y30550000D03*
X46250000Y29400000D03*
X47270000Y29030000D03*
%TD*%
D18*
%TO.C,R115*%
X82259999Y35030000D03*
X81240001Y35030000D03*
%TD*%
D16*
%TO.C,R93*%
X810001Y8851000D03*
X1829999Y8851000D03*
%TD*%
D32*
%TO.C,C80*%
X72165001Y19909974D03*
X72165001Y18949974D03*
%TD*%
D25*
%TO.C,R109*%
X32115000Y21040001D03*
X32115000Y22059999D03*
%TD*%
D44*
%TO.C,J81*%
X49850001Y62360000D03*
X50850001Y62360000D03*
X51850001Y62360000D03*
X52850001Y62360000D03*
D45*
X48550001Y64885000D03*
X54150001Y64885000D03*
%TD*%
D46*
%TO.C,TP82*%
X81855000Y17455000D03*
%TD*%
D19*
%TO.C,C93*%
X25920000Y31010000D03*
X24960000Y31010000D03*
%TD*%
D32*
%TO.C,C85*%
X66250001Y19909974D03*
X66250001Y18949974D03*
%TD*%
D19*
%TO.C,C111*%
X13129998Y51059973D03*
X12169998Y51059973D03*
%TD*%
D42*
%TO.C,C96*%
X31150000Y21050000D03*
X31150000Y22010000D03*
%TD*%
D32*
%TO.C,C147*%
X44740000Y30520000D03*
X44740000Y29560000D03*
%TD*%
D25*
%TO.C,R84*%
X65039001Y15169974D03*
X65039001Y16189974D03*
%TD*%
D58*
%TO.C,D84*%
X44800000Y4165000D03*
X44800000Y5135000D03*
%TD*%
D41*
%TO.C,R79*%
X40590000Y51119974D03*
X40590000Y50099976D03*
%TD*%
D59*
%TO.C,Q78*%
X3020000Y9360000D03*
X4920000Y9360000D03*
X3970000Y11235001D03*
%TD*%
D30*
%TO.C,H81*%
X90615136Y0D03*
X91318080Y1697056D03*
X91318080Y-1697056D03*
X93015136Y2400000D03*
D31*
X93015136Y0D03*
D30*
X93015136Y-2400000D03*
X94712192Y1697056D03*
X94712192Y-1697056D03*
X95415136Y0D03*
%TD*%
D25*
%TO.C,R135*%
X8165001Y3009974D03*
X8165001Y4029972D03*
%TD*%
D60*
%TO.C,D88*%
X-1919999Y30879974D03*
X-1919999Y32679974D03*
%TD*%
D27*
%TO.C,USB78*%
X57735001Y9484974D03*
X53675001Y9484974D03*
X57735001Y3384974D03*
X53675001Y3384974D03*
D28*
X56555001Y9034974D03*
X56555001Y8234974D03*
D29*
X56555001Y7484974D03*
X56555001Y6784974D03*
X56555001Y6084974D03*
X56555001Y5384974D03*
D28*
X56555001Y4634974D03*
X56555001Y3834974D03*
X54855001Y3834974D03*
X54855001Y4634974D03*
D29*
X54855001Y5384974D03*
X54855001Y6084974D03*
X54855001Y6784974D03*
X54855001Y7484974D03*
D28*
X54855001Y8234974D03*
X54855001Y9034974D03*
%TD*%
D61*
%TO.C,SW79*%
X6120001Y489974D03*
X7750001Y489974D03*
X9500001Y489974D03*
X11120001Y489974D03*
D62*
X12120001Y2729974D03*
X5180001Y2729974D03*
%TD*%
D41*
%TO.C,R99*%
X59784002Y17877474D03*
X59784002Y16857474D03*
%TD*%
%TO.C,R145*%
X76270001Y44624885D03*
X76270001Y43604887D03*
%TD*%
D23*
%TO.C,C141*%
X90700000Y11450000D03*
X91660000Y11450000D03*
%TD*%
D41*
%TO.C,R80*%
X39650000Y51119973D03*
X39650000Y50099975D03*
%TD*%
D23*
%TO.C,C94*%
X28060000Y30230000D03*
X29020000Y30230000D03*
%TD*%
D19*
%TO.C,C109*%
X13130000Y50129973D03*
X12170000Y50129973D03*
%TD*%
D46*
%TO.C,TP84*%
X17980000Y31030000D03*
%TD*%
D25*
%TO.C,R117*%
X-1919999Y33639975D03*
X-1919999Y34659973D03*
%TD*%
D11*
%TO.C,U85*%
X48615000Y39139972D03*
D12*
X48445000Y41969972D03*
D13*
X47115000Y40469972D03*
D14*
X45785000Y38969972D03*
D15*
X45615000Y41799972D03*
%TD*%
D25*
%TO.C,R91*%
X74039001Y15169974D03*
X74039001Y16189974D03*
%TD*%
D50*
%TO.C,J83*%
X1565001Y31279974D03*
X9115000Y31529974D03*
X1565001Y31779974D03*
X9115001Y32029974D03*
X1565001Y32279974D03*
X9115001Y32529974D03*
X1565001Y32779974D03*
X9115001Y33029975D03*
X1565001Y33279974D03*
X9115001Y33529974D03*
X1565001Y33779974D03*
X9115001Y34029973D03*
X1565001Y34279974D03*
X9115001Y34529974D03*
X1565001Y34779974D03*
X9115001Y35029974D03*
X1565001Y35279974D03*
X9115001Y35529975D03*
X1565001Y35779974D03*
X9115001Y36029974D03*
X1565001Y36279974D03*
X9115001Y36529973D03*
X1565001Y36779974D03*
X9115001Y37029974D03*
X1565001Y37279974D03*
X9115001Y37529974D03*
X1565001Y37779974D03*
X9115001Y38029975D03*
X1565001Y38279974D03*
X9115001Y38529974D03*
X1565001Y38779974D03*
X9115001Y39029974D03*
X1565001Y39279974D03*
X9115001Y39529974D03*
X1565001Y39779974D03*
X9115001Y40029974D03*
X1565001Y40279974D03*
X9115000Y40529974D03*
X1565001Y40779974D03*
X9115001Y41029974D03*
X1565001Y41279974D03*
X9115001Y41529974D03*
X1565001Y41779974D03*
X9115001Y42029974D03*
X1565001Y42279974D03*
X9115001Y42529974D03*
X1565001Y42779974D03*
X9115001Y43029973D03*
X1565001Y43279974D03*
X9115001Y43529974D03*
X1565001Y43779974D03*
X9115001Y44029974D03*
X1565001Y44279974D03*
X9115001Y44529975D03*
X1565001Y44779974D03*
X9115001Y45029974D03*
X1565001Y45279974D03*
X9115001Y45529973D03*
X1565001Y47779974D03*
X9115001Y48029973D03*
X1565001Y48279974D03*
X9115001Y48529974D03*
X1565001Y48779974D03*
X9115001Y49029974D03*
X1565001Y49279974D03*
X9115000Y49529974D03*
X1565001Y49779974D03*
D51*
X2340001Y30179974D03*
X2340001Y50879974D03*
%TD*%
D19*
%TO.C,C119*%
X13160001Y47139974D03*
X12200001Y47139974D03*
%TD*%
D25*
%TO.C,R86*%
X67539001Y15169974D03*
X67539001Y16189974D03*
%TD*%
D63*
%TO.C,F78*%
X60010000Y11270000D03*
X58360000Y11270000D03*
%TD*%
D46*
%TO.C,TP79*%
X12210001Y39350000D03*
%TD*%
D64*
%TO.C,Q83*%
X1290001Y6459974D03*
X1290001Y4559974D03*
X3165002Y5509974D03*
%TD*%
D16*
%TO.C,R97*%
X61350002Y10040000D03*
X62370000Y10040000D03*
%TD*%
D18*
%TO.C,R139*%
X960000Y54009998D03*
X-59998Y54009998D03*
%TD*%
D32*
%TO.C,C110*%
X82620000Y50640000D03*
X82620000Y49680000D03*
%TD*%
D16*
%TO.C,R114*%
X11930001Y43205000D03*
X12949999Y43205000D03*
%TD*%
D65*
%TO.C,F80*%
X36300000Y-522500D03*
X36300000Y1302500D03*
%TD*%
D25*
%TO.C,R85*%
X66539001Y15169974D03*
X66539001Y16189974D03*
%TD*%
D16*
%TO.C,R116*%
X81240001Y35970000D03*
X82259999Y35970000D03*
%TD*%
D25*
%TO.C,R96*%
X62739001Y16879974D03*
X62739001Y17899974D03*
%TD*%
%TO.C,R87*%
X69039001Y15169974D03*
X69039001Y16189974D03*
%TD*%
D41*
%TO.C,R146*%
X75320001Y44624886D03*
X75320001Y43604888D03*
%TD*%
D19*
%TO.C,C115*%
X12329997Y33300000D03*
X11369997Y33300000D03*
%TD*%
D32*
%TO.C,C128*%
X81425000Y11450000D03*
X81425000Y10490000D03*
%TD*%
D23*
%TO.C,C95*%
X27060000Y33060000D03*
X28020000Y33060000D03*
%TD*%
D25*
%TO.C,R83*%
X62380000Y61989975D03*
X62380000Y63009973D03*
%TD*%
D66*
%TO.C,U90*%
X91900000Y7922386D03*
D67*
X89350000Y9922386D03*
X89350000Y8922386D03*
X89350000Y7922386D03*
X89350000Y6922386D03*
X89350000Y5922386D03*
X94450000Y5922386D03*
X94450000Y6922386D03*
X94450000Y7922386D03*
X94450000Y8922386D03*
X94450000Y9922386D03*
%TD*%
D40*
%TO.C,Q80*%
X63339001Y13365000D03*
X61439001Y13365000D03*
X62389001Y11490000D03*
%TD*%
D19*
%TO.C,C113*%
X12330000Y32380000D03*
X11370000Y32380000D03*
%TD*%
D13*
%TO.C,CN79*%
X16115000Y1044973D03*
%TD*%
%TO.C,CN78*%
X79720001Y1049974D03*
%TD*%
M02*
