M48
; DRILL file {KiCad 9.0.6} date 2025-12-17T23:23:30+0100
; FORMAT={-:-/ absolute / inch / decimal}
; #@! TF.CreationDate,2025-12-17T23:23:30+01:00
; #@! TF.GenerationSoftware,Kicad,Pcbnew,9.0.6
; #@! TF.FileFunction,Plated,1,4,PTH
FMAT,2
INCH
; #@! TA.AperFunction,Plated,PTH,ViaDrill
T1C0.0079
; #@! TA.AperFunction,Plated,PTH,ViaDrill
T2C0.0098
; #@! TA.AperFunction,Plated,PTH,ViaDrill
T3C0.0118
; #@! TA.AperFunction,Plated,PTH,ComponentDrill
T4C0.0197
; #@! TA.AperFunction,Plated,PTH,ComponentDrill
T5C0.0197
; #@! TA.AperFunction,Plated,PTH,ComponentDrill
T6C0.0236
; #@! TA.AperFunction,Plated,PTH,ComponentDrill
T7C0.0315
; #@! TA.AperFunction,Plated,PTH,ComponentDrill
T8C0.0354
; #@! TA.AperFunction,Plated,PTH,ComponentDrill
T9C0.0512
; #@! TA.AperFunction,Plated,PTH,ComponentDrill
T10C0.1181
; #@! TA.AperFunction,Plated,PTH,ComponentDrill
T11C0.1260
%
G90
G05
T1
X0.3012Y1.0315
X0.3331Y1.1102
X0.435Y2.1484
X0.4548Y2.1484
X0.8086Y2.2138
X0.8284Y2.2138
X0.8547Y2.0469
X0.8716Y1.6696
X0.8744Y2.0469
X0.8855Y1.6556
X0.9492Y0.8104
X0.9689Y0.8104
X1.0076Y1.5207
X1.0086Y0.8102
X1.0274Y1.5207
X1.0284Y0.8102
X1.0669Y1.4772
X1.0677Y0.8108
X1.0874Y0.8108
X1.0918Y1.7056
X1.1058Y1.6916
X1.1267Y0.811
X1.1465Y0.811
X1.163Y2.3591
X1.1827Y2.3591
X1.1925Y2.0657
X1.2122Y2.0657
X1.2543Y2.3735
X1.2543Y2.3537
X1.2905Y2.0498
X1.3103Y2.0498
X1.4016Y2.3033
X1.4071Y2.3496
X1.4283Y2.337
X1.4283Y2.3173
X1.4465Y2.303
X1.4474Y2.3496
X1.4565Y2.2549
X1.4748Y0.2297
X1.4754Y0.2756
X1.4789Y2.287
X1.4789Y2.2673
X1.4878Y2.0602
X1.4884Y0.1195
X1.5035Y2.2547
X1.5075Y2.0602
X1.5081Y2.3004
X1.5159Y0.1169
X1.526Y0.2774
X1.5358Y0.1122
X1.563Y0.0707
X1.5865Y0.0589
X1.6191Y0.1909
X1.6195Y0.1106
X1.6197Y0.2386
X1.66Y2.0457
X1.6798Y2.0457
X1.7049Y0.2535
X1.7089Y0.2104
X1.7161Y0.328
X1.763Y0.3069
X1.7801Y0.7341
X1.7998Y0.7341
X1.8906Y2.2187
X1.8915Y2.2404
X1.913Y0.2033
X1.9138Y0.2671
X1.9159Y0.2297
X2.0059Y0.502
X2.0059Y0.4823
X2.0094Y0.3093
X2.0852Y0.2114
X2.1142Y0.502
X2.1142Y0.4823
X2.1926Y0.2342
X2.5339Y1.8264
X2.5339Y1.8067
X2.535Y1.6559
X2.535Y1.6362
X2.5354Y1.7445
X2.5354Y1.7248
X2.5803Y2.1839
X2.6Y2.1839
X2.6393Y2.1823
X2.6591Y2.1823
X2.6984Y2.1815
X2.7181Y2.1815
X2.7574Y2.1819
X2.7772Y2.1819
X2.8213Y1.8571
X2.8213Y1.8374
X2.8232Y1.7311
X2.837Y1.7638
X2.8756Y1.7252
X2.8953Y1.7252
X2.9244Y1.6701
X2.9441Y1.6701
X2.9742Y1.6892
X2.9939Y1.6892
X3.033Y1.672
X3.0528Y1.672
X3.0937Y1.7272
X3.1134Y1.7272
X3.2433Y1.4476
X3.4146Y1.6453
X3.4146Y1.6256
X3.4146Y1.5634
X3.4146Y1.5437
X3.4154Y1.5044
X3.4154Y1.4846
X3.453Y1.9006
X3.4693Y1.8843
X3.4724Y1.8656
X3.4724Y1.8478
X3.511Y0.9882
X3.511Y0.9685
X3.511Y0.9296
X3.511Y0.9098
X3.511Y0.8705
X3.511Y0.8508
X3.511Y0.8114
X3.511Y0.7917
X3.511Y0.7524
X3.511Y0.7326
T2
X1.264Y0.8933
X2.3075Y1.0604
X2.3085Y1.0024
X2.3116Y1.2697
X2.3138Y0.9378
X2.3272Y1.2512
X2.3276Y1.0024
X2.3311Y1.0618
X2.3356Y0.9407
X2.3362Y1.2965
X2.3478Y0.9604
X2.3484Y1.2665
X2.3492Y0.9864
X2.3494Y1.0044
X2.351Y1.0663
X2.3512Y1.0472
X2.3512Y1.026
X2.3638Y1.2961
X2.3671Y1.2508
X2.3671Y1.0026
X2.3746Y1.0618
X2.3921Y1.0026
X2.3963Y1.0618
X2.3967Y1.2967
X2.4243Y1.298
X2.4921Y2.073
X2.525Y1.2978
X2.5258Y1.2008
X2.5531Y1.1996
X2.5554Y2.0778
X2.6123Y2.0781
X2.6203Y1.1986
X2.6398Y0.5492
X2.6494Y0.3694
X2.6711Y2.0787
X2.6787Y0.4876
X2.6787Y0.3994
X2.7084Y0.3694
X2.7323Y2.0748
X2.7675Y0.3624
X2.7961Y1.2835
X2.7961Y1.2291
X2.7969Y0.3996
X2.7972Y1.3242
X2.7974Y0.486
X2.8255Y1.1757
X2.8268Y0.363
X2.8348Y0.5459
X3.1539Y1.3171
X3.1547Y1.2978
X3.1575Y1.348
X3.1673Y1.3303
X3.1677Y1.2323
X3.1709Y1.3091
X3.1811Y1.3474
X3.1884Y1.3305
X3.1904Y1.3104
X3.1953Y1.2896
X3.1953Y1.2689
X3.1953Y1.2441
X3.1953Y1.2195
X3.2028Y1.346
X3.2102Y1.3276
X3.2199Y1.2325
X3.2417Y0.1831
X3.248Y0.3224
X3.2906Y0.3208
X3.2907Y0.1831
X3.3602Y0.3209
X3.3602Y0.1831
X3.4062Y1.2484
X3.423Y1.2652
X3.4385Y1.2808
X3.4535Y1.2957
X3.4683Y1.3106
X3.4713Y1.3972
X3.4724Y1.3744
X3.4724Y1.3545
X3.4724Y1.3331
X3.7039Y1.4461
T3
X-0.1175Y0.9533
X-0.1175Y0.8943
X-0.1175Y0.8352
X-0.1175Y0.7762
X-0.1175Y0.7171
X-0.1175Y0.6581
X-0.1175Y0.599
X-0.1175Y0.54
X-0.1173Y2.377
X-0.1173Y2.3179
X-0.1173Y2.1291
X-0.1173Y2.0701
X-0.1173Y2.011
X-0.1173Y1.952
X-0.1173Y1.8929
X-0.1173Y1.8339
X-0.1173Y1.7748
X-0.1173Y1.7157
X-0.1173Y1.6567
X-0.1173Y1.5976
X-0.1173Y1.5386
X-0.1173Y1.4795
X-0.1173Y1.4205
X-0.1173Y1.3614
X-0.1173Y1.3024
X-0.1173Y1.2433
X-0.1173Y1.1843
X-0.1173Y1.1252
X-0.1173Y1.0661
X-0.1173Y1.0071
X-0.1173Y0.4661
X-0.1173Y0.4071
X-0.1173Y0.348
X-0.1173Y0.289
X-0.1173Y0.2299
X-0.1173Y0.1709
X-0.1173Y0.1118
X-0.0925Y1.4693
X-0.0925Y1.1591
X-0.0738Y0.3866
X-0.0575Y1.4264
X-0.05Y0.3685
X-0.0352Y1.214
X-0.0344Y1.3301
X-0.0331Y1.6205
X-0.0331Y1.5614
X-0.0331Y1.5024
X-0.0329Y1.7333
X-0.0329Y1.6742
X-0.0327Y1.4559
X-0.0327Y1.3969
X-0.0327Y1.1762
X-0.0323Y2.0969
X-0.0323Y2.0378
X-0.0323Y1.9787
X-0.0323Y1.9197
X-0.0323Y1.8606
X-0.0301Y1.365
X-0.0299Y1.2569
X-0.027Y2.1274
X-0.0238Y2.3037
X-0.0179Y0.198
X-0.0138Y0.9982
X-0.0055Y1.0807
X-0.003Y2.0203
X-0.002Y1.2848
X0.0142Y1.1986
X0.0262Y2.0028
X0.0289Y1.8537
X0.0484Y2.2242
X0.0563Y1.8541
X0.0724Y0.5638
X0.086Y1.8555
X0.0904Y2.2695
X0.1057Y2.6047
X0.1079Y1.7829
X0.1094Y1.4262
X0.1094Y1.3697
X0.1126Y1.4878
X0.1132Y1.6002
X0.1132Y1.549
X0.1138Y2.3093
X0.115Y1.3012
X0.115Y1.2663
X0.1156Y1.9181
X0.1201Y2.273
X0.1244Y0.185
X0.1301Y-0.1152
X0.1472Y2.2728
X0.1528Y0.1894
X0.1648Y2.6047
X0.1652Y1.2839
X0.1675Y2.3144
X0.1677Y2.3656
X0.1705Y1.4671
X0.1789Y1.3677
X0.1843Y1.189
X0.1843Y1.1376
X0.1898Y1.0791
X0.1972Y2.5343
X0.2041Y1.3307
X0.2059Y2.2691
X0.2075Y1.4278
X0.2083Y0.5136
X0.2148Y0.4689
X0.2154Y0.4185
X0.2197Y1.8858
X0.2211Y1.6839
X0.2211Y1.6189
X0.222Y1.5663
X0.2224Y1.9827
X0.2238Y0.2077
X0.2238Y2.6047
X0.2246Y2.3144
X0.2256Y-0.1152
X0.2268Y2.3656
X0.2281Y2.4581
X0.2283Y0.4421
X0.2295Y-0.0642
X0.2299Y0.4933
X0.2317Y1.953
X0.2429Y1.1376
X0.2431Y0.3075
X0.2433Y2.2805
X0.2563Y1.0596
X0.2685Y1.8917
X0.2685Y1.6807
X0.2685Y1.6541
X0.2685Y1.6283
X0.2689Y1.9154
X0.272Y0.5931
X0.2726Y-0.0179
X0.2829Y2.6047
X0.2848Y2.0793
X0.2967Y2.0963
X0.299Y2.538
X0.302Y-0.1154
X0.3069Y2.0213
X0.3096Y2.0797
X0.3134Y1.1441
X0.3177Y1.052
X0.3199Y2.4415
X0.3224Y1.3201
X0.3232Y2.3604
X0.3252Y2.0967
X0.3264Y1.9801
X0.328Y0.9256
X0.3388Y2.0791
X0.3417Y0.4683
X0.3419Y2.6047
X0.3441Y1.0852
X0.3443Y0.4173
X0.3474Y0.2884
X0.3594Y2.324
X0.361Y-0.1154
X0.3622Y2.1449
X0.3634Y0.4933
X0.3654Y1.1427
X0.3663Y0.9992
X0.3671Y0.4406
X0.3697Y0.1703
X0.3715Y0.4057
X0.3843Y2.0161
X0.397Y2.3616
X0.398Y2.1091
X0.401Y2.6047
X0.4045Y1.6703
X0.4049Y1.6205
X0.4049Y1.5713
X0.4063Y1.5242
X0.4085Y1.4268
X0.4087Y2.3226
X0.4098Y1.9821
X0.4114Y2.2787
X0.412Y2.54
X0.4165Y0.9976
X0.4193Y2.4453
X0.4193Y2.128
X0.4201Y-0.1154
X0.4205Y2.1726
X0.4281Y1.5667
X0.4321Y0.1616
X0.4402Y0.2862
X0.4404Y1.6213
X0.4423Y1.4055
X0.4537Y1.3504
X0.46Y2.6047
X0.46Y2.0437
X0.4622Y1.453
X0.4687Y2.172
X0.4693Y2.1246
X0.4703Y2.4803
X0.4722Y1.014
X0.4791Y-0.1154
X0.4821Y2.3624
X0.4821Y2.3226
X0.4837Y1.4963
X0.4878Y0.1992
X0.4881Y2.258
X0.4906Y1.1679
X0.4929Y1.3476
X0.4992Y0.5358
X0.5057Y1.4065
X0.5059Y0.314
X0.5104Y1.6254
X0.513Y2.2356
X0.5132Y1.5894
X0.5191Y2.6047
X0.5199Y2.4378
X0.523Y2.3616
X0.5382Y-0.1154
X0.5429Y2.5465
X0.5437Y1.115
X0.5445Y2.4533
X0.5575Y2.3274
X0.5579Y2.1246
X0.5579Y2.0951
X0.5583Y2.147
X0.5583Y0.1301
X0.5591Y2.3673
X0.5593Y0.3837
X0.56Y0.2642
X0.5705Y1.1201
X0.5724Y1.702
X0.5781Y2.6047
X0.5823Y2.0685
X0.5833Y2.3057
X0.5833Y1.6246
X0.5837Y1.1638
X0.5844Y1.3756
X0.5854Y1.274
X0.5856Y0.1549
X0.587Y0.4929
X0.5872Y2.4986
X0.5878Y1.4913
X0.5896Y2.0435
X0.5907Y0.8927
X0.5909Y2.3693
X0.5927Y1.0376
X0.5957Y1.6754
X0.5972Y-0.1154
X0.5996Y1.1037
X0.6012Y1.937
X0.6026Y2.1937
X0.6028Y2.1707
X0.6169Y2.378
X0.6191Y0.6498
X0.6224Y1.0831
X0.626Y1.9382
X0.6372Y2.6047
X0.639Y2.36
X0.6409Y2.389
X0.6478Y0.6848
X0.6486Y0.1884
X0.6543Y2.5002
X0.6563Y-0.1154
X0.6567Y1.9378
X0.6594Y1.085
X0.6637Y2.3733
X0.6659Y0.3043
X0.6665Y2.1994
X0.6679Y2.397
X0.6719Y2.1738
X0.6738Y2.0285
X0.6787Y2.2935
X0.6805Y2.0644
X0.6819Y1.1061
X0.6827Y1.937
X0.6846Y2.2589
X0.6858Y1.5551
X0.6862Y1.6254
X0.6866Y1.702
X0.687Y1.4012
X0.6882Y1.277
X0.6898Y0.4461
X0.6906Y0.9711
X0.6935Y1.1585
X0.6963Y2.6047
X0.6978Y1.0457
X0.7043Y2.0681
X0.7126Y0.547
X0.7154Y-0.1154
X0.7179Y0.311
X0.7179Y0.252
X0.7183Y-0.0535
X0.7195Y1.6764
X0.7199Y0.3703
X0.723Y1.4898
X0.7252Y1.6256
X0.726Y1.3258
X0.7299Y1.0197
X0.7305Y2.4988
X0.7309Y2.351
X0.7339Y0.602
X0.735Y1.1524
X0.7421Y2.3821
X0.7423Y0.7667
X0.7431Y2.0291
X0.7486Y1.9252
X0.7533Y0.4039
X0.7539Y1.8467
X0.7553Y2.6047
X0.7591Y0.6496
X0.7596Y1.549
X0.7612Y1.274
X0.7612Y1.2224
X0.7626Y1.4041
X0.7752Y1.7014
X0.7766Y1.9222
X0.7882Y0.9014
X0.7898Y2.4994
X0.7909Y1.0175
X0.7919Y2.0484
X0.7921Y1.1648
X0.7923Y2.2368
X0.7939Y0.4681
X0.7941Y2.1888
X0.7978Y1.6226
X0.7982Y0.9441
X0.7986Y1.8549
X0.8077Y1.7917
X0.8077Y1.7571
X0.8124Y0.4039
X0.8136Y0.9045
X0.8144Y2.6047
X0.8157Y1.5348
X0.8167Y1.2978
X0.8254Y1.4043
X0.8276Y0.776
X0.8317Y1.888
X0.8398Y1.5829
X0.8411Y2.1894
X0.8411Y2.0291
X0.8429Y2.2388
X0.8439Y1.0911
X0.8459Y1.664
X0.847Y0.7961
X0.8472Y2.5006
X0.8516Y1.3159
X0.8571Y1.1657
X0.8587Y1.7917
X0.8687Y0.8797
X0.8713Y2.1776
X0.8715Y0.4039
X0.8734Y2.6047
X0.876Y1.6963
X0.8772Y2.3055
X0.8805Y1.6293
X0.885Y2.0762
X0.8854Y1.4604
X0.8906Y2.2526
X0.8909Y2.0291
X0.8921Y1.5313
X0.8974Y1.8876
X0.898Y1.2858
X0.9049Y1.0197
X0.9061Y1.1711
X0.9069Y2.4988
X0.9077Y2.3675
X0.9081Y0.9378
X0.9124Y1.66
X0.9134Y1.5923
X0.9144Y1.1195
X0.9144Y1.078
X0.9224Y0.7988
X0.9252Y0.4037
X0.9291Y0.8289
X0.9325Y2.6047
X0.935Y2.3437
X0.9364Y2.0447
X0.9407Y2.1813
X0.9407Y1.8764
X0.9407Y1.4524
X0.9421Y1.5016
X0.9441Y2.287
X0.9449Y1.2224
X0.9463Y1.9425
X0.9476Y1.3967
X0.9594Y1.6967
X0.9618Y0.5862
X0.965Y2.3931
X0.9654Y1.1553
X0.9659Y2.4998
X0.9669Y1.6089
X0.9843Y1.1364
X0.9843Y0.4037
X0.9866Y1.7331
X0.9872Y0.7929
X0.9882Y0.9498
X0.9884Y1.5439
X0.9886Y1.5
X0.989Y0.9181
X0.9892Y0.8295
X0.9894Y1.8522
X0.9904Y1.9392
X0.9904Y1.6744
X0.9909Y2.028
X0.9913Y1.1079
X0.9915Y2.6047
X0.9923Y2.2344
X0.9949Y2.176
X1.0045Y2.3433
X1.0144Y1.7632
X1.0248Y2.499
X1.0254Y1.2744
X1.0281Y2.3953
X1.0293Y2.3681
X1.035Y2.2156
X1.0425Y1.576
X1.0429Y1.6967
X1.0431Y1.5443
X1.0433Y0.4037
X1.048Y0.648
X1.0486Y0.7929
X1.0494Y0.8303
X1.0506Y2.6047
X1.0506Y2.0695
X1.0508Y0.5256
X1.0531Y2.1746
X1.0591Y1.5073
X1.0644Y1.237
X1.0648Y1.1992
X1.0654Y1.2736
X1.0667Y1.6992
X1.0673Y1.6242
X1.074Y2.3433
X1.0844Y2.4986
X1.0854Y1.0112
X1.088Y1.0301
X1.088Y1.1079
X1.0923Y2.1768
X1.0931Y2.2122
X1.0978Y1.6671
X1.099Y1.4709
X1.1016Y1.923
X1.102Y1.7321
X1.102Y1.2364
X1.1024Y1.2713
X1.1024Y0.4037
X1.1033Y2.0289
X1.1067Y0.9187
X1.1069Y0.9498
X1.1073Y0.8291
X1.1081Y1.3419
X1.1081Y0.7939
X1.1089Y1.0193
X1.1096Y2.6047
X1.1128Y2.3821
X1.115Y1.4421
X1.1167Y1.5461
X1.1173Y1.486
X1.1278Y1.4677
X1.1295Y1.6986
X1.1323Y0.5837
X1.1325Y2.2181
X1.1437Y2.4986
X1.1441Y1.1681
X1.1449Y1.486
X1.1469Y2.3809
X1.1476Y2.3378
X1.1522Y2.0285
X1.1614Y0.4037
X1.1614Y1.6018
X1.1636Y1.4683
X1.1661Y1.0224
X1.1667Y0.8291
X1.1685Y2.0748
X1.1687Y2.6047
X1.1705Y0.7988
X1.172Y2.1762
X1.176Y2.0415
X1.177Y0.9498
X1.1827Y1.1
X1.1862Y1.2039
X1.1866Y1.8018
X1.1876Y1.7327
X1.1913Y1.3502
X1.1921Y1.8494
X1.1976Y2.3825
X1.199Y2.3378
X1.2028Y2.4994
X1.2124Y0.9047
X1.2171Y1.8281
X1.2205Y0.4037
X1.2222Y2.2232
X1.2248Y1.5254
X1.2254Y2.2902
X1.2262Y1.8801
X1.2272Y2.0409
X1.2278Y2.6047
X1.228Y1.05
X1.2287Y2.3636
X1.2293Y2.1758
X1.2297Y1.285
X1.237Y2.075
X1.2392Y0.5969
X1.24Y1.9047
X1.2486Y1.6431
X1.2535Y1.8248
X1.2593Y2.3992
X1.2612Y2.4996
X1.263Y0.6476
X1.2687Y1.3299
X1.2695Y1.05
X1.2699Y2.2341
X1.2703Y2.1746
X1.2707Y1.8862
X1.2719Y2.3378
X1.2732Y2.0746
X1.2744Y2.0283
X1.2744Y1.4469
X1.2795Y0.4037
X1.2815Y2.6045
X1.2815Y1.5197
X1.2882Y0.9098
X1.2909Y1.7219
X1.3024Y0.8697
X1.3094Y0.8429
X1.3106Y1.447
X1.3114Y1.499
X1.3138Y1.05
X1.3189Y1.0896
X1.3215Y2.4984
X1.3228Y2.3878
X1.3252Y1.9659
X1.3274Y2.0722
X1.3307Y2.2967
X1.3311Y2.035
X1.3329Y2.2344
X1.3343Y1.1341
X1.3354Y0.572
X1.3372Y2.3589
X1.3386Y0.4037
X1.3406Y2.6045
X1.3457Y0.6545
X1.3478Y0.8026
X1.348Y1.7976
X1.348Y1.4472
X1.3539Y0.9923
X1.3555Y1.1248
X1.3561Y2.1748
X1.3581Y1.0803
X1.3612Y0.7094
X1.3707Y1.3343
X1.3715Y0.4616
X1.3736Y0.3726
X1.3736Y0.3136
X1.3736Y0.2545
X1.3738Y0.9498
X1.3746Y2.4984
X1.376Y0.0746
X1.376Y0.0156
X1.376Y-0.0435
X1.3762Y-0.1165
X1.3835Y2.199
X1.3852Y1.4476
X1.3884Y2.0565
X1.3913Y1.025
X1.3921Y1.248
X1.3921Y1.2069
X1.3921Y1.1606
X1.3927Y1.2909
X1.3935Y1.1136
X1.3976Y1.9724
X1.3996Y2.6045
X1.4016Y0.9907
X1.4091Y2.178
X1.4124Y0.6506
X1.4154Y0.4984
X1.4161Y0.4461
X1.4165Y0.4059
X1.4165Y0.363
X1.4236Y1.7199
X1.4252Y1.4476
X1.4281Y1.9996
X1.4323Y1.8596
X1.4323Y0.7409
X1.4352Y-0.1165
X1.437Y1.9341
X1.4372Y-0.0728
X1.4388Y0.5526
X1.4472Y2.5154
X1.4547Y0.8528
X1.4587Y2.6045
X1.4589Y1.4982
X1.4618Y0.5886
X1.465Y2.0429
X1.4654Y0.4285
X1.4654Y2.075
X1.4689Y2.1913
X1.4711Y2.5459
X1.4734Y0.0128
X1.474Y1.4482
X1.4758Y-0.0313
X1.4766Y1.0224
X1.4783Y1.1179
X1.4783Y1.0785
X1.4787Y1.1972
X1.4797Y1.9732
X1.4809Y0.9317
X1.4846Y1.3447
X1.4864Y1.5258
X1.487Y1.6545
X1.4901Y0.1469
X1.4907Y0.2524
X1.4917Y1.499
X1.4943Y-0.1165
X1.4953Y0.6699
X1.4957Y-0.0331
X1.4963Y0.7614
X1.5065Y2.5132
X1.5068Y0.1637
X1.5126Y1.9004
X1.5134Y-0.0738
X1.5138Y-0.0331
X1.5144Y0.2524
X1.5177Y2.6045
X1.5217Y1.9689
X1.5236Y2.0378
X1.5256Y2.1748
X1.5283Y2.0764
X1.5315Y-0.0331
X1.5396Y0.0553
X1.5411Y0.3746
X1.5433Y2.5425
X1.5433Y2.3933
X1.5492Y-0.0331
X1.5533Y-0.1165
X1.5543Y0.5661
X1.5555Y0.3555
X1.5581Y2.0663
X1.5602Y1.8272
X1.5644Y0.6872
X1.5705Y2.3996
X1.5707Y0.3776
X1.575Y2.3616
X1.5768Y2.6045
X1.5772Y-0.072
X1.5827Y0.4482
X1.5843Y1.7077
X1.5862Y0.3563
X1.5923Y2.1986
X1.5951Y0.8539
X1.5969Y2.0575
X1.5986Y2.4002
X1.5998Y0.9453
X1.6002Y2.5138
X1.6122Y0.6159
X1.6124Y-0.1165
X1.6165Y2.0752
X1.6215Y2.3128
X1.6232Y2.1752
X1.6358Y2.6045
X1.6362Y2.5425
X1.6425Y2.0297
X1.6437Y2.0665
X1.6441Y0.9051
X1.6469Y1.1837
X1.6474Y1.5033
X1.6502Y1.074
X1.6506Y1.7276
X1.6547Y1.2919
X1.6559Y1.3447
X1.6563Y1.4496
X1.6569Y0.9959
X1.6569Y0.3569
X1.6636Y2.5126
X1.664Y1.8081
X1.664Y0.0624
X1.6646Y0.0888
X1.665Y1.9766
X1.665Y0.5154
X1.6679Y2.328
X1.6715Y-0.1165
X1.6732Y0.3778
X1.674Y-0.076
X1.6781Y2.378
X1.6781Y0.0762
X1.686Y0.8268
X1.6876Y2.2549
X1.6888Y1.8835
X1.6888Y1.602
X1.6892Y2.0667
X1.6896Y0.3567
X1.6943Y0.0864
X1.6949Y2.6045
X1.6961Y0.0616
X1.6978Y2.0287
X1.6986Y0.5571
X1.6992Y0.9713
X1.6996Y0.3746
X1.7087Y0.4453
X1.7115Y0.1617
X1.7142Y0.1098
X1.7149Y0.2834
X1.7173Y-0.0346
X1.7199Y1.0974
X1.7205Y1.3447
X1.7238Y0.7319
X1.7283Y0.145
X1.7287Y-0.0738
X1.7295Y1.9652
X1.7305Y-0.1165
X1.7316Y0.3001
X1.7327Y1.7051
X1.7331Y1.4502
X1.7335Y2.2551
X1.7344Y1.2331
X1.7358Y2.0713
X1.736Y0.1191
X1.7376Y2.3093
X1.7376Y2.1988
X1.749Y2.6047
X1.7504Y1.5055
X1.751Y0.1329
X1.7571Y1.3909
X1.7596Y0.4746
X1.7596Y0.436
X1.7602Y0.7892
X1.7614Y1.2232
X1.7636Y0.7124
X1.7654Y0.7567
X1.773Y0.11
X1.7772Y0.0789
X1.7813Y0.1329
X1.7823Y1.8346
X1.7843Y0.8656
X1.7854Y0.0319
X1.7864Y1.7465
X1.7894Y1.128
X1.7896Y-0.1165
X1.7933Y2.0703
X1.7963Y1.3419
X1.7996Y1.4439
X1.8035Y2.3756
X1.8043Y2.3281
X1.8047Y2.1843
X1.8053Y0.1035
X1.8055Y0.0849
X1.8081Y2.6047
X1.813Y0.3303
X1.8142Y2.2551
X1.8142Y0.7563
X1.8144Y0.9963
X1.815Y0.7118
X1.8163Y-0.0575
X1.8201Y0.6341
X1.8203Y0.8148
X1.8207Y0.2171
X1.8209Y1.1274
X1.826Y0.3156
X1.8264Y-0.0157
X1.827Y1.3427
X1.8406Y2.5102
X1.8423Y0.9675
X1.8476Y2.5626
X1.8486Y-0.1165
X1.849Y1.4439
X1.8528Y2.398
X1.8541Y1.9396
X1.8573Y2.0701
X1.8596Y1.3427
X1.86Y1.2307
X1.862Y2.3093
X1.8669Y0.0937
X1.8671Y2.6047
X1.8683Y2.2055
X1.8691Y2.253
X1.8705Y1.2051
X1.8717Y2.5004
X1.8772Y1.0618
X1.8795Y0.1163
X1.8833Y1.9181
X1.8854Y1.4445
X1.887Y0.0984
X1.8896Y2.3984
X1.8915Y0.6461
X1.8955Y0.7642
X1.8994Y1.9343
X1.902Y1.0402
X1.9028Y1.1268
X1.903Y2.503
X1.9035Y0.0203
X1.9041Y0.9657
X1.9047Y-0.0146
X1.9063Y0.4238
X1.9065Y0.5508
X1.9077Y-0.1165
X1.9096Y1.7888
X1.9106Y0.0772
X1.9118Y1.8632
X1.9144Y2.2057
X1.9154Y2.2516
X1.9169Y2.3285
X1.9209Y2.0675
X1.9262Y1.2909
X1.9262Y2.6047
X1.9274Y1.4445
X1.9319Y1.6965
X1.9325Y1.9435
X1.9343Y2.3073
X1.9368Y1.128
X1.9376Y0.4179
X1.9382Y2.3984
X1.9409Y0.0846
X1.9469Y1.2732
X1.9472Y0.7114
X1.9488Y2.5882
X1.9516Y0.3854
X1.9541Y2.512
X1.9547Y0.8677
X1.9551Y0.528
X1.9596Y0.8144
X1.9622Y0.4114
X1.9667Y-0.1165
X1.9705Y2.5272
X1.9807Y2.203
X1.9807Y2.1823
X1.9819Y1.1986
X1.9825Y0.4913
X1.9852Y2.6047
X1.9872Y0.2118
X1.9894Y0.3193
X1.9894Y0.1884
X1.9927Y0.6341
X1.9976Y0.2283
X1.9988Y1.0854
X1.9988Y-0.06
X2.002Y2.5339
X2.002Y2.515
X2.0024Y2.5531
X2.0031Y1.6435
X2.0042Y0.2752
X2.0045Y1.4803
X2.0051Y1.7402
X2.0051Y1.5543
X2.0053Y1.4551
X2.0059Y1.3486
X2.0059Y0.9175
X2.0063Y1.8866
X2.0063Y0.7685
X2.0063Y0.0772
X2.0067Y0.4561
X2.0077Y0.1945
X2.0085Y0.0531
X2.0087Y2.3789
X2.0087Y0.5289
X2.0096Y0.8407
X2.0224Y-0.0156
X2.0236Y0.2199
X2.0258Y-0.1165
X2.0402Y2.5079
X2.0443Y2.6047
X2.0522Y2.2728
X2.0528Y2.3732
X2.0567Y0.1104
X2.0575Y0.0874
X2.0585Y0.4943
X2.0799Y2.3685
X2.0803Y2.5075
X2.0807Y2.0726
X2.0835Y2.1896
X2.0848Y-0.1165
X2.098Y2.2545
X2.1012Y0.4374
X2.1033Y2.6047
X2.1049Y0.6719
X2.1055Y1.9746
X2.1067Y1.2955
X2.1067Y1.2598
X2.1081Y1.9394
X2.1091Y0.7443
X2.11Y1.8943
X2.1108Y1.1604
X2.1112Y1.6923
X2.1112Y1.5325
X2.1112Y0.5285
X2.1116Y1.0126
X2.1126Y2.0331
X2.1128Y0.5717
X2.1144Y1.3522
X2.1152Y1.4553
X2.1152Y0.4569
X2.1179Y0.8892
X2.122Y1.8053
X2.1224Y0.3167
X2.1226Y1.4793
X2.1238Y0.2917
X2.1272Y2.2705
X2.128Y2.1821
X2.1281Y1.3417
X2.1299Y2.3974
X2.1358Y0.4927
X2.1437Y1.4594
X2.1439Y-0.1165
X2.1439Y1.3516
X2.147Y1.5453
X2.1482Y1.4799
X2.149Y0.0813
X2.1526Y1.5085
X2.153Y1.4055
X2.1549Y1.9388
X2.1571Y0.3917
X2.1587Y1.8929
X2.1591Y0.128
X2.1591Y0.1039
X2.1593Y0.4161
X2.1594Y-0.0118
X2.1596Y0.5171
X2.1624Y1.2848
X2.1624Y2.6047
X2.1635Y1.3863
X2.1636Y0.8287
X2.1636Y1.4249
X2.1644Y0.6024
X2.1667Y0.0274
X2.1671Y0.6837
X2.1685Y1.4543
X2.1715Y1.3252
X2.172Y1.5364
X2.172Y0.0805
X2.1746Y1.4809
X2.1749Y1.4048
X2.1752Y-0.0596
X2.1807Y1.6285
X2.1843Y1.7463
X2.1855Y1.3856
X2.1856Y1.4242
X2.1896Y1.173
X2.1925Y1.4539
X2.1925Y0.0805
X2.1965Y0.7831
X2.1969Y1.4053
X2.197Y1.4797
X2.199Y1.3059
X2.1992Y2.176
X2.202Y1.0173
X2.2022Y1.0402
X2.2022Y0.9963
X2.2022Y0.9719
X2.203Y-0.1165
X2.2031Y2.2014
X2.2069Y2.2656
X2.2075Y1.3861
X2.2076Y1.4246
X2.21Y2.374
X2.2154Y0.0811
X2.2154Y0.0274
X2.2161Y2.6045
X2.2189Y1.405
X2.2191Y1.0053
X2.2193Y1.0551
X2.2193Y1.0281
X2.2193Y0.9843
X2.2193Y0.9598
X2.2199Y1.4555
X2.2228Y1.4742
X2.2228Y0.8669
X2.2262Y0.128
X2.2262Y0.1039
X2.2295Y1.3857
X2.2296Y1.4243
X2.2303Y0.8362
X2.2315Y0.415
X2.2315Y0.3917
X2.2329Y-0.0596
X2.2335Y-0.011
X2.2339Y1.072
X2.2356Y0.0813
X2.2409Y1.4049
X2.2433Y1.4543
X2.2453Y1.09
X2.2478Y1.8047
X2.2515Y1.3857
X2.2516Y1.4243
X2.2516Y1.3161
X2.2516Y1.287
X2.252Y0.4289
X2.2543Y2.2648
X2.2543Y1.699
X2.2557Y0.2949
X2.2571Y0.2671
X2.262Y-0.1165
X2.2629Y1.4051
X2.2632Y2.1957
X2.2636Y0.2425
X2.2735Y1.3859
X2.2735Y1.4245
X2.2768Y0.5531
X2.2768Y0.5061
X2.278Y2.6049
X2.2815Y2.3957
X2.2835Y2.0104
X2.2844Y2.512
X2.2849Y1.4047
X2.2955Y1.3855
X2.2955Y1.4241
X2.3031Y-0.039
X2.3069Y1.4054
X2.315Y2.1736
X2.3185Y0.6317
X2.3211Y-0.1165
X2.3224Y0.5756
X2.3236Y0.0803
X2.328Y2.2652
X2.3283Y0.8366
X2.3344Y0.0343
X2.3372Y2.6051
X2.3413Y2.1976
X2.3423Y1.7116
X2.3425Y1.9994
X2.351Y2.3949
X2.353Y2.5173
X2.3549Y0.6234
X2.3561Y0.577
X2.3614Y0.1665
X2.3614Y0.112
X2.3652Y0.3689
X2.3673Y2.1925
X2.3673Y2.013
X2.3801Y-0.1165
X2.3803Y0.6622
X2.3809Y0.7537
X2.3851Y0.781
X2.3852Y0.6923
X2.3878Y2.3764
X2.388Y1.9228
X2.399Y2.6055
X2.4Y2.1933
X2.4012Y1.9968
X2.4067Y0.7429
X2.4181Y1.5026
X2.4203Y2.389
X2.4205Y2.2055
X2.4207Y0.3642
X2.422Y2.263
X2.423Y2.5124
X2.4262Y1.4819
X2.4287Y1.9037
X2.4339Y2.1866
X2.4341Y0.2248
X2.4354Y0.7537
X2.4374Y0.6894
X2.4392Y-0.1165
X2.4407Y0.593
X2.4411Y0.6411
X2.4413Y0.3423
X2.4431Y1.5177
X2.4441Y-0.0419
X2.4449Y0.5435
X2.448Y1.887
X2.45Y0.3612
X2.4528Y2.6053
X2.4591Y2.177
X2.46Y0.3169
X2.461Y0.2876
X2.4632Y2.3895
X2.465Y0.2616
X2.4671Y1.4974
X2.4693Y0.7224
X2.4732Y0.1258
X2.4778Y0.922
X2.4781Y0.9563
X2.4781Y0.9873
X2.4813Y2.265
X2.4852Y1.5388
X2.4878Y0.9724
X2.4882Y0.9394
X2.4898Y2.3768
X2.4913Y0.3713
X2.4915Y2.1776
X2.4921Y0.6295
X2.497Y0.9892
X2.4972Y0.9563
X2.4976Y0.922
X2.4982Y-0.1165
X2.4996Y0.7272
X2.5037Y2.5116
X2.5037Y1.5154
X2.5041Y0.678
X2.5059Y0.5748
X2.5073Y0.7709
X2.5087Y1.9004
X2.5089Y0.9724
X2.5093Y0.9394
X2.5112Y1.8425
X2.5118Y2.6053
X2.5134Y1.6719
X2.5136Y1.7904
X2.5152Y1.7083
X2.5152Y1.6193
X2.5171Y1.762
X2.5175Y2.3819
X2.5185Y0.9892
X2.5187Y0.9563
X2.5191Y0.922
X2.5213Y2.1992
X2.5303Y0.9724
X2.5303Y0.2311
X2.5305Y0.4638
X2.5307Y0.9394
X2.5309Y0.6041
X2.5323Y0.8825
X2.5323Y0.835
X2.5337Y1.4854
X2.5429Y0.5453
X2.5429Y0.3817
X2.5512Y2.2644
X2.552Y-0.1167
X2.553Y1.5425
X2.5555Y1.8402
X2.5565Y1.7902
X2.5567Y1.6207
X2.5571Y1.6711
X2.5573Y2.3933
X2.5577Y1.7616
X2.5577Y1.7106
X2.5589Y0.8632
X2.5591Y1.9963
X2.5593Y2.5116
X2.5596Y2.1713
X2.56Y0.8226
X2.5614Y0.6567
X2.5634Y1.4841
X2.5661Y2.2053
X2.5693Y0.1492
X2.5709Y2.6053
X2.5709Y0.3846
X2.585Y-0.0118
X2.5864Y0.4071
X2.6083Y0.3709
X2.611Y-0.1167
X2.6126Y0.4813
X2.6183Y2.1713
X2.6185Y1.5667
X2.6185Y1.4866
X2.6195Y1.0098
X2.6195Y0.8898
X2.6197Y0.6567
X2.6199Y2.2646
X2.6199Y2.2028
X2.6203Y1.1797
X2.6209Y2.3774
X2.6215Y2.5106
X2.6299Y2.6053
X2.6344Y0.823
X2.6346Y0.7264
X2.6372Y0.6827
X2.6492Y0.2299
X2.6591Y0.6567
X2.6665Y-0.0553
X2.6701Y-0.1167
X2.6774Y2.2663
X2.6778Y1.3439
X2.678Y2.3764
X2.6783Y2.172
X2.6783Y1.1841
X2.6783Y1.0051
X2.6787Y1.502
X2.6789Y2.2022
X2.6829Y2.5102
X2.6872Y0.8931
X2.689Y2.6053
X2.7087Y0.2291
X2.7136Y0.099
X2.7181Y0.6567
X2.7252Y0.8114
X2.726Y0.7248
X2.7291Y-0.1167
X2.7315Y-0.0083
X2.7333Y0.8465
X2.7364Y0.9313
X2.7364Y0.6781
X2.7372Y2.2663
X2.7372Y1.0093
X2.7378Y2.2016
X2.7378Y2.1717
X2.7382Y2.377
X2.7386Y1.2722
X2.7388Y1.7374
X2.7392Y2.5122
X2.7398Y1.1805
X2.748Y2.6053
X2.7571Y0.6567
X2.7667Y0.2278
X2.7882Y-0.1167
X2.7911Y1.1409
X2.7927Y2.0728
X2.7953Y1.1677
X2.7965Y1.5841
X2.7969Y1.5256
X2.798Y2.2012
X2.7984Y1.664
X2.7996Y2.5122
X2.8004Y1.7195
X2.8006Y2.3919
X2.8006Y1.8728
X2.801Y1.8226
X2.8012Y2.1726
X2.8018Y2.2657
X2.8071Y2.6053
X2.814Y0.8053
X2.8165Y0.6567
X2.8167Y0.7211
X2.826Y0.2274
X2.827Y2.3244
X2.8323Y2.1913
X2.8325Y0.6799
X2.8376Y0.1136
X2.8396Y1.7882
X2.8437Y1.8719
X2.8457Y1.8226
X2.8461Y2.0724
X2.8472Y-0.1167
X2.8476Y-0.0028
X2.8522Y2.3303
X2.8545Y0.9707
X2.8553Y1.0104
X2.8555Y0.6567
X2.8573Y2.3797
X2.8577Y0.9248
X2.8606Y0.3949
X2.8648Y1.7525
X2.8661Y2.6053
X2.8663Y2.1967
X2.8697Y0.4815
X2.8701Y2.3496
X2.8728Y1.0545
X2.8766Y0.9055
X2.885Y1.0244
X2.888Y0.3108
X2.8939Y0.8882
X2.8966Y2.1998
X2.9002Y2.337
X2.9016Y2.2652
X2.9024Y0.3951
X2.9028Y1.0972
X2.9043Y2.0715
X2.9063Y-0.1167
X2.9079Y1.6994
X2.9081Y1.749
X2.9093Y1.3575
X2.9093Y1.3366
X2.9094Y1.2915
X2.9096Y1.3146
X2.9096Y1.2665
X2.9104Y1.8242
X2.9104Y1.5931
X2.9128Y0.4427
X2.9142Y1.0382
X2.915Y0.6567
X2.9189Y1.0827
X2.9193Y0.7437
X2.9203Y2.6055
X2.9222Y2.1764
X2.9238Y-0.0531
X2.9246Y0.8671
X2.9301Y0.5514
X2.9344Y0.8057
X2.9346Y0.7761
X2.9354Y0.3593
X2.9449Y0.4207
X2.9465Y0.6358
X2.9522Y0.8218
X2.9522Y0.7612
X2.9524Y0.7922
X2.9547Y0.487
X2.9593Y1.5909
X2.9596Y1.3575
X2.9596Y1.336
X2.9598Y1.2909
X2.96Y1.314
X2.9614Y0.8671
X2.9616Y0.7081
X2.9617Y1.2676
X2.9624Y1.6583
X2.9654Y-0.1167
X2.9683Y0.3815
X2.9699Y0.8342
X2.9713Y0.8058
X2.9713Y0.7465
X2.9713Y0.5947
X2.9715Y0.7762
X2.9736Y2.3915
X2.9778Y0.3545
X2.9793Y2.6055
X2.9852Y0.0963
X2.9882Y0.163
X2.9886Y0.1276
X2.989Y0.8218
X2.9963Y0.4943
X2.9982Y0.8671
X2.9998Y0.3325
X3.0067Y0.8343
X3.0067Y0.8058
X3.0098Y1.6596
X3.0102Y0.1439
X3.011Y1.6053
X3.0128Y1.3575
X3.0128Y1.336
X3.013Y1.2909
X3.0132Y1.314
X3.0138Y0.1789
X3.0156Y1.2684
X3.0165Y-0.0102
X3.0169Y0.1152
X3.0169Y0.0876
X3.0175Y0.0423
X3.0195Y-0.1165
X3.0213Y1.6949
X3.0215Y0.5179
X3.0217Y0.7669
X3.0224Y0.2703
X3.0226Y0.3033
X3.0226Y0.2386
X3.0228Y2.2303
X3.023Y2.1748
X3.0234Y0.2043
X3.0238Y2.0736
X3.0244Y0.8218
X3.0313Y2.5022
X3.0337Y0.8671
X3.0378Y-0.0431
X3.0382Y0.9451
X3.0382Y0.9207
X3.0384Y2.6055
X3.0402Y0.1793
X3.0421Y0.8343
X3.0421Y0.8058
X3.0451Y0.152
X3.0463Y0.1207
X3.0469Y0.4945
X3.0484Y0.6996
X3.0561Y0.9333
X3.0598Y0.8218
X3.0622Y0.2998
X3.0622Y0.2728
X3.0622Y0.2441
X3.0622Y0.2157
X3.0687Y0.1634
X3.0691Y0.8671
X3.0713Y0.5175
X3.0717Y1.7004
X3.0717Y0.7669
X3.0717Y0.7394
X3.0717Y0.713
X3.0717Y0.6835
X3.0726Y1.3575
X3.0726Y1.3358
X3.0728Y1.8146
X3.0728Y1.6587
X3.0728Y1.2907
X3.073Y1.5937
X3.073Y1.3138
X3.073Y1.2657
X3.0732Y0.1376
X3.074Y1.8697
X3.074Y0.9213
X3.0756Y2.1748
X3.0776Y0.8343
X3.0776Y0.8058
X3.0785Y-0.1165
X3.0799Y0.3133
X3.0799Y0.2874
X3.0799Y0.2604
X3.0799Y0.2316
X3.0799Y0.2033
X3.0811Y1.7498
X3.0823Y0.9437
X3.0953Y0.8217
X3.0955Y2.0409
X3.0961Y0.6996
X3.097Y0.4945
X3.0974Y2.6055
X3.0976Y0.3258
X3.0976Y0.2998
X3.0976Y0.2728
X3.0976Y0.2441
X3.0976Y0.2157
X3.099Y0.162
X3.1014Y2.5781
X3.1028Y1.9933
X3.1045Y0.8669
X3.1071Y2.2327
X3.1071Y2.1921
X3.1114Y2.534
X3.113Y0.8341
X3.113Y0.8056
X3.1138Y0.9156
X3.1154Y0.3133
X3.1154Y0.2874
X3.1154Y0.2604
X3.1154Y0.2316
X3.1154Y0.2033
X3.1213Y0.7669
X3.1248Y2.2202
X3.1248Y2.1797
X3.1268Y1.3486
X3.1268Y1.3276
X3.1268Y1.3031
X3.128Y0.1616
X3.1285Y1.7492
X3.1285Y1.7041
X3.1291Y2.5465
X3.1307Y0.8217
X3.1331Y0.3258
X3.1331Y0.2998
X3.1331Y0.2728
X3.1331Y0.2441
X3.1331Y0.2157
X3.136Y1.5244
X3.1376Y-0.1165
X3.14Y0.8669
X3.1402Y1.5815
X3.1425Y2.2327
X3.1425Y2.1921
X3.1469Y2.5339
X3.1484Y0.8341
X3.1484Y0.8056
X3.1508Y0.3133
X3.1508Y0.2874
X3.1508Y0.2604
X3.1508Y0.2316
X3.1508Y0.2033
X3.1565Y2.6055
X3.1581Y2.0423
X3.1602Y2.2202
X3.1602Y2.1797
X3.1646Y2.5463
X3.1661Y0.8217
X3.1663Y0.7852
X3.1685Y0.2998
X3.1685Y0.2728
X3.1685Y0.2441
X3.1685Y0.2157
X3.1701Y0.4402
X3.1752Y0.6455
X3.1766Y0.4911
X3.178Y2.2327
X3.178Y2.1921
X3.1787Y0.54
X3.1821Y0.8055
X3.1823Y2.5339
X3.1876Y1.9315
X3.1957Y2.2202
X3.1957Y2.1797
X3.1967Y-0.1165
X3.198Y0.7348
X3.2Y2.5463
X3.2012Y1.8947
X3.2053Y0.1425
X3.2114Y1.5215
X3.2134Y2.2327
X3.2134Y2.1921
X3.2134Y0.4787
X3.2156Y2.6055
X3.2171Y1.9703
X3.2177Y2.5339
X3.2189Y1.6888
X3.2195Y1.7866
X3.228Y0.5079
X3.2311Y2.2201
X3.2311Y2.1795
X3.2325Y2.474
X3.2325Y2.3677
X3.2325Y2.4386
X3.2325Y2.4031
X3.2327Y2.5094
X3.2329Y0.1321
X3.2354Y2.5463
X3.2394Y0.7614
X3.2409Y1.8488
X3.245Y2.4563
X3.245Y2.4209
X3.245Y2.3854
X3.2451Y2.4917
X3.2488Y2.2325
X3.2488Y2.192
X3.2496Y1.335
X3.251Y2.0449
X3.251Y1.4699
X3.2531Y2.5339
X3.2539Y2.578
X3.2551Y1.1699
X3.2557Y-0.1165
X3.2731Y2.474
X3.2731Y2.3677
X3.2731Y2.4386
X3.2731Y2.4031
X3.2732Y2.5094
X3.2746Y2.6055
X3.277Y0.7144
X3.2825Y1.7114
X3.2843Y1.347
X3.2843Y0.2106
X3.2852Y1.7915
X3.2855Y2.4563
X3.2855Y2.4209
X3.2855Y2.3854
X3.2857Y2.4917
X3.2858Y1.1514
X3.2866Y0.2394
X3.2878Y0.2748
X3.2949Y1.5945
X3.3071Y2.1417
X3.3138Y1.1339
X3.3148Y-0.1165
X3.3159Y0.687
X3.3165Y0.4264
X3.3165Y0.0785
X3.3171Y1.1732
X3.3217Y2.5378
X3.322Y0.4785
X3.3266Y0.4037
X3.3266Y0.3774
X3.3266Y0.1276
X3.3266Y0.1012
X3.3295Y0.0587
X3.3299Y1.6778
X3.3307Y1.0974
X3.3337Y2.6055
X3.3396Y0.4272
X3.3396Y0.0778
X3.3396Y0.0382
X3.35Y0.0587
X3.3571Y0.6087
X3.36Y0.4272
X3.36Y0.0778
X3.3624Y0.0388
X3.3728Y0.0593
X3.3738Y-0.1165
X3.3744Y0.5673
X3.3752Y1.7163
X3.3813Y2.5175
X3.3827Y0.039
X3.3829Y0.4266
X3.3829Y0.0783
X3.3868Y2.6053
X3.3896Y1.1445
X3.3896Y0.602
X3.3931Y0.0594
X3.3937Y0.4037
X3.3937Y0.3774
X3.3937Y0.1276
X3.3937Y0.1012
X3.3959Y1.661
X3.3967Y1.6059
X3.3969Y1.5799
X3.3969Y1.4661
X3.397Y1.5246
X3.3972Y1.79
X3.3978Y2.0581
X3.4026Y1.3797
X3.4031Y0.4264
X3.4031Y0.0785
X3.4045Y1.4305
X3.4055Y0.4823
X3.4077Y1.1667
X3.4133Y0.7135
X3.4152Y0.7722
X3.4154Y0.8929
X3.4157Y0.9502
X3.4197Y0.8303
X3.4236Y2.4366
X3.4329Y-0.1165
X3.4335Y0.2652
X3.4344Y1.5242
X3.4348Y1.6102
X3.4348Y1.4673
X3.4352Y1.66
X3.4356Y1.5781
X3.4362Y0.2961
X3.4374Y0.6055
X3.4388Y2.1417
X3.4459Y2.6053
X3.4461Y2.1057
X3.4484Y-0.0915
X3.449Y2.4683
X3.4567Y2.5354
X3.4573Y1.2455
X3.4695Y0.4809
X3.4724Y0.3201
X3.4734Y0.5463
X3.4736Y0.4508
X3.4766Y2.0764
X3.4787Y-0.0091
X3.4789Y2.4754
X3.4831Y2.3667
X3.4841Y0.7189
X3.4862Y0.6594
X3.4866Y-0.1167
X3.489Y2.1386
X3.4898Y1.2114
X3.4902Y0.7717
X3.4906Y0.8311
X3.4909Y1.0118
X3.4915Y0.9488
X3.4915Y0.8913
X3.5008Y2.103
X3.5016Y2.065
X3.5024Y1.9041
X3.5028Y1.288
X3.5049Y2.6053
X3.5069Y-0.0624
X3.5077Y0.0972
X3.5106Y0.5815
X3.5161Y0.6935
X3.5193Y0.6602
X3.526Y1.0108
X3.5266Y0.6146
X3.5278Y2.3417
X3.5303Y0.949
X3.5307Y0.8315
X3.5307Y0.7719
X3.5307Y0.7136
X3.5309Y0.8904
X3.5484Y-0.1163
X3.5575Y0.5567
X3.564Y2.6053
X3.5724Y2.2699
X3.5768Y0.4925
X3.5925Y0.6339
X3.5941Y0.5559
X3.5965Y0.7726
X3.5965Y0.5949
X3.5974Y0.714
X3.598Y0.8902
X3.5988Y1.0026
X3.599Y0.8319
X3.6012Y0.9488
X3.6094Y0.6598
X3.615Y0.5949
X3.6159Y0.1585
X3.6193Y0.5559
X3.6335Y0.5949
X3.6413Y2.2217
X3.6531Y1.711
X3.6701Y0.5701
X3.6941Y1.2882
X3.6974Y1.8988
X3.711Y2.2752
X3.7195Y2.1254
X3.7309Y0.1677
X3.7514Y0.2848
X3.7518Y0.2238
X3.7797Y1.2191
X3.7797Y2.1537
X3.7797Y2.0947
X3.7797Y2.0356
X3.7797Y1.9766
X3.7797Y1.9175
X3.7797Y1.8585
X3.7797Y1.7994
X3.7797Y1.7404
X3.7799Y2.3841
X3.7799Y2.2659
X3.7799Y2.2069
X3.7799Y1.6862
X3.7799Y1.6272
X3.7799Y1.5681
X3.7799Y1.5091
X3.7799Y1.45
X3.7799Y1.3909
X3.7799Y1.3319
X3.7799Y1.2728
X3.7799Y2.325
X3.7801Y1.1573
X3.7803Y1.098
X3.7805Y0.9234
X3.7805Y0.8644
X3.7805Y0.8053
X3.7805Y0.6872
X3.7805Y0.5691
X3.7805Y0.9825
X3.7805Y0.7463
X3.7805Y0.6281
X3.7807Y0.515
X3.7807Y0.4559
X3.7807Y0.3969
X3.7807Y0.3378
X3.7807Y0.2787
X3.7807Y0.2197
X3.7807Y0.1606
X3.7807Y0.1016
X3.7807Y1.0362
T4
X-0.0945Y2.485
X-0.0945Y0.0
X-0.0668Y2.5519
X-0.0668Y2.4182
X-0.0668Y0.0668
X-0.0668Y-0.0668
X0.0Y2.5795
X0.0Y2.3906
X0.0Y0.0945
X0.0Y-0.0945
X0.0668Y2.5519
X0.0668Y2.4182
X0.0668Y0.0668
X0.0668Y-0.0668
X0.0945Y2.485
X0.0945Y0.0
X3.5675Y2.485
X3.5675Y0.0
X3.5952Y2.5519
X3.5952Y2.4182
X3.5952Y0.0668
X3.5952Y-0.0668
X3.662Y2.5795
X3.662Y2.3906
X3.662Y0.0945
X3.662Y-0.0945
X3.7288Y2.5519
X3.7288Y2.4182
X3.7288Y0.0668
X3.7288Y-0.0668
X3.7565Y2.485
X3.7565Y0.0
T7
X0.2409Y0.0193
X0.3051Y0.0193
X0.374Y0.0193
X0.4378Y0.0193
T9
X0.2039Y0.1075
X0.4772Y0.1075
T10
X0.6344Y0.0411
X1.3823Y1.5953
X1.8549Y1.5933
X2.3283Y1.5929
X3.1386Y0.0413
T11
X0.0Y2.485
X0.0Y0.0
X3.662Y2.485
X3.662Y0.0
T5
G00X1.8362Y0.3902
M15
G01X1.8362Y0.3547
M16
G05
G00X1.8362Y0.15
M15
G01X1.8362Y0.1146
M16
G05
G00X1.9961Y0.3902
M15
G01X1.9961Y0.3547
M16
G05
G00X1.9961Y0.15
M15
G01X1.9961Y0.1146
M16
G05
G00X2.1132Y0.3911
M15
G01X2.1132Y0.3557
M16
G05
G00X2.1132Y0.151
M15
G01X2.1132Y0.1156
M16
G05
G00X2.273Y0.3911
M15
G01X2.273Y0.3557
M16
G05
G00X2.273Y0.151
M15
G01X2.273Y0.1156
M16
G05
G00X3.2803Y0.3898
M15
G01X3.2803Y0.3543
M16
G05
G00X3.2803Y0.1496
M15
G01X3.2803Y0.1142
M16
G05
G00X3.4402Y0.3898
M15
G01X3.4402Y0.3543
M16
G05
G00X3.4402Y0.1496
M15
G01X3.4402Y0.1142
M16
G05
T6
G00X1.5018Y0.3591
M15
G01X1.5018Y0.4004
M16
G05
G00X1.5018Y0.0402
M15
G01X1.5018Y0.0815
M16
G05
G00X1.738Y0.3591
M15
G01X1.738Y0.4004
M16
G05
G00X1.738Y0.0402
M15
G01X1.738Y0.0815
M16
G05
T8
G00X2.3836Y0.3026
M15
G01X2.3836Y0.2317
M16
G05
G00X2.3836Y0.0482
M15
G01X2.3836Y0.0167
M16
G05
G00X2.9545Y0.3026
M15
G01X2.9545Y0.2317
M16
G05
G00X2.9545Y0.0482
M15
G01X2.9545Y0.0167
M16
G05
M30
